<svg width="1067" height="794" viewBox="0 0 1067 794" fill="none" xmlns="http://www.w3.org/2000/svg">
<path d="M64.7531 158.883C64.7531 155.692 67.3057 153.105 70.4546 153.105H506.214C509.363 153.105 511.916 155.692 511.916 158.883V535.248C511.916 538.439 509.363 541.026 506.214 541.026H70.4546C67.3057 541.026 64.7531 538.439 64.7531 535.248V158.883Z" fill="#DAD4CF"/>
<path fill-rule="evenodd" clip-rule="evenodd" d="M296.901 371.827H96.5186V370.176H296.901V371.827Z" fill="black"/>
<path fill-rule="evenodd" clip-rule="evenodd" d="M296.901 406.079H96.5186V404.428H296.901V406.079Z" fill="black"/>
<path fill-rule="evenodd" clip-rule="evenodd" d="M296.901 452.299H96.5186V450.649H296.901V452.299Z" fill="black"/>
<path d="M109.929 257.401C106.84 257.401 104.103 256.787 101.718 255.559C99.3336 254.331 97.4765 252.608 96.1472 250.389C94.818 248.17 94.1533 245.635 94.1533 242.782V231.67C94.1533 228.817 94.818 226.282 96.1472 224.063C97.4765 221.845 99.3336 220.121 101.718 218.893C104.103 217.625 106.84 216.991 109.929 216.991C112.978 216.991 115.676 217.606 118.022 218.834C120.367 220.022 122.185 221.726 123.475 223.944C124.766 226.123 125.411 228.639 125.411 231.491V233.155H117.259V231.313C117.259 229.134 116.614 227.47 115.324 226.321C114.034 225.133 112.196 224.539 109.811 224.539C107.387 224.539 105.511 225.192 104.181 226.5C102.891 227.767 102.246 229.61 102.246 232.026V242.426C102.246 244.843 102.891 246.685 104.181 247.953C105.511 249.22 107.387 249.854 109.811 249.854C112.196 249.854 114.034 249.26 115.324 248.071C116.614 246.883 117.259 245.199 117.259 243.02V241.416H125.411V242.901C125.411 245.754 124.766 248.289 123.475 250.508C122.185 252.687 120.367 254.39 118.022 255.618C115.676 256.807 112.978 257.401 109.929 257.401Z" fill="black"/>
<path d="M126.868 225.133V217.705H154.313V225.133H144.637V256.688H136.544V225.133H126.868Z" fill="black"/>
<path d="M174.09 217.705C178.078 217.705 181.206 218.774 183.473 220.914C185.78 223.013 186.933 225.886 186.933 229.53V230.362C186.933 234.047 185.799 236.959 183.532 239.098C181.264 241.198 178.117 242.248 174.09 242.248H166.232V256.688H158.197V217.705H174.09ZM173.797 234.819C177.159 234.819 178.84 233.334 178.84 230.362V229.53C178.84 228.104 178.41 227.015 177.55 226.262C176.69 225.509 175.439 225.133 173.797 225.133H166.232V234.819H173.797Z" fill="black"/>
<path d="M217.547 255.44V256.688H209.395L207.401 249.438H195.086L193.092 256.688H184.941V255.44L196.552 217.705H205.935L217.547 255.44ZM205.407 242.366L201.244 227.213L197.08 242.366H205.407Z" fill="black"/>
<path d="M229.631 217.705V233.512H241.946V217.705H250.039V256.688H241.946V240.94H229.631V256.688H221.538V217.705H229.631Z" fill="black"/>
<path d="M290.017 249.2V264.77H281.983V256.688H262.044V264.77H253.951V249.2H257.411C259.209 245.754 260.147 241.376 260.226 236.067L260.46 217.705H285.853V249.2H290.017ZM267.732 236.424C267.693 241.534 266.852 245.793 265.21 249.2H277.76V225.192H267.908L267.732 236.424Z" fill="black"/>
<path d="M332.032 256.688H324.232V233.096L316.726 256.688H309.806L302.299 233.096V256.688H294.5V217.705H304.586L313.266 244.209L321.945 217.705H332.032V256.688Z" fill="black"/>
<path d="M353.437 257.401C350.348 257.401 347.612 256.787 345.227 255.559C342.881 254.291 341.044 252.548 339.714 250.33C338.424 248.071 337.779 245.536 337.779 242.723V231.67C337.779 228.857 338.424 226.341 339.714 224.123C341.044 221.864 342.901 220.121 345.285 218.893C347.67 217.625 350.388 216.991 353.437 216.991C356.526 216.991 359.262 217.625 361.647 218.893C364.032 220.121 365.87 221.845 367.16 224.063C368.489 226.282 369.154 228.817 369.154 231.67V242.723C369.154 245.575 368.489 248.111 367.16 250.33C365.87 252.548 364.032 254.291 361.647 255.559C359.301 256.787 356.565 257.401 353.437 257.401ZM353.437 249.854C355.822 249.854 357.679 249.2 359.008 247.893C360.377 246.546 361.061 244.724 361.061 242.426V232.086C361.061 229.669 360.396 227.807 359.067 226.5C357.738 225.192 355.861 224.539 353.437 224.539C351.013 224.539 349.136 225.192 347.807 226.5C346.517 227.807 345.872 229.669 345.872 232.086V242.426C345.872 244.803 346.517 246.645 347.807 247.953C349.136 249.22 351.013 249.854 353.437 249.854Z" fill="black"/>
<path d="M383.057 217.705V233.512H395.372V217.705H403.465V256.688H395.372V240.94H383.057V256.688H374.964V217.705H383.057Z" fill="black"/>
<path d="M108.997 351.093C109.811 351.093 110.528 351.258 111.147 351.588C111.777 351.908 112.266 352.364 112.613 352.959C112.961 353.553 113.135 354.23 113.135 354.989V358.026C113.135 358.786 112.961 359.462 112.613 360.057C112.266 360.651 111.777 361.113 111.147 361.443C110.528 361.762 109.811 361.922 108.997 361.922H105.266V351.093H108.997ZM109.046 360.156C109.741 360.156 110.278 359.969 110.658 359.594C111.039 359.209 111.229 358.676 111.229 357.993V355.038C111.229 354.356 111.039 353.822 110.658 353.437C110.278 353.052 109.741 352.859 109.046 352.859H107.172V360.156H109.046Z" fill="black"/>
<path d="M116.486 358.488V358.687C116.486 359.226 116.638 359.644 116.942 359.941C117.246 360.238 117.675 360.387 118.229 360.387C118.674 360.387 119.043 360.288 119.336 360.09C119.64 359.892 119.798 359.649 119.809 359.363H121.649C121.595 360.189 121.253 360.855 120.623 361.361C120.004 361.867 119.201 362.12 118.212 362.12C117.137 362.12 116.274 361.817 115.622 361.212C114.971 360.596 114.645 359.776 114.645 358.753V356.871C114.645 356.199 114.791 355.611 115.085 355.104C115.378 354.587 115.79 354.191 116.323 353.916C116.866 353.63 117.485 353.487 118.18 353.487C118.875 353.487 119.483 353.63 120.004 353.916C120.525 354.191 120.927 354.582 121.21 355.088C121.503 355.594 121.649 356.183 121.649 356.854V358.488H116.486ZM118.18 355.22C117.648 355.22 117.229 355.374 116.925 355.682C116.632 355.99 116.486 356.409 116.486 356.937V356.953H119.809V356.937C119.809 356.409 119.662 355.99 119.369 355.682C119.076 355.374 118.679 355.22 118.18 355.22Z" fill="black"/>
<path d="M126.466 362.12C125.413 362.12 124.576 361.878 123.957 361.394C123.338 360.91 123.029 360.249 123.029 359.413V359.231H124.87V359.413C124.87 359.765 125 360.024 125.261 360.189C125.521 360.354 125.934 360.436 126.499 360.436C126.987 360.436 127.367 360.37 127.639 360.238C127.91 360.095 128.046 359.897 128.046 359.644V359.512C128.046 359.094 127.699 358.819 127.004 358.687L125.733 358.455C124.918 358.301 124.289 358.026 123.843 357.63C123.409 357.234 123.192 356.733 123.192 356.128V355.946C123.192 355.209 123.496 354.615 124.104 354.164C124.723 353.712 125.532 353.487 126.531 353.487C127.552 353.487 128.356 353.729 128.942 354.213C129.539 354.686 129.838 355.336 129.838 356.161V356.343H128.014V356.161C128.014 355.82 127.889 355.572 127.639 355.418C127.389 355.253 126.998 355.171 126.466 355.171C125.999 355.171 125.635 355.237 125.375 355.369C125.125 355.49 125 355.671 125 355.913V356.045C125 356.232 125.092 356.398 125.277 356.541C125.461 356.673 125.727 356.772 126.075 356.838L127.362 357.085C128.166 357.239 128.785 357.52 129.219 357.927C129.653 358.334 129.871 358.835 129.871 359.429V359.611C129.871 360.37 129.561 360.981 128.942 361.443C128.323 361.894 127.498 362.12 126.466 362.12Z" fill="black"/>
<path d="M133.371 353.685V361.922H131.53V353.685H133.371ZM132.443 352.628C132.084 352.628 131.791 352.513 131.563 352.282C131.335 352.051 131.221 351.759 131.221 351.407C131.221 351.044 131.335 350.752 131.563 350.532C131.791 350.301 132.084 350.185 132.443 350.185C132.801 350.185 133.094 350.301 133.322 350.532C133.55 350.752 133.664 351.044 133.664 351.407C133.664 351.759 133.55 352.051 133.322 352.282C133.094 352.513 132.801 352.628 132.443 352.628Z" fill="black"/>
<path d="M142.044 353.685V361.757C142.044 362.747 141.723 363.523 141.083 364.084C140.453 364.646 139.589 364.926 138.493 364.926C137.428 364.926 136.581 364.662 135.951 364.134C135.321 363.606 135.007 362.896 135.007 362.005V361.905H136.88V362.005C136.88 362.368 137.032 362.665 137.336 362.896C137.64 363.127 138.042 363.243 138.542 363.243C139.052 363.243 139.454 363.111 139.747 362.846C140.051 362.593 140.203 362.247 140.203 361.806V360.799C139.649 361.24 138.965 361.46 138.151 361.46C137.195 361.46 136.435 361.168 135.87 360.585C135.305 359.991 135.023 359.198 135.023 358.208V356.772C135.023 355.77 135.305 354.972 135.87 354.378C136.435 353.784 137.2 353.487 138.167 353.487C139.036 353.487 139.763 353.74 140.35 354.246L140.415 353.685H142.044ZM138.525 359.743C138.894 359.743 139.226 359.666 139.519 359.512C139.812 359.358 140.04 359.143 140.203 358.868V356.128C140.029 355.842 139.796 355.622 139.503 355.468C139.209 355.314 138.884 355.237 138.525 355.237C138.015 355.237 137.608 355.385 137.303 355.682C137.01 355.968 136.864 356.359 136.864 356.854V358.125C136.864 358.621 137.01 359.017 137.303 359.314C137.608 359.6 138.015 359.743 138.525 359.743Z" fill="black"/>
<path d="M147.815 353.487C148.727 353.487 149.455 353.784 149.998 354.378C150.552 354.961 150.829 355.743 150.829 356.722V361.922H148.972V356.871C148.972 356.387 148.83 355.996 148.548 355.699C148.266 355.391 147.907 355.237 147.473 355.237C147.104 355.237 146.772 355.319 146.479 355.484C146.186 355.638 145.953 355.858 145.779 356.144V361.922H143.938V353.685H145.583L145.648 354.296C146.213 353.756 146.935 353.487 147.815 353.487Z" fill="black"/>
<path d="M164.764 351.093V361.922H162.858V357.68H161.766L158.981 361.922H156.961V361.625L159.632 357.614C158.796 357.482 158.139 357.146 157.661 356.607C157.183 356.056 156.944 355.363 156.944 354.527V354.246C156.944 353.278 157.254 352.513 157.873 351.952C158.503 351.379 159.355 351.093 160.431 351.093H164.764ZM162.858 352.859H160.447C159.936 352.859 159.54 352.981 159.258 353.223C158.986 353.454 158.85 353.795 158.85 354.246V354.527C158.85 354.989 158.986 355.341 159.258 355.583C159.529 355.825 159.931 355.946 160.463 355.946H162.858V352.859Z" fill="black"/>
<path d="M173.951 361.641V361.922H171.931L169.683 358.637H168.559V361.922H166.719V353.685H168.559V356.97H169.651L171.801 353.685H173.821V353.965L171.312 357.779L173.951 361.641Z" fill="black"/>
<path d="M177.963 362.12C177.268 362.12 176.654 361.983 176.122 361.707C175.59 361.421 175.177 361.025 174.884 360.519C174.591 360.002 174.444 359.407 174.444 358.736V356.887C174.444 356.216 174.585 355.622 174.867 355.104C175.161 354.587 175.573 354.191 176.106 353.916C176.638 353.63 177.257 353.487 177.963 353.487C178.669 353.487 179.288 353.63 179.82 353.916C180.363 354.191 180.781 354.587 181.074 355.104C181.367 355.622 181.514 356.216 181.514 356.887V358.736C181.514 359.76 181.188 360.579 180.536 361.196C179.896 361.812 179.038 362.12 177.963 362.12ZM177.979 360.37C178.511 360.37 178.924 360.222 179.217 359.925C179.521 359.616 179.673 359.204 179.673 358.687V356.953C179.673 356.425 179.521 356.007 179.217 355.699C178.924 355.391 178.511 355.237 177.979 355.237C177.458 355.237 177.045 355.391 176.741 355.699C176.437 356.007 176.285 356.425 176.285 356.953V358.687C176.285 359.204 176.437 359.616 176.741 359.925C177.056 360.222 177.468 360.37 177.979 360.37Z" fill="black"/>
<path d="M186.948 354.098C187.914 354.098 188.685 354.406 189.261 355.022C189.847 355.638 190.141 356.458 190.141 357.482V358.67C190.141 359.738 189.831 360.579 189.212 361.196C188.593 361.812 187.741 362.12 186.655 362.12C185.514 362.12 184.624 361.779 183.983 361.097C183.342 360.414 183.022 359.468 183.022 358.257V356.31C183.022 355.176 183.136 354.252 183.364 353.536C183.592 352.821 183.95 352.276 184.439 351.902C184.939 351.528 185.596 351.291 186.41 351.192L187.665 351.044C187.849 351.022 187.98 350.983 188.056 350.928C188.132 350.873 188.17 350.791 188.17 350.681V350.433H189.994V350.829C189.994 351.379 189.853 351.798 189.571 352.084C189.299 352.37 188.859 352.557 188.251 352.645L186.801 352.843C186.095 352.942 185.579 353.151 185.254 353.47C184.928 353.789 184.754 354.263 184.732 354.89C185.004 354.637 185.33 354.444 185.71 354.312C186.101 354.169 186.513 354.098 186.948 354.098ZM188.3 357.614C188.3 356.997 188.164 356.546 187.893 356.26C187.632 355.963 187.225 355.814 186.671 355.814C185.987 355.814 185.384 356.078 184.863 356.607V358.307C184.863 359.682 185.449 360.37 186.622 360.37C187.176 360.37 187.594 360.222 187.876 359.925C188.159 359.627 188.3 359.187 188.3 358.604V357.614Z" fill="black"/>
<path d="M200.722 351.093C201.797 351.093 202.644 351.379 203.263 351.952C203.893 352.513 204.208 353.278 204.208 354.246V354.527C204.208 355.506 203.893 356.282 203.263 356.854C202.644 357.415 201.797 357.696 200.722 357.696H198.311V361.922H196.405V351.093H200.722ZM200.689 355.946C201.221 355.946 201.623 355.825 201.895 355.583C202.166 355.341 202.302 354.989 202.302 354.527V354.246C202.302 353.795 202.161 353.454 201.878 353.223C201.607 352.981 201.211 352.859 200.689 352.859H198.311V355.946H200.689Z" fill="black"/>
<path d="M213.122 353.685V353.965L209.88 362.78C209.631 363.452 209.294 363.941 208.87 364.25C208.458 364.569 207.898 364.728 207.193 364.728H205.726V363.028H207.03C207.323 363.028 207.551 362.978 207.714 362.879C207.888 362.78 208.029 362.566 208.137 362.236L208.203 362.054L205.075 353.965V353.685H206.965L209.147 359.594L211.233 353.685H213.122Z" fill="black"/>
<path d="M216.237 353.701V356.937H219.478V353.701H221.335V361.922H219.478V358.637H216.237V361.922H214.396V353.701H216.237Z" fill="black"/>
<path d="M228.356 353.685V355.385H225.066V361.922H223.225V353.685H228.356Z" fill="black"/>
<path d="M230.755 358.488V358.687C230.755 359.226 230.907 359.644 231.211 359.941C231.515 360.238 231.944 360.387 232.498 360.387C232.943 360.387 233.312 360.288 233.605 360.09C233.91 359.892 234.067 359.649 234.078 359.363H235.919C235.864 360.189 235.522 360.855 234.892 361.361C234.273 361.867 233.47 362.12 232.481 362.12C231.406 362.12 230.543 361.817 229.891 361.212C229.24 360.596 228.914 359.776 228.914 358.753V356.871C228.914 356.199 229.06 355.611 229.354 355.104C229.647 354.587 230.06 354.191 230.592 353.916C231.135 353.63 231.754 353.487 232.449 353.487C233.144 353.487 233.752 353.63 234.273 353.916C234.795 354.191 235.196 354.582 235.479 355.088C235.772 355.594 235.919 356.183 235.919 356.854V358.488H230.755ZM232.449 355.22C231.917 355.22 231.499 355.374 231.194 355.682C230.901 355.99 230.755 356.409 230.755 356.937V356.953H234.078V356.937C234.078 356.409 233.931 355.99 233.638 355.682C233.345 355.374 232.948 355.22 232.449 355.22Z" fill="black"/>
<path d="M112.059 393.864V394.937H105.25V393.88L108.199 390.942C108.85 390.293 109.344 389.764 109.681 389.357C110.018 388.939 110.251 388.559 110.382 388.218C110.523 387.877 110.593 387.514 110.593 387.129V386.964C110.593 386.347 110.403 385.869 110.023 385.527C109.654 385.186 109.133 385.016 108.459 385.016C107.786 385.016 107.259 385.197 106.879 385.56C106.51 385.913 106.325 386.408 106.325 387.046V387.393H105.169V387.03C105.169 386.061 105.462 385.302 106.048 384.752C106.635 384.201 107.438 383.926 108.459 383.926C109.491 383.926 110.295 384.196 110.87 384.735C111.457 385.274 111.75 386.017 111.75 386.964V387.129C111.75 387.822 111.56 388.493 111.18 389.143C110.8 389.781 110.11 390.601 109.111 391.602L106.847 393.864H112.059Z" fill="black"/>
<path d="M117.62 395.118C116.914 395.118 116.285 394.97 115.731 394.673C115.188 394.375 114.759 393.963 114.444 393.434C114.14 392.906 113.988 392.306 113.988 391.635V387.442C113.988 386.76 114.14 386.155 114.444 385.627C114.748 385.087 115.177 384.669 115.731 384.372C116.285 384.075 116.914 383.926 117.62 383.926C118.326 383.926 118.951 384.08 119.494 384.388C120.048 384.686 120.476 385.104 120.781 385.643C121.085 386.171 121.237 386.771 121.237 387.442V391.635C121.237 392.306 121.079 392.906 120.764 393.434C120.46 393.963 120.031 394.375 119.477 394.673C118.934 394.97 118.315 395.118 117.62 395.118ZM117.62 394.012C118.37 394.012 118.962 393.792 119.396 393.352C119.841 392.912 120.064 392.317 120.064 391.569V387.508C120.064 386.76 119.841 386.166 119.396 385.726C118.951 385.274 118.359 385.049 117.62 385.049C116.871 385.049 116.274 385.269 115.828 385.709C115.383 386.149 115.16 386.749 115.16 387.508V391.569C115.16 392.317 115.383 392.912 115.828 393.352C116.274 393.792 116.871 394.012 117.62 394.012Z" fill="black"/>
<path d="M126.872 394.937H125.699V386.171C125.297 386.391 124.781 386.501 124.151 386.501H122.897V385.412H124.102C124.624 385.412 125.02 385.302 125.292 385.082C125.563 384.851 125.699 384.526 125.699 384.108H126.872V394.937Z" fill="black"/>
<path d="M133.012 383.926C133.729 383.926 134.364 384.069 134.918 384.355C135.472 384.642 135.901 385.043 136.205 385.56C136.509 386.078 136.661 386.672 136.661 387.343V391.586C136.661 392.29 136.509 392.912 136.205 393.451C135.901 393.979 135.472 394.392 134.918 394.689C134.375 394.975 133.745 395.118 133.028 395.118C132.344 395.118 131.736 394.997 131.204 394.755C130.672 394.513 130.259 394.172 129.966 393.732C129.672 393.291 129.526 392.785 129.526 392.213V391.982H130.682V392.213C130.682 392.752 130.894 393.192 131.318 393.534C131.752 393.864 132.322 394.029 133.028 394.029C133.778 394.029 134.375 393.814 134.82 393.385C135.265 392.945 135.488 392.356 135.488 391.619V389.935C135.173 390.221 134.793 390.447 134.348 390.612C133.913 390.766 133.441 390.843 132.93 390.843C132.246 390.843 131.638 390.711 131.106 390.447C130.585 390.183 130.177 389.808 129.884 389.324C129.602 388.84 129.461 388.284 129.461 387.657V387.129C129.461 386.501 129.607 385.946 129.9 385.461C130.205 384.977 130.623 384.603 131.155 384.339C131.698 384.064 132.317 383.926 133.012 383.926ZM133.012 389.753C133.587 389.753 134.087 389.643 134.511 389.423C134.945 389.203 135.271 388.9 135.488 388.515V387.36C135.488 386.655 135.26 386.089 134.804 385.66C134.348 385.23 133.75 385.016 133.012 385.016C132.284 385.016 131.703 385.203 131.269 385.577C130.845 385.951 130.634 386.463 130.634 387.112V387.64C130.634 388.312 130.84 388.834 131.253 389.209C131.665 389.572 132.252 389.753 133.012 389.753Z" fill="black"/>
<path d="M528.613 5.77756C528.613 2.58671 531.166 0 534.315 0H1055.6C1058.75 0 1061.3 2.5867 1061.3 5.77755V537.725C1061.3 540.915 1058.75 543.502 1055.6 543.502H534.315C531.166 543.502 528.613 540.915 528.613 537.725V5.77756Z" fill="#DAD4CF"/>
<path d="M820.205 557.946C820.205 554.755 822.758 552.168 825.907 552.168H1061.3C1064.45 552.168 1067 554.755 1067 557.946V788.222C1067 791.413 1064.45 794 1061.3 794H825.907C822.758 794 820.205 791.413 820.205 788.222V557.946Z" fill="#DAD4CF"/>
<path d="M0 557.946C0 554.755 2.55266 552.168 5.70153 552.168H803.101C806.25 552.168 808.802 554.755 808.802 557.946V788.222C808.802 791.413 806.25 794 803.101 794H5.70151C2.55264 794 0 791.413 0 788.222V557.946Z" fill="#DAD4CF"/>
<path d="M964.78 667.307L940.956 697.845H984.124L978.015 711.464H930.367L906.95 741.589H892.289L893.103 739.113L914.688 711.464H886.791L892.9 697.845H925.276L948.897 667.307H906.135L912.244 653.688H959.485L982.902 623.562H997.767L996.749 626.038L975.165 653.688H1003.47L997.36 667.307H964.78Z" fill="#040405"/>
<path d="M449.114 264.447C461.847 264.447 472.11 267.72 479.902 274.268C487.884 280.624 491.875 288.809 491.875 298.823C491.875 304.215 490.64 309.704 488.169 315.289L485.319 321.933H482.183L485.034 315.289C487.504 309.704 488.74 304.215 488.74 298.823C488.74 289.386 485.129 281.779 477.907 276.002C470.875 270.224 461.277 267.335 449.114 267.335C436.19 267.335 424.597 270.898 414.335 278.024C404.072 284.957 396.185 294.779 390.673 307.489L386.112 318.178C383.451 324.726 382.121 330.696 382.121 336.088C382.121 344.369 384.877 351.013 390.388 356.021C396.09 361.028 403.692 363.531 413.194 363.531H429.159L428.018 366.42H402.076C375.089 366.42 355.609 379.997 343.636 407.152L340.215 414.952C336.794 423.04 335.083 430.262 335.083 436.617C335.083 445.669 338.219 452.795 344.491 457.994C350.763 463.002 359.6 465.505 371.003 465.505H387.252C394.664 465.505 400.556 467.142 404.927 470.416C409.298 473.883 411.484 478.408 411.484 483.993C411.484 487.267 410.819 490.541 409.488 493.815L408.063 497.282C405.022 504.6 400.841 509.8 395.52 512.881C390.388 515.962 383.071 517.503 373.569 517.503H345.631L347.057 514.614H373.569C382.121 514.614 388.868 513.266 393.809 510.57C398.75 507.874 402.456 503.444 404.927 497.282L406.352 493.815C407.873 490.156 408.633 486.978 408.633 484.282C408.633 479.275 406.733 475.327 402.932 472.438C399.321 469.742 394.094 468.394 387.252 468.394H370.718C358.555 468.394 349.052 465.601 342.21 460.017C335.368 454.239 331.948 446.536 331.948 436.906C331.948 429.973 333.658 422.655 337.079 414.952L340.5 407.152C346.771 392.708 354.564 382.02 363.876 375.087C373.379 368.154 385.162 364.398 399.226 363.82C392.954 361.894 388.013 358.428 384.402 353.421C380.791 348.414 378.985 342.54 378.985 335.799C378.985 330.407 380.315 324.533 382.976 318.178L387.537 307.489C393.239 293.816 401.411 283.224 412.054 275.713C422.887 268.202 435.24 264.447 449.114 264.447Z" fill="#040405"/>
<path d="M96.5186 468.394H184.078V492.329H96.5186V468.394Z" fill="black"/>
<path d="M110.202 485.231V486.965H103.051V485.248L106.162 482.128C106.705 481.589 107.107 481.165 107.368 480.857C107.628 480.538 107.808 480.263 107.905 480.032C108.014 479.801 108.068 479.553 108.068 479.289V479.124C108.068 478.684 107.922 478.342 107.628 478.1C107.346 477.847 106.95 477.721 106.439 477.721C105.929 477.721 105.527 477.858 105.234 478.133C104.951 478.397 104.81 478.772 104.81 479.256V479.602H102.921V479.223C102.921 478.199 103.23 477.396 103.849 476.813C104.479 476.229 105.342 475.938 106.439 475.938C107.536 475.938 108.394 476.224 109.013 476.796C109.643 477.357 109.958 478.133 109.958 479.124V479.289C109.958 479.883 109.79 480.472 109.453 481.055C109.116 481.627 108.524 482.337 107.677 483.185L105.641 485.231H110.202Z" fill="#DAD4CF"/>
<path d="M115.584 487.163C114.835 487.163 114.156 487.003 113.548 486.684C112.95 486.365 112.483 485.925 112.147 485.364C111.81 484.802 111.642 484.175 111.642 483.482V479.652C111.642 478.948 111.81 478.315 112.147 477.754C112.483 477.192 112.95 476.752 113.548 476.433C114.156 476.114 114.835 475.954 115.584 475.954C116.333 475.954 117.007 476.114 117.604 476.433C118.201 476.752 118.668 477.192 119.005 477.754C119.341 478.315 119.51 478.948 119.51 479.652V483.482C119.51 484.175 119.341 484.802 119.005 485.364C118.668 485.925 118.201 486.365 117.604 486.684C117.007 487.003 116.333 487.163 115.584 487.163ZM115.584 485.364C116.214 485.364 116.708 485.187 117.066 484.835C117.425 484.483 117.604 483.993 117.604 483.366V479.751C117.604 479.135 117.419 478.651 117.05 478.298C116.692 477.935 116.203 477.754 115.584 477.754C114.954 477.754 114.454 477.935 114.085 478.298C113.727 478.651 113.548 479.135 113.548 479.751V483.366C113.548 483.982 113.727 484.472 114.085 484.835C114.454 485.187 114.954 485.364 115.584 485.364Z" fill="#DAD4CF"/>
<path d="M125.161 479.916C125.878 479.916 126.508 480.054 127.051 480.329C127.605 480.593 128.028 480.978 128.321 481.484C128.625 481.98 128.777 482.552 128.777 483.201V483.696C128.777 484.764 128.435 485.611 127.751 486.238C127.078 486.855 126.166 487.163 125.014 487.163C123.842 487.163 122.918 486.893 122.245 486.354C121.583 485.815 121.251 485.066 121.251 484.109V483.944H123.141V484.109C123.141 484.505 123.299 484.819 123.614 485.05C123.939 485.27 124.385 485.38 124.949 485.38C125.557 485.38 126.024 485.242 126.35 484.967C126.687 484.681 126.855 484.274 126.855 483.746V483.251C126.855 482.777 126.681 482.403 126.334 482.128C125.997 481.842 125.536 481.699 124.949 481.699C124.439 481.699 124.021 481.792 123.695 481.98C123.369 482.167 123.179 482.425 123.125 482.755H121.3L121.626 476.136H128.289V477.935H123.337L123.206 480.428C123.749 480.087 124.401 479.916 125.161 479.916Z" fill="#DAD4CF"/>
<path d="M131.374 487.163C131.037 487.163 130.76 487.053 130.543 486.833C130.326 486.613 130.217 486.332 130.217 485.991C130.217 485.65 130.326 485.375 130.543 485.165C130.76 484.945 131.037 484.835 131.374 484.835C131.71 484.835 131.987 484.945 132.204 485.165C132.422 485.375 132.53 485.65 132.53 485.991C132.53 486.343 132.422 486.629 132.204 486.849C131.998 487.058 131.721 487.163 131.374 487.163Z" fill="#DAD4CF"/>
<path d="M141.796 485.231V486.965H134.645V485.248L137.756 482.128C138.299 481.589 138.701 481.165 138.962 480.857C139.222 480.538 139.401 480.263 139.499 480.032C139.608 479.801 139.662 479.553 139.662 479.289V479.124C139.662 478.684 139.515 478.342 139.222 478.1C138.94 477.847 138.543 477.721 138.033 477.721C137.523 477.721 137.121 477.858 136.828 478.133C136.545 478.397 136.404 478.772 136.404 479.256V479.602H134.514V479.223C134.514 478.199 134.824 477.396 135.443 476.813C136.073 476.229 136.936 475.938 138.033 475.938C139.13 475.938 139.988 476.224 140.607 476.796C141.237 477.357 141.552 478.133 141.552 479.124V479.289C141.552 479.883 141.383 480.472 141.047 481.055C140.71 481.627 140.118 482.337 139.271 483.185L137.235 485.231H141.796Z" fill="#DAD4CF"/>
<path d="M149.387 476.136V477.886C148.247 479.724 147.437 481.297 146.96 482.607C146.482 483.916 146.243 485.231 146.243 486.552V486.965H144.321V486.552C144.321 484.065 145.336 481.176 147.367 477.886H142.35V476.136H149.387Z" fill="#DAD4CF"/>
<path d="M154.814 486.965H152.908V478.81C152.582 478.92 152.175 478.975 151.686 478.975H150.448V477.209H151.605C152.028 477.209 152.349 477.121 152.566 476.945C152.794 476.758 152.908 476.488 152.908 476.136H154.814V486.965Z" fill="#DAD4CF"/>
<path d="M158.609 487.163C158.272 487.163 157.995 487.053 157.778 486.833C157.561 486.613 157.452 486.332 157.452 485.991C157.452 485.65 157.561 485.375 157.778 485.165C157.995 484.945 158.272 484.835 158.609 484.835C158.945 484.835 159.222 484.945 159.439 485.165C159.657 485.375 159.765 485.65 159.765 485.991C159.765 486.343 159.657 486.629 159.439 486.849C159.233 487.058 158.956 487.163 158.609 487.163Z" fill="#DAD4CF"/>
<path d="M165.115 475.938C165.875 475.938 166.554 476.097 167.151 476.417C167.759 476.725 168.231 477.159 168.568 477.721C168.905 478.271 169.073 478.898 169.073 479.602V483.383C169.073 484.12 168.905 484.775 168.568 485.347C168.242 485.919 167.781 486.365 167.183 486.684C166.597 487.003 165.918 487.163 165.147 487.163C164.42 487.163 163.768 487.031 163.192 486.767C162.628 486.503 162.182 486.134 161.857 485.661C161.531 485.176 161.368 484.626 161.368 484.01V483.845H163.274V484.01C163.274 484.428 163.448 484.764 163.795 485.017C164.154 485.27 164.604 485.397 165.147 485.397C165.745 485.397 166.228 485.215 166.597 484.852C166.977 484.489 167.167 484.015 167.167 483.432V482.392C166.559 482.81 165.826 483.019 164.968 483.019C164.273 483.019 163.643 482.876 163.078 482.59C162.525 482.293 162.09 481.891 161.775 481.385C161.471 480.868 161.319 480.296 161.319 479.669V479.338C161.319 478.689 161.477 478.106 161.791 477.589C162.117 477.071 162.568 476.67 163.144 476.384C163.73 476.086 164.387 475.938 165.115 475.938ZM165.115 481.253C165.592 481.253 166.005 481.182 166.353 481.039C166.711 480.885 166.983 480.664 167.167 480.378V479.635C167.167 479.063 166.977 478.601 166.597 478.249C166.217 477.886 165.723 477.704 165.115 477.704C164.539 477.704 164.078 477.853 163.73 478.15C163.393 478.436 163.225 478.821 163.225 479.305V479.635C163.225 480.153 163.388 480.554 163.714 480.841C164.05 481.116 164.517 481.253 165.115 481.253Z" fill="#DAD4CF"/>
<path d="M174.731 479.916C175.448 479.916 176.078 480.054 176.621 480.329C177.175 480.593 177.598 480.978 177.892 481.484C178.196 481.98 178.348 482.552 178.348 483.201V483.696C178.348 484.764 178.006 485.611 177.321 486.238C176.648 486.855 175.736 487.163 174.585 487.163C173.412 487.163 172.489 486.893 171.815 486.354C171.153 485.815 170.822 485.066 170.822 484.109V483.944H172.711V484.109C172.711 484.505 172.869 484.819 173.184 485.05C173.51 485.27 173.955 485.38 174.519 485.38C175.128 485.38 175.595 485.242 175.92 484.967C176.257 484.681 176.425 484.274 176.425 483.746V483.251C176.425 482.777 176.252 482.403 175.904 482.128C175.567 481.842 175.106 481.699 174.519 481.699C174.009 481.699 173.591 481.792 173.265 481.98C172.939 482.167 172.749 482.425 172.695 482.755H170.871L171.196 476.136H177.859V477.935H172.907L172.776 480.428C173.319 480.087 173.971 479.916 174.731 479.916Z" fill="#DAD4CF"/>
<path d="M201.997 725.907H344.535V774.604H201.997V725.907Z" fill="black"/>
<path d="M219.82 750.055C221.253 750.256 222.376 750.912 223.19 752.025C224.004 753.115 224.41 754.55 224.41 756.331V756.998C224.41 759.112 223.862 760.792 222.765 762.038C221.669 763.262 220.183 763.874 218.308 763.874C216.379 763.874 214.876 763.307 213.797 762.172C212.718 761.015 212.178 759.413 212.178 757.365V756.698H215.256V757.365C215.256 758.322 215.513 759.045 216.026 759.535C216.556 760.025 217.317 760.269 218.308 760.269C219.263 760.269 219.997 759.991 220.51 759.435C221.041 758.879 221.306 758.089 221.306 757.065V756.397C221.306 755.396 221.032 754.639 220.483 754.128C219.935 753.594 219.157 753.327 218.148 753.327H215.601V750.289L220.059 745.115H212.55V741.577H224.092V745.115L219.82 750.055Z" fill="#DAD4CF"/>
<path d="M233.432 763.874C232.211 763.874 231.106 763.552 230.115 762.906C229.142 762.261 228.381 761.371 227.833 760.236C227.285 759.101 227.011 757.833 227.011 756.431V748.687C227.011 747.263 227.285 745.983 227.833 744.848C228.381 743.714 229.142 742.823 230.115 742.178C231.106 741.533 232.211 741.21 233.432 741.21C234.652 741.21 235.749 741.533 236.722 742.178C237.695 742.823 238.456 743.714 239.004 744.848C239.552 745.983 239.827 747.263 239.827 748.687V756.431C239.827 757.833 239.552 759.101 239.004 760.236C238.456 761.371 237.695 762.261 236.722 762.906C235.749 763.552 234.652 763.874 233.432 763.874ZM233.432 760.236C234.458 760.236 235.263 759.88 235.846 759.168C236.43 758.456 236.722 757.466 236.722 756.197V748.887C236.722 747.641 236.421 746.662 235.82 745.95C235.236 745.216 234.44 744.848 233.432 744.848C232.406 744.848 231.592 745.216 230.991 745.95C230.407 746.662 230.115 747.641 230.115 748.887V756.197C230.115 757.443 230.407 758.434 230.991 759.168C231.592 759.88 232.406 760.236 233.432 760.236Z" fill="#DAD4CF"/>
<path d="M249.775 750.055C251.207 750.256 252.331 750.912 253.144 752.025C253.958 753.115 254.365 754.55 254.365 756.331V756.998C254.365 759.112 253.817 760.792 252.72 762.038C251.623 763.262 250.137 763.874 248.262 763.874C246.334 763.874 244.83 763.307 243.751 762.172C242.672 761.015 242.133 759.413 242.133 757.365V756.698H245.211V757.365C245.211 758.322 245.467 759.045 245.98 759.535C246.511 760.025 247.271 760.269 248.262 760.269C249.217 760.269 249.951 759.991 250.464 759.435C250.995 758.879 251.26 758.089 251.26 757.065V756.397C251.26 755.396 250.986 754.639 250.438 754.128C249.89 753.594 249.111 753.327 248.103 753.327H245.556V750.289L250.013 745.115H242.504V741.577H254.047V745.115L249.775 750.055Z" fill="#DAD4CF"/>
<path d="M258.684 763.874C258.136 763.874 257.685 763.652 257.331 763.207C256.977 762.762 256.8 762.194 256.8 761.504C256.8 760.815 256.977 760.258 257.331 759.835C257.685 759.39 258.136 759.168 258.684 759.168C259.233 759.168 259.684 759.39 260.038 759.835C260.391 760.258 260.568 760.815 260.568 761.504C260.568 762.216 260.391 762.795 260.038 763.24C259.702 763.663 259.25 763.874 258.684 763.874Z" fill="#DAD4CF"/>
<path d="M273.872 752.225C274.615 752.737 275.19 753.393 275.597 754.194C276.004 754.973 276.207 755.852 276.207 756.831V757.499C276.207 758.745 275.933 759.858 275.385 760.837C274.854 761.794 274.102 762.539 273.129 763.073C272.156 763.607 271.042 763.874 269.786 763.874C268.53 763.874 267.416 763.607 266.443 763.073C265.47 762.539 264.709 761.794 264.161 760.837C263.63 759.858 263.365 758.745 263.365 757.499V756.831C263.365 755.852 263.559 754.973 263.948 754.194C264.355 753.393 264.93 752.737 265.673 752.225C265.054 751.691 264.568 751.057 264.214 750.323C263.878 749.588 263.71 748.776 263.71 747.886V747.218C263.71 746.017 263.966 744.96 264.479 744.047C264.992 743.135 265.709 742.434 266.628 741.944C267.548 741.433 268.601 741.177 269.786 741.177C270.971 741.177 272.024 741.433 272.944 741.944C273.863 742.434 274.571 743.135 275.066 744.047C275.579 744.96 275.836 746.017 275.836 747.218V747.886C275.836 748.776 275.668 749.588 275.332 750.323C274.996 751.057 274.509 751.691 273.872 752.225ZM266.788 747.786C266.788 749.655 267.787 750.59 269.786 750.59C271.785 750.59 272.784 749.655 272.784 747.786V747.452C272.784 746.562 272.528 745.883 272.015 745.416C271.502 744.949 270.759 744.715 269.786 744.715C268.795 744.715 268.044 744.949 267.531 745.416C267.035 745.883 266.788 746.562 266.788 747.452V747.786ZM273.103 756.998C273.103 756.086 272.811 755.385 272.227 754.895C271.661 754.406 270.847 754.161 269.786 754.161C268.707 754.161 267.876 754.406 267.292 754.895C266.726 755.385 266.443 756.086 266.443 756.998V757.566C266.443 758.456 266.735 759.134 267.318 759.602C267.902 760.069 268.725 760.303 269.786 760.303C270.847 760.303 271.661 760.069 272.227 759.602C272.811 759.112 273.103 758.434 273.103 757.566V756.998Z" fill="#DAD4CF"/>
<path d="M289.42 752.225C290.163 752.737 290.737 753.393 291.144 754.194C291.551 754.973 291.755 755.852 291.755 756.831V757.499C291.755 758.745 291.48 759.858 290.932 760.837C290.401 761.794 289.65 762.539 288.677 763.073C287.704 763.607 286.589 763.874 285.333 763.874C284.077 763.874 282.963 763.607 281.99 763.073C281.017 762.539 280.256 761.794 279.708 760.837C279.177 759.858 278.912 758.745 278.912 757.499V756.831C278.912 755.852 279.107 754.973 279.496 754.194C279.903 753.393 280.478 752.737 281.221 752.225C280.601 751.691 280.115 751.057 279.761 750.323C279.425 749.588 279.257 748.776 279.257 747.886V747.218C279.257 746.017 279.513 744.96 280.026 744.047C280.539 743.135 281.256 742.434 282.176 741.944C283.096 741.433 284.148 741.177 285.333 741.177C286.518 741.177 287.571 741.433 288.491 741.944C289.411 742.434 290.118 743.135 290.614 744.047C291.127 744.96 291.383 746.017 291.383 747.218V747.886C291.383 748.776 291.215 749.588 290.879 750.323C290.543 751.057 290.056 751.691 289.42 752.225ZM282.335 747.786C282.335 749.655 283.334 750.59 285.333 750.59C287.332 750.59 288.332 749.655 288.332 747.786V747.452C288.332 746.562 288.075 745.883 287.562 745.416C287.049 744.949 286.306 744.715 285.333 744.715C284.343 744.715 283.591 744.949 283.078 745.416C282.583 745.883 282.335 746.562 282.335 747.452V747.786ZM288.65 756.998C288.65 756.086 288.358 755.385 287.774 754.895C287.208 754.406 286.395 754.161 285.333 754.161C284.254 754.161 283.423 754.406 282.839 754.895C282.273 755.385 281.99 756.086 281.99 756.998V757.566C281.99 758.456 282.282 759.134 282.866 759.602C283.449 760.069 284.272 760.303 285.333 760.303C286.395 760.303 287.208 760.069 287.774 759.602C288.358 759.112 288.65 758.434 288.65 757.566V756.998Z" fill="#DAD4CF"/>
<path d="M300.376 741.177C301.615 741.177 302.72 741.499 303.693 742.145C304.684 742.768 305.453 743.647 306.002 744.782C306.55 745.894 306.824 747.163 306.824 748.587V756.231C306.824 757.721 306.55 759.045 306.002 760.203C305.471 761.36 304.719 762.261 303.746 762.906C302.791 763.552 301.685 763.874 300.43 763.874C299.244 763.874 298.183 763.607 297.245 763.073C296.326 762.539 295.6 761.794 295.07 760.837C294.539 759.858 294.274 758.745 294.274 757.499V757.165H297.378V757.499C297.378 758.345 297.661 759.023 298.227 759.535C298.811 760.047 299.545 760.303 300.43 760.303C301.402 760.303 302.19 759.936 302.791 759.201C303.41 758.467 303.72 757.51 303.72 756.331V754.228C302.729 755.073 301.535 755.496 300.138 755.496C299.006 755.496 297.98 755.207 297.06 754.628C296.158 754.028 295.45 753.215 294.937 752.192C294.442 751.146 294.194 749.989 294.194 748.72V748.053C294.194 746.74 294.451 745.56 294.964 744.515C295.494 743.469 296.228 742.657 297.166 742.078C298.121 741.477 299.191 741.177 300.376 741.177ZM300.376 751.925C301.155 751.925 301.827 751.78 302.393 751.491C302.977 751.179 303.419 750.734 303.72 750.156V748.654C303.72 747.496 303.41 746.562 302.791 745.85C302.172 745.115 301.367 744.748 300.376 744.748C299.439 744.748 298.687 745.049 298.121 745.65C297.573 746.228 297.299 747.007 297.299 747.986V748.654C297.299 749.699 297.564 750.512 298.095 751.09C298.643 751.647 299.404 751.925 300.376 751.925Z" fill="#DAD4CF"/>
<path d="M311.545 763.874C310.997 763.874 310.546 763.652 310.192 763.207C309.838 762.762 309.661 762.194 309.661 761.504C309.661 760.815 309.838 760.258 310.192 759.835C310.546 759.39 310.997 759.168 311.545 759.168C312.094 759.168 312.545 759.39 312.898 759.835C313.252 760.258 313.429 760.815 313.429 761.504C313.429 762.216 313.252 762.795 312.898 763.24C312.562 763.663 312.111 763.874 311.545 763.874Z" fill="#DAD4CF"/>
<path d="M320.471 763.474H317.367V746.985C316.836 747.207 316.173 747.318 315.377 747.318H313.36V743.747H315.244C315.934 743.747 316.456 743.569 316.81 743.213C317.181 742.835 317.367 742.289 317.367 741.577H320.471V763.474Z" fill="#DAD4CF"/>
<path d="M329.942 741.177C331.181 741.177 332.286 741.499 333.259 742.145C334.25 742.768 335.019 743.647 335.567 744.782C336.116 745.894 336.39 747.163 336.39 748.587V756.231C336.39 757.721 336.116 759.045 335.567 760.203C335.037 761.36 334.285 762.261 333.312 762.906C332.357 763.552 331.251 763.874 329.995 763.874C328.81 763.874 327.749 763.607 326.811 763.073C325.891 762.539 325.166 761.794 324.635 760.837C324.105 759.858 323.839 758.745 323.839 757.499V757.165H326.944V757.499C326.944 758.345 327.227 759.023 327.793 759.535C328.377 760.047 329.111 760.303 329.995 760.303C330.968 760.303 331.755 759.936 332.357 759.201C332.976 758.467 333.286 757.51 333.286 756.331V754.228C332.295 755.073 331.101 755.496 329.703 755.496C328.571 755.496 327.545 755.207 326.626 754.628C325.723 754.028 325.016 753.215 324.503 752.192C324.007 751.146 323.76 749.989 323.76 748.72V748.053C323.76 746.74 324.016 745.56 324.529 744.515C325.06 743.469 325.794 742.657 326.732 742.078C327.687 741.477 328.757 741.177 329.942 741.177ZM329.942 751.925C330.721 751.925 331.393 751.78 331.959 751.491C332.543 751.179 332.985 750.734 333.286 750.156V748.654C333.286 747.496 332.976 746.562 332.357 745.85C331.738 745.115 330.933 744.748 329.942 744.748C329.005 744.748 328.253 745.049 327.687 745.65C327.139 746.228 326.864 747.007 326.864 747.986V748.654C326.864 749.699 327.13 750.512 327.66 751.09C328.209 751.647 328.969 751.925 329.942 751.925Z" fill="#DAD4CF"/>
<path d="M115.296 422.807V422.372C115.296 421.738 115.087 421.236 114.67 420.866C114.253 420.47 113.68 420.272 112.95 420.272C112.246 420.272 111.686 420.47 111.269 420.866C110.852 421.236 110.643 421.725 110.643 422.332V423.521C110.643 424.181 110.826 424.709 111.191 425.105C111.582 425.475 112.103 425.66 112.754 425.66H117.602V431.286H112.246C111.542 431.286 110.995 431.457 110.604 431.801C110.239 432.144 110.057 432.646 110.057 433.306V433.702C110.057 434.415 110.291 434.944 110.76 435.287C111.256 435.63 111.999 435.802 112.989 435.802H114.357C116.495 435.802 118.111 436.343 119.205 437.426C120.326 438.483 120.886 440.041 120.886 442.101V442.418C120.886 444.452 120.352 446.01 119.283 447.093C118.241 448.176 116.729 448.717 114.748 448.717H111.191V443.646H113.849C114.475 443.646 114.787 443.409 114.787 442.933V442.695C114.787 442.484 114.696 442.312 114.514 442.18C114.357 442.048 114.136 441.982 113.849 441.982H111.972C110.226 441.982 108.688 441.679 107.359 441.071C106.056 440.464 105.039 439.632 104.31 438.575C103.606 437.519 103.254 436.357 103.254 435.089V434.297C103.254 432.976 103.554 431.814 104.153 430.81C104.753 429.807 105.626 429.027 106.773 428.473C105.808 427.892 105.065 427.152 104.544 426.254C104.049 425.33 103.801 424.326 103.801 423.243V421.857C103.801 420.325 104.166 418.965 104.896 417.776C105.626 416.561 106.681 415.61 108.063 414.924C109.444 414.237 111.06 413.894 112.911 413.894C114.787 413.894 116.416 414.25 117.798 414.963C119.205 415.676 120.274 416.667 121.004 417.935C121.76 419.176 122.137 420.589 122.137 422.174V422.807H115.296Z" fill="#040405"/>
<path d="M510.694 761.59V767.176H492.827V761.629L500.49 754.379C501.949 752.979 502.914 751.936 503.383 751.249C503.878 750.563 504.126 749.85 504.126 749.11V748.714C504.126 748.001 503.865 747.42 503.344 746.971C502.849 746.522 502.171 746.297 501.311 746.297C500.373 746.297 499.643 746.548 499.122 747.05C498.6 747.525 498.34 748.199 498.34 749.071V749.902H492.397V749.031C492.397 746.363 493.179 744.303 494.743 742.851C496.307 741.398 498.509 740.672 501.35 740.672C504.113 740.672 506.276 741.358 507.84 742.732C509.404 744.079 510.186 745.941 510.186 748.318V748.714C510.186 750.193 509.795 751.646 509.013 753.072C508.231 754.472 506.967 756.004 505.221 757.668L501.076 761.59H510.694Z" fill="#040405"/>
<path d="M523.219 767.691C521.264 767.691 519.518 767.281 517.98 766.463C516.442 765.644 515.244 764.535 514.383 763.135C513.523 761.709 513.093 760.137 513.093 758.42V749.982C513.093 748.265 513.523 746.707 514.383 745.307C515.244 743.881 516.442 742.758 517.98 741.939C519.518 741.121 521.264 740.711 523.219 740.711C525.174 740.711 526.92 741.121 528.458 741.939C529.996 742.758 531.182 743.881 532.016 745.307C532.876 746.707 533.306 748.265 533.306 749.982V758.42C533.306 760.163 532.876 761.748 532.016 763.174C531.182 764.574 529.996 765.683 528.458 766.502C526.92 767.295 525.174 767.691 523.219 767.691ZM523.219 761.827C524.47 761.827 525.422 761.51 526.073 760.877C526.751 760.216 527.09 759.292 527.09 758.103V750.299C527.09 749.137 526.738 748.225 526.034 747.565C525.356 746.878 524.418 746.535 523.219 746.535C521.994 746.535 521.03 746.878 520.326 747.565C519.648 748.225 519.31 749.137 519.31 750.299V758.103C519.31 759.265 519.648 760.177 520.326 760.837C521.03 761.497 521.994 761.827 523.219 761.827Z" fill="#040405"/>
<path d="M546.908 767.176H540.692V748.674C539.91 748.912 539.05 749.031 538.111 749.031H535.57V743.207H538.268C539.884 743.207 540.692 742.534 540.692 741.187H546.908V767.176Z" fill="#040405"/>
<path d="M560.354 740.672C562.335 740.672 564.082 741.068 565.593 741.86C567.105 742.626 568.265 743.696 569.073 745.069C569.907 746.443 570.324 747.988 570.324 749.704V758.46C570.324 760.229 569.907 761.814 569.073 763.214C568.265 764.614 567.105 765.71 565.593 766.502C564.082 767.295 562.322 767.691 560.315 767.691C557.318 767.691 554.959 766.964 553.239 765.512C551.519 764.059 550.659 762.105 550.659 759.648V759.331L556.875 759.371V759.688C556.875 760.507 557.175 761.127 557.774 761.55C558.4 761.946 559.26 762.144 560.354 762.144C561.501 762.144 562.4 761.827 563.052 761.193C563.73 760.56 564.069 759.701 564.069 758.618V756.756C562.713 757.549 561.123 757.945 559.299 757.945C557.526 757.945 555.976 757.615 554.646 756.954C553.343 756.294 552.327 755.383 551.597 754.221C550.893 753.059 550.541 751.751 550.541 750.299V748.952C550.541 747.341 550.932 745.914 551.714 744.673C552.522 743.432 553.669 742.454 555.155 741.741C556.64 741.028 558.374 740.672 560.354 740.672ZM560.276 752.478C561.97 752.478 563.234 752.055 564.069 751.21V749.625C564.069 748.569 563.73 747.737 563.052 747.129C562.4 746.522 561.475 746.218 560.276 746.218C559.181 746.218 558.321 746.469 557.696 746.971C557.096 747.473 556.797 748.159 556.797 749.031V749.704C556.797 750.576 557.083 751.263 557.657 751.765C558.256 752.24 559.129 752.478 560.276 752.478Z" fill="#040405"/>
<path fill-rule="evenodd" clip-rule="evenodd" d="M778.259 252.149H568.931V250.498H778.259V252.149Z" fill="black"/>
<path fill-rule="evenodd" clip-rule="evenodd" d="M778.259 294.655H568.931V293.004H778.259V294.655Z" fill="black"/>
<path fill-rule="evenodd" clip-rule="evenodd" d="M778.259 340.875H568.931V339.225H778.259V340.875Z" fill="black"/>
<path d="M576.115 230.59C576.929 230.59 577.646 230.755 578.265 231.085C578.895 231.405 579.384 231.861 579.731 232.455C580.079 233.05 580.252 233.727 580.252 234.486V237.523C580.252 238.283 580.079 238.959 579.731 239.554C579.384 240.148 578.895 240.61 578.265 240.94C577.646 241.259 576.929 241.419 576.115 241.419H572.384V230.59H576.115ZM576.164 239.653C576.859 239.653 577.396 239.466 577.776 239.091C578.156 238.706 578.346 238.172 578.346 237.49V234.535C578.346 233.853 578.156 233.319 577.776 232.934C577.396 232.549 576.859 232.356 576.164 232.356H574.29V239.653H576.164Z" fill="black"/>
<path d="M583.603 237.985V238.183C583.603 238.723 583.755 239.141 584.059 239.438C584.364 239.735 584.792 239.884 585.346 239.884C585.792 239.884 586.161 239.785 586.454 239.587C586.758 239.389 586.916 239.146 586.926 238.86H588.767C588.713 239.686 588.371 240.351 587.741 240.858C587.122 241.364 586.318 241.617 585.33 241.617C584.255 241.617 583.392 241.314 582.74 240.709C582.088 240.093 581.763 239.273 581.763 238.25V236.368C581.763 235.696 581.909 235.108 582.202 234.601C582.496 234.084 582.908 233.688 583.44 233.413C583.983 233.127 584.602 232.984 585.297 232.984C585.993 232.984 586.601 233.127 587.122 233.413C587.643 233.688 588.045 234.079 588.327 234.585C588.621 235.091 588.767 235.68 588.767 236.351V237.985H583.603ZM585.297 234.717C584.765 234.717 584.347 234.871 584.043 235.179C583.75 235.487 583.603 235.905 583.603 236.434V236.45H586.926V236.434C586.926 235.905 586.78 235.487 586.487 235.179C586.193 234.871 585.797 234.717 585.297 234.717Z" fill="black"/>
<path d="M593.584 241.617C592.53 241.617 591.694 241.375 591.075 240.891C590.456 240.406 590.147 239.746 590.147 238.91V238.728H591.987V238.91C591.987 239.262 592.118 239.521 592.378 239.686C592.639 239.851 593.052 239.933 593.616 239.933C594.105 239.933 594.485 239.867 594.757 239.735C595.028 239.592 595.164 239.394 595.164 239.141V239.009C595.164 238.591 594.816 238.316 594.121 238.183L592.851 237.952C592.036 237.798 591.406 237.523 590.961 237.127C590.527 236.731 590.309 236.23 590.309 235.625V235.443C590.309 234.706 590.614 234.112 591.222 233.661C591.841 233.209 592.65 232.984 593.649 232.984C594.67 232.984 595.473 233.226 596.06 233.71C596.657 234.183 596.956 234.833 596.956 235.658V235.839H595.131V235.658C595.131 235.317 595.006 235.069 594.757 234.915C594.507 234.75 594.116 234.667 593.584 234.667C593.117 234.667 592.753 234.733 592.492 234.866C592.243 234.987 592.118 235.168 592.118 235.41V235.542C592.118 235.729 592.21 235.894 592.395 236.038C592.579 236.17 592.845 236.269 593.193 236.335L594.48 236.582C595.283 236.736 595.902 237.017 596.337 237.424C596.771 237.831 596.988 238.332 596.988 238.926V239.108C596.988 239.867 596.679 240.478 596.06 240.94C595.441 241.391 594.615 241.617 593.584 241.617Z" fill="black"/>
<path d="M600.489 233.182V241.419H598.648V233.182H600.489ZM599.56 232.125C599.202 232.125 598.909 232.01 598.681 231.779C598.453 231.548 598.339 231.256 598.339 230.904C598.339 230.541 598.453 230.249 598.681 230.029C598.909 229.798 599.202 229.682 599.56 229.682C599.919 229.682 600.212 229.798 600.44 230.029C600.668 230.249 600.782 230.541 600.782 230.904C600.782 231.256 600.668 231.548 600.44 231.779C600.212 232.01 599.919 232.125 599.56 232.125Z" fill="black"/>
<path d="M609.162 233.182V241.254C609.162 242.244 608.841 243.02 608.201 243.581C607.571 244.143 606.707 244.423 605.61 244.423C604.546 244.423 603.699 244.159 603.069 243.631C602.439 243.103 602.124 242.393 602.124 241.501V241.402H603.998V241.501C603.998 241.865 604.15 242.162 604.454 242.393C604.758 242.624 605.16 242.74 605.659 242.74C606.17 242.74 606.572 242.607 606.865 242.343C607.169 242.09 607.321 241.744 607.321 241.303V240.296C606.767 240.737 606.083 240.957 605.268 240.957C604.313 240.957 603.552 240.665 602.988 240.082C602.423 239.488 602.141 238.695 602.141 237.705V236.269C602.141 235.267 602.423 234.469 602.988 233.875C603.552 233.281 604.318 232.984 605.285 232.984C606.153 232.984 606.881 233.237 607.467 233.743L607.533 233.182H609.162ZM605.643 239.24C606.012 239.24 606.343 239.163 606.637 239.009C606.93 238.855 607.158 238.64 607.321 238.365V235.625C607.147 235.339 606.914 235.119 606.62 234.965C606.327 234.811 606.001 234.733 605.643 234.733C605.133 234.733 604.725 234.882 604.421 235.179C604.128 235.465 603.981 235.856 603.981 236.351V237.622C603.981 238.117 604.128 238.514 604.421 238.811C604.725 239.097 605.133 239.24 605.643 239.24Z" fill="black"/>
<path d="M614.933 232.984C615.845 232.984 616.573 233.281 617.116 233.875C617.67 234.458 617.946 235.24 617.946 236.219V241.419H616.089V236.368C616.089 235.883 615.948 235.493 615.666 235.196C615.384 234.888 615.025 234.733 614.591 234.733C614.221 234.733 613.89 234.816 613.597 234.981C613.304 235.135 613.07 235.355 612.897 235.641V241.419H611.056V233.182H612.701L612.766 233.793C613.331 233.253 614.053 232.984 614.933 232.984Z" fill="black"/>
<path d="M632.142 241.419H630.22V232.356H627.092L626.994 237.919C626.984 239.064 626.723 239.933 626.213 240.528C625.713 241.122 624.985 241.419 624.03 241.419H623.492V239.653H623.736C624.214 239.653 624.562 239.504 624.779 239.207C624.996 238.899 625.11 238.409 625.121 237.738L625.219 230.59H632.142V241.419Z" fill="black"/>
<path d="M635.867 233.182V238.464L639.255 233.182H640.933V241.419H639.141V236.137L635.769 241.419H634.091V233.182H635.867Z" fill="black"/>
<path d="M648.331 237.259C648.711 237.424 649.004 237.661 649.21 237.969C649.417 238.266 649.52 238.618 649.52 239.025V239.289C649.52 240.016 649.205 240.588 648.575 241.006C647.956 241.413 647.098 241.617 646.001 241.617C644.915 241.617 644.052 241.369 643.411 240.874C642.781 240.368 642.466 239.686 642.466 238.827V238.481H644.307V238.728C644.307 239.554 644.893 239.966 646.066 239.966C647.152 239.966 647.695 239.664 647.695 239.058V238.91C647.695 238.635 647.598 238.426 647.402 238.283C647.217 238.139 646.951 238.068 646.604 238.068H644.959V236.45H646.506C646.875 236.45 647.152 236.384 647.337 236.252C647.532 236.109 647.63 235.911 647.63 235.658V235.509C647.63 235.234 647.5 235.025 647.239 234.882C646.979 234.728 646.598 234.651 646.099 234.651C644.904 234.651 644.307 235.086 644.307 235.955V236.153H642.466V235.922C642.466 235.35 642.613 234.844 642.906 234.403C643.21 233.952 643.628 233.605 644.16 233.363C644.703 233.121 645.328 233 646.034 233C647.076 233 647.902 233.209 648.51 233.627C649.129 234.046 649.438 234.607 649.438 235.311V235.575C649.438 235.961 649.341 236.296 649.145 236.582C648.961 236.868 648.689 237.094 648.331 237.259Z" fill="black"/>
<path d="M658.803 239.719V241.419H657.858C657.098 241.419 656.533 241.182 656.164 240.709C655.567 241.314 654.752 241.617 653.72 241.617C652.808 241.617 652.086 241.402 651.554 240.973C651.033 240.533 650.772 239.933 650.772 239.174C650.772 238.503 650.984 237.974 651.407 237.589C651.842 237.193 652.504 236.934 653.395 236.813L655.724 236.483V236.038C655.724 235.619 655.594 235.3 655.333 235.08C655.083 234.849 654.714 234.733 654.225 234.733C653.726 234.733 653.346 234.844 653.085 235.064C652.824 235.284 652.694 235.597 652.694 236.005V236.12H650.837V236.005C650.837 235.08 651.147 234.348 651.766 233.809C652.385 233.259 653.221 232.984 654.274 232.984C655.328 232.984 656.142 233.253 656.718 233.793C657.293 234.332 657.581 235.091 657.581 236.071V239.025C657.581 239.488 657.804 239.719 658.249 239.719H658.803ZM653.851 240.016C654.253 240.016 654.616 239.933 654.942 239.768C655.279 239.592 655.539 239.345 655.724 239.025V237.969L653.72 238.266C653.362 238.31 653.085 238.415 652.89 238.58C652.705 238.734 652.613 238.926 652.613 239.157C652.613 239.422 652.721 239.631 652.938 239.785C653.167 239.939 653.471 240.016 653.851 240.016Z" fill="black"/>
<path d="M671.385 231.349C672.666 231.349 673.665 231.713 674.382 232.439C675.099 233.165 675.457 234.167 675.457 235.443V236.582C675.457 237.859 675.093 238.86 674.366 239.587C673.649 240.302 672.655 240.66 671.385 240.66H670.668V241.617H668.762V240.66H668.045C666.775 240.66 665.781 240.302 665.064 239.587C664.347 238.86 663.989 237.859 663.989 236.582V235.443C663.989 234.167 664.347 233.165 665.064 232.439C665.781 231.713 666.775 231.349 668.045 231.349H668.762V230.392H670.668V231.349H671.385ZM665.879 236.533C665.879 237.325 666.058 237.914 666.416 238.299C666.775 238.684 667.318 238.877 668.045 238.877H668.778V233.116H668.045C666.601 233.116 665.879 233.903 665.879 235.476V236.533ZM673.568 235.476C673.568 233.903 672.84 233.116 671.385 233.116H670.652V238.877H671.385C672.123 238.877 672.672 238.69 673.03 238.316C673.388 237.93 673.568 237.336 673.568 236.533V235.476Z" fill="black"/>
<path d="M678.708 233.182V238.464L682.096 233.182H683.774V241.419H681.982V236.137L678.61 241.419H676.932V233.182H678.708Z" fill="black"/>
<path d="M687.506 233.182V239.719H690.39V233.182H692.247V239.719H695.081V233.182H696.938V241.419H685.666V233.182H687.506Z" fill="black"/>
<path d="M702.634 233.594C703.6 233.594 704.371 233.903 704.947 234.519C705.533 235.135 705.826 235.955 705.826 236.978V238.167C705.826 239.234 705.517 240.076 704.898 240.693C704.279 241.309 703.426 241.617 702.34 241.617C701.2 241.617 700.31 241.276 699.669 240.594C699.028 239.911 698.708 238.965 698.708 237.754V235.806C698.708 234.673 698.822 233.749 699.05 233.033C699.278 232.318 699.636 231.773 700.125 231.399C700.624 231.025 701.282 230.788 702.096 230.689L703.35 230.541C703.535 230.519 703.665 230.48 703.741 230.425C703.817 230.37 703.855 230.288 703.855 230.177V229.93H705.68V230.326C705.68 230.876 705.539 231.294 705.256 231.581C704.985 231.867 704.545 232.054 703.937 232.142L702.487 232.34C701.781 232.439 701.265 232.648 700.939 232.967C700.614 233.286 700.44 233.76 700.418 234.387C700.69 234.134 701.015 233.941 701.396 233.809C701.787 233.666 702.199 233.594 702.634 233.594ZM703.986 237.111C703.986 236.494 703.85 236.043 703.578 235.757C703.318 235.46 702.911 235.311 702.357 235.311C701.672 235.311 701.07 235.575 700.548 236.104V237.804C700.548 239.179 701.135 239.867 702.308 239.867C702.862 239.867 703.28 239.719 703.562 239.422C703.845 239.124 703.986 238.684 703.986 238.101V237.111Z" fill="black"/>
<path d="M715.198 239.719V241.419H714.253C713.493 241.419 712.928 241.182 712.559 240.709C711.961 241.314 711.147 241.617 710.115 241.617C709.203 241.617 708.481 241.402 707.949 240.973C707.427 240.533 707.167 239.933 707.167 239.174C707.167 238.503 707.378 237.974 707.802 237.589C708.236 237.193 708.899 236.934 709.789 236.813L712.119 236.483V236.038C712.119 235.619 711.989 235.3 711.728 235.08C711.478 234.849 711.109 234.733 710.62 234.733C710.121 234.733 709.741 234.844 709.48 235.064C709.219 235.284 709.089 235.597 709.089 236.005V236.12H707.232V236.005C707.232 235.08 707.541 234.348 708.16 233.809C708.779 233.259 709.616 232.984 710.669 232.984C711.723 232.984 712.537 233.253 713.113 233.793C713.688 234.332 713.976 235.091 713.976 236.071V239.025C713.976 239.488 714.199 239.719 714.644 239.719H715.198ZM710.246 240.016C710.647 240.016 711.011 239.933 711.337 239.768C711.674 239.592 711.934 239.345 712.119 239.025V237.969L710.115 238.266C709.757 238.31 709.48 238.415 709.284 238.58C709.1 238.734 709.007 238.926 709.007 239.157C709.007 239.422 709.116 239.631 709.333 239.785C709.561 239.939 709.865 240.016 710.246 240.016Z" fill="black"/>
<path d="M723.116 241.138V241.419H721.112L719.369 238.695L717.626 241.419H715.623V241.138L718.164 237.276L715.688 233.462V233.182H717.691L719.369 235.839L721.047 233.182H723.051V233.462L720.559 237.276L723.116 241.138Z" fill="black"/>
<path d="M581.214 278.313V279.386H574.404V278.329L577.353 275.391C578.004 274.742 578.499 274.213 578.835 273.806C579.172 273.388 579.405 273.008 579.536 272.667C579.677 272.326 579.747 271.963 579.747 271.578V271.413C579.747 270.796 579.557 270.318 579.177 269.977C578.808 269.635 578.287 269.465 577.613 269.465C576.94 269.465 576.413 269.646 576.033 270.01C575.664 270.362 575.479 270.857 575.479 271.495V271.842H574.323V271.479C574.323 270.51 574.616 269.751 575.203 269.201C575.789 268.65 576.593 268.375 577.613 268.375C578.645 268.375 579.449 268.645 580.024 269.184C580.611 269.723 580.904 270.466 580.904 271.413V271.578C580.904 272.271 580.714 272.942 580.334 273.592C579.954 274.23 579.264 275.05 578.265 276.051L576.001 278.313H581.214Z" fill="black"/>
<path d="M586.774 279.567C586.069 279.567 585.439 279.419 584.885 279.122C584.342 278.824 583.913 278.412 583.598 277.884C583.294 277.355 583.142 276.756 583.142 276.084V271.891C583.142 271.209 583.294 270.604 583.598 270.076C583.902 269.536 584.331 269.118 584.885 268.821C585.439 268.524 586.069 268.375 586.774 268.375C587.48 268.375 588.105 268.529 588.648 268.838C589.202 269.135 589.631 269.553 589.935 270.092C590.239 270.62 590.391 271.22 590.391 271.891V276.084C590.391 276.756 590.233 277.355 589.918 277.884C589.614 278.412 589.185 278.824 588.632 279.122C588.089 279.419 587.47 279.567 586.774 279.567ZM586.774 278.461C587.524 278.461 588.116 278.241 588.55 277.801C588.995 277.361 589.218 276.767 589.218 276.018V271.957C589.218 271.209 588.995 270.615 588.55 270.175C588.105 269.723 587.513 269.498 586.774 269.498C586.025 269.498 585.428 269.718 584.983 270.158C584.537 270.598 584.315 271.198 584.315 271.957V276.018C584.315 276.767 584.537 277.361 584.983 277.801C585.428 278.241 586.025 278.461 586.774 278.461Z" fill="black"/>
<path d="M596.026 279.386H594.853V270.62C594.451 270.84 593.935 270.951 593.305 270.951H592.051V269.861H593.257C593.778 269.861 594.174 269.751 594.446 269.531C594.717 269.3 594.853 268.975 594.853 268.557H596.026V279.386Z" fill="black"/>
<path d="M602.166 268.375C602.883 268.375 603.518 268.518 604.072 268.805C604.626 269.091 605.055 269.492 605.359 270.01C605.663 270.527 605.815 271.121 605.815 271.792V276.035C605.815 276.739 605.663 277.361 605.359 277.9C605.055 278.428 604.626 278.841 604.072 279.138C603.529 279.424 602.899 279.567 602.182 279.567C601.498 279.567 600.89 279.446 600.358 279.204C599.826 278.962 599.413 278.621 599.12 278.181C598.827 277.74 598.68 277.234 598.68 276.662V276.431H599.837V276.662C599.837 277.201 600.048 277.641 600.472 277.983C600.906 278.313 601.476 278.478 602.182 278.478C602.932 278.478 603.529 278.263 603.974 277.834C604.42 277.394 604.642 276.805 604.642 276.068V274.384C604.327 274.67 603.947 274.896 603.502 275.061C603.067 275.215 602.595 275.292 602.085 275.292C601.4 275.292 600.792 275.16 600.26 274.896C599.739 274.632 599.332 274.257 599.038 273.773C598.756 273.289 598.615 272.733 598.615 272.106V271.578C598.615 270.951 598.761 270.395 599.055 269.911C599.359 269.426 599.777 269.052 600.309 268.788C600.852 268.513 601.471 268.375 602.166 268.375ZM602.166 274.202C602.742 274.202 603.241 274.092 603.665 273.872C604.099 273.652 604.425 273.35 604.642 272.964V271.809C604.642 271.105 604.414 270.538 603.958 270.109C603.502 269.679 602.905 269.465 602.166 269.465C601.438 269.465 600.857 269.652 600.423 270.026C599.999 270.4 599.788 270.912 599.788 271.561V272.09C599.788 272.761 599.994 273.284 600.407 273.658C600.819 274.021 601.406 274.202 602.166 274.202Z" fill="black"/>
<path d="M565.266 357.795H656.897V385.858H565.266V357.795Z" fill="black"/>
<path d="M573.394 367.403C574.155 367.403 574.833 367.562 575.431 367.881C576.039 368.189 576.511 368.624 576.848 369.185C577.185 369.736 577.353 370.363 577.353 371.067V374.847C577.353 375.585 577.185 376.239 576.848 376.812C576.522 377.384 576.061 377.83 575.463 378.149C574.877 378.468 574.198 378.628 573.427 378.628C572.699 378.628 572.048 378.495 571.472 378.231C570.908 377.967 570.462 377.599 570.136 377.125C569.811 376.641 569.648 376.091 569.648 375.475V375.31H571.554V375.475C571.554 375.893 571.727 376.228 572.075 376.482C572.433 376.735 572.884 376.861 573.427 376.861C574.024 376.861 574.508 376.68 574.877 376.317C575.257 375.953 575.447 375.48 575.447 374.897V373.857C574.839 374.275 574.106 374.484 573.248 374.484C572.553 374.484 571.923 374.341 571.358 374.055C570.804 373.758 570.37 373.356 570.055 372.85C569.751 372.333 569.599 371.761 569.599 371.133V370.803C569.599 370.154 569.756 369.571 570.071 369.053C570.397 368.536 570.848 368.134 571.423 367.848C572.01 367.551 572.667 367.403 573.394 367.403ZM573.394 372.718C573.872 372.718 574.285 372.646 574.633 372.503C574.991 372.349 575.262 372.129 575.447 371.843V371.1C575.447 370.528 575.257 370.066 574.877 369.714C574.497 369.35 574.003 369.169 573.394 369.169C572.819 369.169 572.357 369.317 572.01 369.615C571.673 369.901 571.505 370.286 571.505 370.77V371.1C571.505 371.617 571.668 372.019 571.994 372.305C572.33 372.58 572.797 372.718 573.394 372.718Z" fill="#DAD4CF"/>
<path d="M582.995 378.628C582.245 378.628 581.567 378.468 580.959 378.149C580.361 377.83 579.894 377.389 579.558 376.828C579.221 376.267 579.053 375.64 579.053 374.946V371.117C579.053 370.412 579.221 369.78 579.558 369.218C579.894 368.657 580.361 368.217 580.959 367.898C581.567 367.579 582.245 367.419 582.995 367.419C583.744 367.419 584.417 367.579 585.015 367.898C585.612 368.217 586.079 368.657 586.416 369.218C586.752 369.78 586.921 370.412 586.921 371.117V374.946C586.921 375.64 586.752 376.267 586.416 376.828C586.079 377.389 585.612 377.83 585.015 378.149C584.417 378.468 583.744 378.628 582.995 378.628ZM582.995 376.828C583.625 376.828 584.119 376.652 584.477 376.3C584.836 375.948 585.015 375.458 585.015 374.831V371.216C585.015 370.599 584.83 370.115 584.461 369.763C584.103 369.4 583.614 369.218 582.995 369.218C582.365 369.218 581.865 369.4 581.496 369.763C581.138 370.115 580.959 370.599 580.959 371.216V374.831C580.959 375.447 581.138 375.937 581.496 376.3C581.865 376.652 582.365 376.828 582.995 376.828Z" fill="#DAD4CF"/>
<path d="M597.263 376.184H595.7V378.429H593.81V376.184H588.532V374.385C589.01 373.296 589.401 372.206 589.705 371.117C590.009 370.027 590.248 368.855 590.422 367.601H592.376V367.898C592.051 370.187 591.47 372.349 590.633 374.385H593.81V369.499H595.7V374.385H597.263V376.184Z" fill="#DAD4CF"/>
<path d="M599.5 378.628C599.164 378.628 598.887 378.517 598.67 378.297C598.452 378.077 598.344 377.797 598.344 377.456C598.344 377.114 598.452 376.839 598.67 376.63C598.887 376.41 599.164 376.3 599.5 376.3C599.837 376.3 600.114 376.41 600.331 376.63C600.548 376.839 600.657 377.114 600.657 377.456C600.657 377.808 600.548 378.094 600.331 378.314C600.125 378.523 599.848 378.628 599.5 378.628Z" fill="#DAD4CF"/>
<path d="M606.495 371.546C607.19 371.546 607.815 371.694 608.368 371.992C608.933 372.278 609.368 372.679 609.672 373.197C609.987 373.703 610.144 374.27 610.144 374.897V375.227C610.144 375.876 609.981 376.46 609.655 376.977C609.34 377.494 608.89 377.901 608.303 378.198C607.728 378.484 607.076 378.628 606.349 378.628C605.588 378.628 604.904 378.473 604.296 378.165C603.699 377.846 603.232 377.412 602.895 376.861C602.558 376.3 602.39 375.667 602.39 374.963V371.183C602.39 370.445 602.553 369.791 602.879 369.218C603.215 368.646 603.677 368.2 604.263 367.881C604.861 367.562 605.545 367.403 606.316 367.403C607.044 367.403 607.69 367.535 608.254 367.799C608.83 368.063 609.281 368.437 609.607 368.921C609.932 369.394 610.095 369.939 610.095 370.555V370.721H608.189V370.555C608.189 370.137 608.01 369.802 607.652 369.549C607.304 369.295 606.859 369.169 606.316 369.169C605.719 369.169 605.23 369.35 604.85 369.714C604.481 370.077 604.296 370.55 604.296 371.133V372.173C604.904 371.755 605.637 371.546 606.495 371.546ZM608.238 374.93C608.238 374.413 608.07 374.017 607.733 373.741C607.407 373.455 606.946 373.312 606.349 373.312C605.871 373.312 605.453 373.389 605.094 373.543C604.747 373.686 604.481 373.901 604.296 374.187V374.93C604.296 375.502 604.486 375.97 604.866 376.333C605.246 376.685 605.74 376.861 606.349 376.861C606.924 376.861 607.38 376.718 607.717 376.432C608.064 376.135 608.238 375.744 608.238 375.26V374.93Z" fill="#DAD4CF"/>
<path d="M620.315 376.184H618.751V378.429H616.861V376.184H611.583V374.385C612.061 373.296 612.452 372.206 612.756 371.117C613.06 370.027 613.299 368.855 613.473 367.601H615.428V367.898C615.102 370.187 614.521 372.349 613.685 374.385H616.861V369.499H618.751V374.385H620.315V376.184Z" fill="#DAD4CF"/>
<path d="M628.631 376.696V378.429H621.48V376.713L624.591 373.593C625.134 373.054 625.536 372.63 625.796 372.322C626.057 372.003 626.236 371.727 626.334 371.496C626.443 371.265 626.497 371.018 626.497 370.754V370.588C626.497 370.148 626.35 369.807 626.057 369.565C625.775 369.312 625.378 369.185 624.868 369.185C624.358 369.185 623.956 369.323 623.662 369.598C623.38 369.862 623.239 370.236 623.239 370.721V371.067H621.349V370.688C621.349 369.664 621.659 368.861 622.278 368.277C622.908 367.694 623.771 367.403 624.868 367.403C625.965 367.403 626.823 367.689 627.442 368.261C628.072 368.822 628.387 369.598 628.387 370.588V370.754C628.387 371.348 628.218 371.937 627.882 372.52C627.545 373.092 626.953 373.802 626.106 374.649L624.07 376.696H628.631Z" fill="#DAD4CF"/>
<path d="M631.667 378.628C631.33 378.628 631.053 378.517 630.836 378.297C630.619 378.077 630.51 377.797 630.51 377.456C630.51 377.114 630.619 376.839 630.836 376.63C631.053 376.41 631.33 376.3 631.667 376.3C632.004 376.3 632.28 376.41 632.498 376.63C632.715 376.839 632.823 377.114 632.823 377.456C632.823 377.808 632.715 378.094 632.498 378.314C632.291 378.523 632.014 378.628 631.667 378.628Z" fill="#DAD4CF"/>
<path d="M640.991 372.866C641.447 373.12 641.8 373.444 642.05 373.84C642.3 374.226 642.425 374.66 642.425 375.145V375.475C642.425 376.091 642.256 376.641 641.92 377.125C641.594 377.599 641.132 377.967 640.535 378.231C639.938 378.495 639.254 378.628 638.482 378.628C637.711 378.628 637.027 378.495 636.43 378.231C635.833 377.967 635.366 377.599 635.029 377.125C634.703 376.641 634.54 376.091 634.54 375.475V375.145C634.54 374.66 634.66 374.226 634.899 373.84C635.148 373.444 635.501 373.12 635.958 372.866C635.577 372.602 635.279 372.289 635.062 371.926C634.855 371.562 634.752 371.161 634.752 370.721V370.39C634.752 369.796 634.91 369.273 635.224 368.822C635.539 368.371 635.979 368.024 636.544 367.782C637.109 367.529 637.755 367.403 638.482 367.403C639.21 367.403 639.856 367.529 640.421 367.782C640.986 368.024 641.42 368.371 641.724 368.822C642.039 369.273 642.197 369.796 642.197 370.39V370.721C642.197 371.161 642.093 371.562 641.887 371.926C641.681 372.289 641.382 372.602 640.991 372.866ZM636.642 370.671C636.642 371.595 637.255 372.058 638.482 372.058C639.71 372.058 640.323 371.595 640.323 370.671V370.506C640.323 370.066 640.166 369.73 639.851 369.499C639.536 369.268 639.08 369.152 638.482 369.152C637.874 369.152 637.413 369.268 637.098 369.499C636.794 369.73 636.642 370.066 636.642 370.506V370.671ZM640.519 375.227C640.519 374.776 640.34 374.429 639.981 374.187C639.634 373.945 639.134 373.824 638.482 373.824C637.82 373.824 637.31 373.945 636.951 374.187C636.604 374.429 636.43 374.776 636.43 375.227V375.508C636.43 375.948 636.609 376.284 636.968 376.515C637.326 376.746 637.831 376.861 638.482 376.861C639.134 376.861 639.634 376.746 639.981 376.515C640.34 376.272 640.519 375.937 640.519 375.508V375.227Z" fill="#DAD4CF"/>
<path d="M652.752 376.184H651.188V378.429H649.298V376.184H644.02V374.385C644.498 373.296 644.889 372.206 645.193 371.117C645.497 370.027 645.736 368.855 645.91 367.601H647.865V367.898C647.539 370.187 646.958 372.349 646.122 374.385H649.298V369.499H651.188V374.385H652.752V376.184Z" fill="#DAD4CF"/>
<path d="M596.943 322.087C596.943 324.675 596.422 326.722 595.38 328.227C594.337 329.706 592.747 330.697 590.61 331.199V334.289H596.943V334.685H590.219V330.921C592.408 330.419 594.011 329.469 595.028 328.069C596.044 326.643 596.552 324.648 596.552 322.087V317.412C596.552 314.744 595.823 312.631 594.363 311.073C592.903 309.488 590.923 308.696 588.42 308.696C585.944 308.696 583.976 309.488 582.517 311.073C581.057 312.631 580.327 314.744 580.327 317.412V322.087C580.327 324.648 580.836 326.643 581.852 328.069C582.869 329.469 584.472 330.419 586.661 330.921V334.685H579.937V334.289H586.27V331.238C584.107 330.736 582.504 329.746 581.461 328.267C580.445 326.761 579.937 324.701 579.937 322.087V317.412C579.937 314.612 580.692 312.393 582.204 310.756C583.742 309.118 585.814 308.3 588.42 308.3C591.027 308.3 593.099 309.118 594.637 310.756C596.174 312.393 596.943 314.612 596.943 317.412V322.087ZM574.893 308.696L574.111 317.214H573.72L574.502 308.696H574.893Z" fill="#040405"/>
<path d="M577.861 155.469C574.773 155.469 572.036 154.855 569.651 153.627C567.266 152.399 565.409 150.675 564.08 148.457C562.75 146.238 562.086 143.703 562.086 140.85V129.737C562.086 126.885 562.75 124.349 564.08 122.131C565.409 119.912 567.266 118.189 569.651 116.961C572.036 115.693 574.773 115.059 577.861 115.059C580.911 115.059 583.608 115.673 585.954 116.901C588.3 118.09 590.118 119.793 591.408 122.012C592.698 124.191 593.343 126.707 593.343 129.559V131.223H585.192V129.381C585.192 127.202 584.547 125.538 583.256 124.389C581.966 123.2 580.129 122.606 577.744 122.606C575.32 122.606 573.443 123.26 572.114 124.567C570.824 125.835 570.179 127.677 570.179 130.094V140.493C570.179 142.91 570.824 144.752 572.114 146.02C573.443 147.288 575.32 147.922 577.744 147.922C580.129 147.922 581.966 147.328 583.256 146.139C584.547 144.95 585.192 143.267 585.192 141.088V139.483H593.343V140.969C593.343 143.821 592.698 146.357 591.408 148.575C590.118 150.754 588.3 152.458 585.954 153.686C583.608 154.875 580.911 155.469 577.861 155.469Z" fill="black"/>
<path d="M613.767 155.469C610.678 155.469 607.941 154.855 605.556 153.627C603.211 152.359 601.373 150.616 600.044 148.397C598.754 146.139 598.109 143.603 598.109 140.791V129.737C598.109 126.925 598.754 124.409 600.044 122.19C601.373 119.932 603.23 118.189 605.615 116.961C608 115.693 610.717 115.059 613.767 115.059C616.855 115.059 619.592 115.693 621.977 116.961C624.362 118.189 626.199 119.912 627.489 122.131C628.819 124.349 629.483 126.885 629.483 129.737V140.791C629.483 143.643 628.819 146.179 627.489 148.397C626.199 150.616 624.362 152.359 621.977 153.627C619.631 154.855 616.894 155.469 613.767 155.469ZM613.767 147.922C616.151 147.922 618.008 147.268 619.338 145.961C620.706 144.614 621.39 142.791 621.39 140.493V130.153C621.39 127.737 620.726 125.875 619.396 124.567C618.067 123.26 616.191 122.606 613.767 122.606C611.343 122.606 609.466 123.26 608.137 124.567C606.847 125.875 606.201 127.737 606.201 130.153V140.493C606.201 142.871 606.847 144.713 608.137 146.02C609.466 147.288 611.343 147.922 613.767 147.922Z" fill="black"/>
<path d="M663.34 154.756H655.247V123.26H645.395L645.043 141.86C644.965 146.099 643.988 149.308 642.111 151.487C640.273 153.666 637.576 154.756 634.018 154.756H631.672V147.268H632.728C634.331 147.268 635.484 146.793 636.188 145.842C636.931 144.851 637.322 143.267 637.361 141.088L637.654 115.772H663.34V154.756Z" fill="black"/>
<path d="M698.74 117.02L689.357 135.145L698.681 153.508V154.756H690.119L682.143 138.77H677.804V154.756H669.77V115.772H677.804V131.342H682.261L690.119 115.772H698.74V117.02Z" fill="black"/>
<path d="M732.408 154.756H724.315V123.26H714.462L714.111 141.86C714.032 146.099 713.055 149.308 711.178 151.487C709.341 153.666 706.643 154.756 703.085 154.756H700.74V147.268H701.795C703.398 147.268 704.552 146.793 705.255 145.842C705.998 144.851 706.389 143.267 706.428 141.088L706.721 115.772H732.408V154.756Z" fill="black"/>
<path d="M746.754 115.772V140.315L759.421 115.772H767.514V154.756H759.597V130.213L746.93 154.756H738.837V115.772H746.754Z" fill="black"/>
<path d="M782.036 115.772V131.58H794.351V115.772H802.444V154.756H794.351V139.008H782.036V154.756H773.943V115.772H782.036Z" fill="black"/>
<path d="M806.298 123.2V115.772H833.743V123.2H824.067V154.756H815.974V123.2H806.298Z" fill="black"/>
<path d="M970.644 271.38C984.762 271.38 997.034 273.911 1007.46 278.973C1018.1 283.815 1026.25 290.748 1031.89 299.772C1037.76 308.576 1040.69 318.48 1040.69 329.485C1040.69 338.949 1038.41 348.964 1033.85 359.529L1015.6 400.797C1008.65 416.644 1000.4 428.639 990.844 436.783C981.504 444.706 968.689 450.429 952.399 453.95L947.512 465.505H988.238L976.509 491.917H908.742L934.154 434.141C948.273 432.381 959.133 428.639 966.735 422.916C974.554 417.194 981.287 407.95 986.934 395.184L1005.18 353.916C1008.65 345.993 1010.39 338.509 1010.39 331.466C1010.39 321.122 1006.7 312.978 999.315 307.035C992.147 300.873 982.156 297.791 969.341 297.791C955.223 297.791 943.277 301.423 933.503 308.686C923.946 315.729 915.801 326.954 909.068 342.361L890.497 385.28C887.456 392.763 885.936 399.366 885.936 405.089C885.936 418.955 893.755 428.419 909.394 433.481L883.655 491.917H812.956L824.359 465.505H867.691L875.836 447.017C862.37 437.333 855.636 424.347 855.636 408.06C855.636 398.376 857.808 388.691 862.152 379.007L880.397 337.079C889.954 315.069 902.117 298.672 916.887 287.887C931.874 276.882 949.793 271.38 970.644 271.38ZM885.61 275.341L847.165 347.643H818.495L856.94 275.341H885.61Z" fill="black"/>
<path d="M160.309 633.88V694.75C160.309 707.543 156.576 717.448 149.11 724.463C141.779 731.479 131.327 734.987 117.751 734.987H108.181V770.065H99.2215V734.987H89.6511C76.076 734.987 65.5553 731.479 58.0891 724.463C50.7585 717.448 47.0933 707.543 47.0933 694.75V633.88H56.2564V694.75C56.2564 705.067 59.0393 712.908 64.6051 718.273C70.1709 723.638 78.4517 726.32 89.4475 726.32H99.2215V591.373H108.181V726.32H117.751C128.612 726.32 136.892 723.707 142.594 718.479C148.295 713.114 151.146 705.205 151.146 694.75V633.88H160.309Z" fill="black"/>
<path fill-rule="evenodd" clip-rule="evenodd" d="M194.666 587.04V774.619H193.037V587.04H194.666Z" fill="black"/>
<path fill-rule="evenodd" clip-rule="evenodd" d="M472.412 586.834V774.413H470.783V586.834H472.412Z" fill="black"/>
<path d="M229.511 637.792V638.832H222.425L216.463 627.739L210.598 638.832H203.463V637.792L212.113 622.44L203.61 607.385V606.345H210.745L216.463 617.141L222.229 606.345H229.364V607.385L220.861 622.44L229.511 637.792Z" fill="black"/>
<path d="M254.473 606.345V612.535H240.349V619.518H253.544V625.659H240.349V632.641H254.473V638.832H233.654V606.345H254.473Z" fill="black"/>
<path d="M290.177 638.832H283.678V619.171L277.422 638.832H271.655L265.4 619.171V638.832H258.9V606.345H267.306L274.539 628.432L281.772 606.345H290.177V638.832Z" fill="black"/>
<path d="M302.297 606.345V619.518H312.56V606.345H319.304V638.832H312.56V625.708H302.297V638.832H295.553V606.345H302.297Z" fill="black"/>
<path d="M336.736 605.751C339.31 605.751 341.591 606.279 343.578 607.336C345.565 608.359 347.113 609.795 348.221 611.644C349.328 613.493 349.882 615.606 349.882 617.983V627.243C349.882 629.62 349.328 631.733 348.221 633.582C347.113 635.431 345.565 636.867 343.578 637.891C341.591 638.914 339.31 639.426 336.736 639.426C334.227 639.426 331.996 638.931 330.041 637.94C328.086 636.95 326.555 635.58 325.447 633.83C324.372 632.047 323.834 630 323.834 627.689V627.144H330.627V627.689C330.627 629.373 331.165 630.71 332.24 631.7C333.348 632.691 334.846 633.186 336.736 633.186C338.756 633.186 340.32 632.658 341.428 631.601C342.568 630.512 343.138 628.993 343.138 627.045V625.708H333.12V619.617H343.138V618.181C343.138 616.2 342.584 614.681 341.476 613.625C340.401 612.535 338.854 611.991 336.834 611.991C334.846 611.991 333.315 612.469 332.24 613.427C331.165 614.384 330.627 615.738 330.627 617.488V618.032H323.834V617.488C323.834 615.177 324.372 613.13 325.447 611.347C326.522 609.564 328.037 608.194 329.992 607.237C331.947 606.246 334.195 605.751 336.736 605.751Z" fill="black"/>
<path d="M367.244 639.426C364.67 639.426 362.389 638.914 360.402 637.891C358.414 636.867 356.867 635.431 355.759 633.582C354.651 631.733 354.098 629.62 354.098 627.243V617.983C354.098 615.606 354.651 613.493 355.759 611.644C356.867 609.795 358.414 608.359 360.402 607.336C362.389 606.279 364.67 605.751 367.244 605.751C369.785 605.751 372.033 606.263 373.988 607.286C375.943 608.277 377.458 609.696 378.533 611.545C379.608 613.361 380.145 615.457 380.145 617.834V619.221H373.352V617.686C373.352 615.87 372.815 614.483 371.74 613.526C370.665 612.535 369.133 612.04 367.146 612.04C365.126 612.04 363.562 612.585 362.454 613.674C361.379 614.731 360.842 616.266 360.842 618.28V626.946C360.842 628.96 361.379 630.495 362.454 631.552C363.562 632.608 365.126 633.137 367.146 633.137C369.133 633.137 370.665 632.641 371.74 631.651C372.815 630.66 373.352 629.257 373.352 627.442V626.104H380.145V627.342C380.145 629.72 379.608 631.832 378.533 633.681C377.458 635.497 375.943 636.917 373.988 637.94C372.033 638.931 369.785 639.426 367.244 639.426Z" fill="black"/>
<path fill-rule="evenodd" clip-rule="evenodd" d="M776.629 595.087V782.666H775V595.087H776.629Z" fill="black"/>
<path d="M494.665 683.715C495.479 683.715 496.196 683.88 496.815 684.21C497.445 684.529 497.933 684.986 498.281 685.58C498.628 686.174 498.802 686.851 498.802 687.611V690.648C498.802 691.407 498.628 692.084 498.281 692.678C497.933 693.273 497.445 693.735 496.815 694.065C496.196 694.384 495.479 694.544 494.665 694.544H490.934V683.715H494.665ZM494.713 692.777C495.408 692.777 495.946 692.59 496.326 692.216C496.706 691.831 496.896 691.297 496.896 690.615V687.66C496.896 686.978 496.706 686.444 496.326 686.059C495.946 685.674 495.408 685.481 494.713 685.481H492.84V692.777H494.713Z" fill="black"/>
<path d="M502.153 691.11V691.308C502.153 691.847 502.305 692.266 502.609 692.563C502.913 692.86 503.342 693.009 503.896 693.009C504.341 693.009 504.711 692.909 505.004 692.711C505.308 692.513 505.465 692.271 505.476 691.985H507.317C507.263 692.81 506.921 693.476 506.291 693.982C505.672 694.489 504.868 694.742 503.88 694.742C502.805 694.742 501.941 694.439 501.29 693.834C500.638 693.218 500.312 692.398 500.312 691.374V689.492C500.312 688.821 500.459 688.232 500.752 687.726C501.045 687.209 501.458 686.813 501.99 686.538C502.533 686.252 503.152 686.108 503.847 686.108C504.542 686.108 505.15 686.252 505.672 686.538C506.193 686.813 506.595 687.203 506.877 687.71C507.17 688.216 507.317 688.805 507.317 689.476V691.11H502.153ZM503.847 687.842C503.315 687.842 502.897 687.996 502.593 688.304C502.3 688.612 502.153 689.03 502.153 689.558V689.575H505.476V689.558C505.476 689.03 505.33 688.612 505.036 688.304C504.743 687.996 504.347 687.842 503.847 687.842Z" fill="black"/>
<path d="M512.134 694.742C511.08 694.742 510.244 694.5 509.625 694.015C509.006 693.531 508.696 692.871 508.696 692.035V691.853H510.537V692.035C510.537 692.387 510.667 692.645 510.928 692.81C511.189 692.975 511.601 693.058 512.166 693.058C512.655 693.058 513.035 692.992 513.306 692.86C513.578 692.717 513.714 692.519 513.714 692.266V692.134C513.714 691.715 513.366 691.44 512.671 691.308L511.401 691.077C510.586 690.923 509.956 690.648 509.511 690.252C509.076 689.856 508.859 689.355 508.859 688.75V688.568C508.859 687.831 509.163 687.236 509.772 686.785C510.391 686.334 511.2 686.108 512.199 686.108C513.22 686.108 514.023 686.351 514.61 686.835C515.207 687.308 515.506 687.957 515.506 688.783V688.964H513.681V688.783C513.681 688.441 513.556 688.194 513.306 688.04C513.057 687.875 512.666 687.792 512.134 687.792C511.667 687.792 511.303 687.858 511.042 687.99C510.792 688.111 510.667 688.293 510.667 688.535V688.667C510.667 688.854 510.76 689.019 510.944 689.162C511.129 689.294 511.395 689.393 511.743 689.459L513.03 689.707C513.833 689.861 514.452 690.142 514.887 690.549C515.321 690.956 515.538 691.457 515.538 692.051V692.233C515.538 692.992 515.229 693.603 514.61 694.065C513.991 694.516 513.165 694.742 512.134 694.742Z" fill="black"/>
<path d="M519.039 686.307V694.544H517.198V686.307H519.039ZM518.11 685.25C517.752 685.25 517.459 685.135 517.23 684.903C517.002 684.672 516.888 684.381 516.888 684.029C516.888 683.665 517.002 683.374 517.23 683.154C517.459 682.923 517.752 682.807 518.11 682.807C518.469 682.807 518.762 682.923 518.99 683.154C519.218 683.374 519.332 683.665 519.332 684.029C519.332 684.381 519.218 684.672 518.99 684.903C518.762 685.135 518.469 685.25 518.11 685.25Z" fill="black"/>
<path d="M527.711 686.307V694.379C527.711 695.369 527.391 696.145 526.75 696.706C526.12 697.267 525.257 697.548 524.16 697.548C523.096 697.548 522.249 697.284 521.619 696.756C520.989 696.227 520.674 695.518 520.674 694.626V694.527H522.548V694.626C522.548 694.989 522.7 695.287 523.004 695.518C523.308 695.749 523.71 695.864 524.209 695.864C524.72 695.864 525.121 695.732 525.415 695.468C525.719 695.215 525.871 694.868 525.871 694.428V693.421C525.317 693.861 524.633 694.081 523.818 694.081C522.862 694.081 522.102 693.79 521.538 693.207C520.973 692.612 520.69 691.82 520.69 690.83V689.393C520.69 688.392 520.973 687.594 521.538 687C522.102 686.406 522.868 686.108 523.834 686.108C524.703 686.108 525.431 686.362 526.017 686.868L526.082 686.307H527.711ZM524.193 692.365C524.562 692.365 524.893 692.288 525.187 692.134C525.48 691.98 525.708 691.765 525.871 691.49V688.75C525.697 688.464 525.463 688.243 525.17 688.089C524.877 687.935 524.551 687.858 524.193 687.858C523.682 687.858 523.275 688.007 522.971 688.304C522.678 688.59 522.531 688.981 522.531 689.476V690.747C522.531 691.242 522.678 691.638 522.971 691.936C523.275 692.222 523.682 692.365 524.193 692.365Z" fill="black"/>
<path d="M533.483 686.108C534.395 686.108 535.122 686.406 535.665 687C536.219 687.583 536.496 688.364 536.496 689.344V694.544H534.639V689.492C534.639 689.008 534.498 688.618 534.216 688.32C533.933 688.012 533.575 687.858 533.141 687.858C532.771 687.858 532.44 687.941 532.147 688.106C531.854 688.26 531.62 688.48 531.446 688.766V694.544H529.606V686.307H531.251L531.316 686.917C531.881 686.378 532.603 686.108 533.483 686.108Z" fill="black"/>
<path d="M544.86 683.715V688.254H548.737V683.715H550.643V694.544H548.737V690.021H544.86V694.544H542.954V683.715H544.86Z" fill="black"/>
<path d="M554.369 686.307V691.589L557.757 686.307H559.435V694.544H557.643V689.261L554.271 694.544H552.593V686.307H554.369Z" fill="black"/>
<path d="M568.201 694.544H566.36V688.007H563.705L563.624 691.473C563.602 692.519 563.379 693.295 562.956 693.801C562.532 694.296 561.891 694.544 561.033 694.544H560.561V692.843H560.822C561.18 692.843 561.441 692.722 561.604 692.48C561.767 692.238 561.859 691.842 561.881 691.292L561.995 686.307H568.201V694.544Z" fill="black"/>
<path d="M574.23 688.997C575.109 688.997 575.81 689.245 576.331 689.74C576.863 690.224 577.129 690.874 577.129 691.688V691.853C577.129 692.667 576.863 693.322 576.331 693.817C575.81 694.302 575.109 694.544 574.23 694.544H570.092V686.307H571.933V688.997H574.23ZM575.289 691.704C575.289 691.385 575.186 691.138 574.979 690.962C574.784 690.775 574.507 690.681 574.148 690.681H571.933V692.86H574.148C574.518 692.86 574.8 692.772 574.995 692.596C575.191 692.42 575.289 692.167 575.289 691.836V691.704Z" fill="black"/>
<path d="M581.83 694.742C581.124 694.742 580.5 694.604 579.957 694.329C579.425 694.043 579.012 693.647 578.719 693.141C578.425 692.623 578.279 692.029 578.279 691.358V689.492C578.279 688.821 578.425 688.232 578.719 687.726C579.012 687.209 579.425 686.813 579.957 686.538C580.5 686.252 581.124 686.108 581.83 686.108C582.493 686.108 583.084 686.246 583.606 686.521C584.127 686.796 584.534 687.181 584.827 687.677C585.121 688.161 585.267 688.711 585.267 689.327V689.492H583.426V689.327C583.426 688.898 583.274 688.546 582.97 688.271C582.677 687.996 582.297 687.858 581.83 687.858C581.298 687.858 580.88 688.012 580.576 688.32C580.282 688.618 580.136 689.025 580.136 689.542V691.325C580.136 691.842 580.288 692.249 580.592 692.546C580.896 692.843 581.309 692.992 581.83 692.992C582.297 692.992 582.677 692.86 582.97 692.596C583.274 692.332 583.426 691.991 583.426 691.572V691.407H585.267V691.572C585.267 692.53 584.952 693.3 584.322 693.883C583.703 694.456 582.873 694.742 581.83 694.742Z" fill="black"/>
<path d="M589.546 685.465V683.715H597.17V685.465H594.319V694.544H592.413V685.465H589.546Z" fill="black"/>
<path d="M600.187 694.742C599.492 694.742 598.879 694.604 598.347 694.329C597.815 694.043 597.402 693.647 597.109 693.141C596.815 692.623 596.669 692.029 596.669 691.358V689.509C596.669 688.838 596.81 688.243 597.092 687.726C597.386 687.209 597.798 686.813 598.33 686.538C598.863 686.252 599.482 686.108 600.187 686.108C600.893 686.108 601.512 686.252 602.045 686.538C602.588 686.813 603.006 687.209 603.299 687.726C603.592 688.243 603.739 688.838 603.739 689.509V691.358C603.739 692.381 603.413 693.201 602.761 693.817C602.121 694.434 601.263 694.742 600.187 694.742ZM600.204 692.992C600.736 692.992 601.149 692.843 601.442 692.546C601.746 692.238 601.898 691.825 601.898 691.308V689.575C601.898 689.047 601.746 688.629 601.442 688.32C601.149 688.012 600.736 687.858 600.204 687.858C599.682 687.858 599.27 688.012 598.966 688.32C598.662 688.629 598.51 689.047 598.51 689.575V691.308C598.51 691.825 598.662 692.238 598.966 692.546C599.281 692.843 599.693 692.992 600.204 692.992Z" fill="black"/>
<path d="M614.548 686.307V694.544H612.838V688.832L612.626 689.476L610.688 694.544H609.238L607.299 689.476L607.071 688.799V694.544H605.361V686.307H607.788L609.955 691.936L612.105 686.307H614.548Z" fill="black"/>
<path d="M619.724 694.742C619.018 694.742 618.393 694.604 617.85 694.329C617.318 694.043 616.905 693.647 616.612 693.141C616.319 692.623 616.172 692.029 616.172 691.358V689.492C616.172 688.821 616.319 688.232 616.612 687.726C616.905 687.209 617.318 686.813 617.85 686.538C618.393 686.252 619.018 686.108 619.724 686.108C620.386 686.108 620.978 686.246 621.499 686.521C622.02 686.796 622.428 687.181 622.721 687.677C623.014 688.161 623.161 688.711 623.161 689.327V689.492H621.32V689.327C621.32 688.898 621.168 688.546 620.864 688.271C620.571 687.996 620.191 687.858 619.724 687.858C619.191 687.858 618.773 688.012 618.469 688.32C618.176 688.618 618.029 689.025 618.029 689.542V691.325C618.029 691.842 618.181 692.249 618.486 692.546C618.79 692.843 619.202 692.992 619.724 692.992C620.191 692.992 620.571 692.86 620.864 692.596C621.168 692.332 621.32 691.991 621.32 691.572V691.407H623.161V691.572C623.161 692.53 622.846 693.3 622.216 693.883C621.597 694.456 620.766 694.742 619.724 694.742Z" fill="black"/>
<path d="M626.317 691.11V691.308C626.317 691.847 626.469 692.266 626.773 692.563C627.077 692.86 627.506 693.009 628.06 693.009C628.506 693.009 628.875 692.909 629.168 692.711C629.472 692.513 629.63 692.271 629.64 691.985H631.481C631.427 692.81 631.085 693.476 630.455 693.982C629.836 694.489 629.032 694.742 628.044 694.742C626.969 694.742 626.105 694.439 625.454 693.834C624.802 693.218 624.476 692.398 624.476 691.374V689.492C624.476 688.821 624.623 688.232 624.916 687.726C625.21 687.209 625.622 686.813 626.154 686.538C626.697 686.252 627.316 686.108 628.011 686.108C628.706 686.108 629.315 686.252 629.836 686.538C630.357 686.813 630.759 687.203 631.041 687.71C631.335 688.216 631.481 688.805 631.481 689.476V691.11H626.317ZM628.011 687.842C627.479 687.842 627.061 687.996 626.757 688.304C626.464 688.612 626.317 689.03 626.317 689.558V689.575H629.64V689.558C629.64 689.03 629.494 688.612 629.201 688.304C628.907 687.996 628.511 687.842 628.011 687.842Z" fill="black"/>
<path d="M634.946 686.323V689.558H638.187V686.323H640.044V694.544H638.187V691.259H634.946V694.544H633.105V686.323H634.946Z" fill="black"/>
<path d="M677.26 741.177H764.412V774.604H677.26V741.177Z" fill="black"/>
<path d="M764.412 758.022C764.412 766.453 745.261 773.288 721.638 773.288C698.014 773.288 678.864 766.453 678.864 758.022C678.864 749.591 698.014 742.756 721.638 742.756C745.261 742.756 764.412 749.591 764.412 758.022Z" fill="#EAE4DF"/>
<path d="M687.953 755.969V753.284H694.606V755.969H692.565V764.154H689.995V755.969H687.953Z" fill="#040405"/>
<path d="M701.443 755.77V756.167L698.93 764.834C698.711 765.563 698.397 766.098 697.988 766.441C697.578 766.794 697.031 766.971 696.346 766.971H694.576V764.37H695.989C696.189 764.37 696.336 764.309 696.432 764.187L693.819 756.167V755.77H696.46L697.674 760.542L698.801 755.77H701.443Z" fill="#040405"/>
<path d="M706.028 755.554C706.542 755.554 706.999 755.687 707.398 755.952C707.808 756.217 708.126 756.598 708.355 757.095C708.583 757.592 708.698 758.178 708.698 758.852V761.056C708.698 761.729 708.583 762.32 708.355 762.829C708.126 763.326 707.808 763.707 707.398 763.972C706.999 764.237 706.542 764.37 706.028 764.37C705.447 764.37 704.919 764.215 704.443 763.906V766.971H701.973V755.77H704.158L704.229 756.267C704.467 756.035 704.743 755.858 705.057 755.737C705.371 755.615 705.695 755.554 706.028 755.554ZM706.199 759.299C706.199 758.592 705.909 758.239 705.328 758.239C704.986 758.239 704.691 758.366 704.443 758.62V761.304C704.691 761.558 704.986 761.685 705.328 761.685C705.909 761.685 706.199 761.315 706.199 760.575V759.299Z" fill="#040405"/>
<path d="M711.813 760.691V760.923C711.813 761.243 711.894 761.497 712.056 761.685C712.218 761.862 712.432 761.95 712.699 761.95C712.936 761.95 713.127 761.901 713.27 761.801C713.412 761.691 713.508 761.542 713.555 761.354H716.039C715.973 762.326 715.644 763.072 715.054 763.591C714.474 764.11 713.688 764.37 712.699 764.37C711.68 764.37 710.866 764.049 710.257 763.409C709.658 762.757 709.358 761.884 709.358 760.79V759.133C709.358 758.415 709.496 757.786 709.772 757.245C710.048 756.703 710.438 756.289 710.943 756.002C711.447 755.704 712.032 755.554 712.699 755.554C713.726 755.554 714.54 755.875 715.14 756.515C715.739 757.156 716.039 758.023 716.039 759.117V760.691H711.813ZM712.699 757.957C712.432 757.957 712.218 758.045 712.056 758.222C711.894 758.399 711.813 758.653 711.813 758.984H713.584C713.584 758.653 713.503 758.399 713.341 758.222C713.179 758.045 712.965 757.957 712.699 757.957Z" fill="#040405"/>
<path d="M724.072 764.154V758.686L722.744 764.154H720.674L719.361 758.752V764.154H716.934V753.284H720.075L721.702 759.631L723.344 753.284H726.485L726.499 764.154H724.072Z" fill="#040405"/>
<path d="M734.665 761.569V764.154H733.495C732.876 764.154 732.376 763.944 731.996 763.525C731.463 764.088 730.73 764.37 729.797 764.37C729.055 764.37 728.464 764.143 728.027 763.69C727.589 763.226 727.37 762.608 727.37 761.834C727.37 761.161 727.56 760.619 727.941 760.211C728.331 759.791 728.893 759.52 729.626 759.399L731.453 759.1V758.951C731.434 758.366 731.182 758.073 730.696 758.073C730.192 758.073 729.94 758.316 729.94 758.802V758.918H727.498V758.802C727.498 757.797 727.784 757.007 728.355 756.433C728.936 755.847 729.721 755.554 730.711 755.554C731.739 755.554 732.524 755.858 733.066 756.466C733.618 757.062 733.894 757.929 733.894 759.067V761.205C733.894 761.448 734.004 761.569 734.223 761.569H734.665ZM730.325 762.215C730.554 762.215 730.768 762.166 730.968 762.066C731.167 761.956 731.329 761.818 731.453 761.652V760.923L730.282 761.155C729.94 761.221 729.768 761.409 729.768 761.718C729.768 761.873 729.816 761.995 729.911 762.083C730.006 762.171 730.144 762.215 730.325 762.215Z" fill="#040405"/>
<path d="M738.104 758.355V760.923C738.104 761.133 738.147 761.293 738.233 761.404C738.328 761.514 738.461 761.569 738.632 761.569H739.575V764.154H738.261C737.395 764.154 736.738 763.911 736.291 763.425C735.853 762.939 735.634 762.238 735.634 761.321V758.355H734.221V755.77H735.12C735.33 755.77 735.482 755.72 735.577 755.621C735.672 755.51 735.72 755.333 735.72 755.09V753.566H738.104V755.77H739.946V758.355H738.104Z" fill="#040405"/>
<path d="M742.555 760.691V760.923C742.555 761.243 742.636 761.497 742.798 761.685C742.96 761.862 743.174 761.95 743.44 761.95C743.678 761.95 743.868 761.901 744.011 761.801C744.154 761.691 744.249 761.542 744.297 761.354H746.781C746.714 762.326 746.386 763.072 745.796 763.591C745.215 764.11 744.43 764.37 743.44 764.37C742.422 764.37 741.608 764.049 740.999 763.409C740.399 762.757 740.1 761.884 740.1 760.79V759.133C740.1 758.415 740.238 757.786 740.514 757.245C740.79 756.703 741.18 756.289 741.684 756.002C742.189 755.704 742.774 755.554 743.44 755.554C744.468 755.554 745.282 755.875 745.881 756.515C746.481 757.156 746.781 758.023 746.781 759.117V760.691H742.555ZM743.44 757.957C743.174 757.957 742.96 758.045 742.798 758.222C742.636 758.399 742.555 758.653 742.555 758.984H744.325C744.325 758.653 744.244 758.399 744.083 758.222C743.921 758.045 743.707 757.957 743.44 757.957Z" fill="#040405"/>
<path d="M750.759 764.37C749.712 764.37 748.899 764.11 748.318 763.591C747.747 763.061 747.461 762.32 747.461 761.37V761.188H749.774V761.37C749.774 761.624 749.85 761.812 750.003 761.934C750.155 762.044 750.398 762.099 750.731 762.099C751.283 762.099 751.559 761.945 751.559 761.636V761.586C751.559 761.453 751.516 761.354 751.43 761.288C751.345 761.21 751.188 761.149 750.959 761.105L749.817 760.873C749.122 760.73 748.565 760.443 748.147 760.012C747.737 759.57 747.533 759.045 747.533 758.438V758.322C747.533 757.769 747.666 757.289 747.933 756.88C748.209 756.46 748.594 756.134 749.089 755.902C749.584 755.67 750.155 755.554 750.802 755.554C751.811 755.554 752.591 755.808 753.143 756.317C753.695 756.825 753.971 757.543 753.971 758.471V758.653H751.659V758.471C751.659 758.018 751.326 757.791 750.659 757.791C750.412 757.791 750.217 757.83 750.074 757.907C749.941 757.974 749.874 758.073 749.874 758.206V758.255C749.874 758.377 749.912 758.471 749.988 758.537C750.065 758.592 750.198 758.642 750.388 758.686L751.716 758.984C752.468 759.15 753.034 759.443 753.415 759.863C753.795 760.271 753.986 760.802 753.986 761.453V761.569C753.986 762.42 753.691 763.099 753.101 763.607C752.52 764.115 751.74 764.37 750.759 764.37Z" fill="#040405"/>
<path d="M756.933 752.231C757.512 752.231 758.021 752.346 758.462 752.575C758.912 752.804 759.256 753.126 759.495 753.54C759.743 753.955 759.867 754.435 759.867 754.981V755.272C759.867 755.819 759.743 756.299 759.495 756.713C759.256 757.127 758.917 757.449 758.476 757.678C758.035 757.907 757.526 758.022 756.947 758.022C756.369 758.022 755.854 757.907 755.404 757.678C754.954 757.44 754.606 757.114 754.358 756.7C754.11 756.286 753.986 755.81 753.986 755.272V754.981C753.986 754.444 754.11 753.968 754.358 753.553C754.606 753.139 754.95 752.818 755.391 752.588C755.841 752.35 756.355 752.231 756.933 752.231ZM758.834 754.968C758.834 754.369 758.673 753.915 758.352 753.606C758.031 753.298 757.558 753.144 756.933 753.144C756.327 753.144 755.854 753.302 755.515 753.62C755.184 753.937 755.019 754.386 755.019 754.968V755.272C755.019 755.854 755.184 756.308 755.515 756.634C755.854 756.951 756.327 757.11 756.933 757.11C757.539 757.11 758.008 756.951 758.338 756.634C758.669 756.308 758.834 755.854 758.834 755.272V754.968ZM758.283 754.743C758.283 755.096 758.132 755.356 757.829 755.523L758.338 756.369V756.449H757.374L756.933 755.682H756.617V756.449H755.707V753.778H757.126C757.475 753.778 757.755 753.862 757.966 754.029C758.178 754.197 758.283 754.422 758.283 754.704V754.743ZM756.617 755.008H757.099C757.2 755.008 757.278 754.986 757.333 754.942C757.397 754.898 757.429 754.836 757.429 754.757V754.717C757.429 754.638 757.397 754.576 757.333 754.532C757.278 754.488 757.2 754.466 757.099 754.466H756.617V755.008Z" fill="black"/>
<path d="M489.924 638.831V673.083H491.61H493.295V638.831V604.578H491.61H489.924V638.831Z" fill="black"/>
<path d="M495.703 638.832V673.084H496.425H497.147V638.832V604.579H496.425H495.703V638.832Z" fill="black"/>
<path d="M501.241 638.832V673.084H501.963H502.685V638.832V604.579H501.963H501.241V638.832Z" fill="black"/>
<path d="M510.872 638.832V673.084H514.363H517.854V638.832V604.579H514.363H510.872V638.832Z" fill="black"/>
<path d="M520.262 638.832V673.084H520.985H521.707V638.832V604.579H520.985H520.262V638.832Z" fill="black"/>
<path d="M524.115 638.832V673.084H526.763H529.412V638.832V604.579H526.763H524.115V638.832Z" fill="black"/>
<path d="M531.819 638.832V673.084H534.348H536.876V638.832V604.579H534.348H531.819V638.832Z" fill="black"/>
<path d="M539.284 638.832V673.084H540.006H540.728V638.832V604.579H540.006H539.284V638.832Z" fill="black"/>
<path d="M546.748 638.832V673.084H548.433H550.119V638.832V604.579H548.433H546.748V638.832Z" fill="black"/>
<path d="M552.526 638.832V673.084H553.249H553.971V638.832V604.579H553.249H552.526V638.832Z" fill="black"/>
<path d="M561.917 638.832V673.084H563.602H565.288V638.832V604.579H563.602H561.917V638.832Z" fill="black"/>
<path d="M567.696 638.832V673.084H568.418H569.14V638.832V604.579H568.418H567.696V638.832Z" fill="black"/>
<path d="M573.474 638.832V673.084H575.039H576.604V638.832V604.579H575.039H573.474V638.832Z" fill="black"/>
<path d="M584.791 638.832V673.084H585.513H586.235V638.832V604.579H585.513H584.791V638.832Z" fill="black"/>
<path d="M590.57 638.832V673.084H591.292H592.014V638.832V604.579H591.292H590.57V638.832Z" fill="black"/>
<path d="M594.422 638.832V673.084H595.024H595.626V638.832V604.579H595.024H594.422V638.832Z" fill="black"/>
<path d="M603.812 638.832V673.084H605.498H607.183V638.832V604.579H605.498H603.812V638.832Z" fill="black"/>
<path d="M609.35 638.832V673.084H610.073H610.795V638.832V604.579H610.073H609.35V638.832Z" fill="black"/>
<path d="M615.129 638.832V673.084H615.851H616.574V638.832V604.579H615.851H615.129V638.832Z" fill="black"/>
<path d="M618.982 638.832V673.084H619.704H620.426V638.832V604.579H619.704H618.982V638.832Z" fill="black"/>
<path d="M624.519 638.832V673.084H628.131H631.743V638.832V604.579H628.131H624.519V638.832Z" fill="black"/>
<path d="M636.077 638.832V673.084H636.799H637.521V638.832V604.579H636.799H636.077V638.832Z" fill="black"/>
<path d="M639.929 638.832V673.084H641.494H643.059V638.832V604.579H641.494H639.929V638.832Z" fill="black"/>
<path d="M647.393 638.832V673.084H648.116H648.838V638.832V604.579H648.116H647.393V638.832Z" fill="black"/>
<path d="M656.784 638.832V673.084H657.506H658.228V638.832V604.579H657.506H656.784V638.832Z" fill="black"/>
<path d="M666.174 638.832V673.084H666.896H667.619V638.832V604.579H666.896H666.174V638.832Z" fill="black"/>
<path d="M671.953 638.832V673.084H673.638H675.324V638.832V604.579H673.638H671.953V638.832Z" fill="black"/>
<path d="M677.731 638.832V673.084H678.454H679.176V638.832V604.579H678.454H677.731V638.832Z" fill="black"/>
<path d="M687.122 638.832V673.084H688.807H690.493V638.832V604.579H688.807H687.122V638.832Z" fill="black"/>
<path d="M692.901 638.832V673.084H693.623H694.345V638.832V604.579H693.623H692.901V638.832Z" fill="black"/>
<path d="M698.559 638.832V673.084H699.233H699.883V638.832V604.579H699.233H698.559V638.832Z" fill="black"/>
<path d="M704.217 638.832V673.084H704.939H705.662V638.832V604.579H704.939H704.217V638.832Z" fill="black"/>
<path d="M708.07 638.832V673.084H709.755H711.441V638.832V604.579H709.755H708.07V638.832Z" fill="black"/>
<path d="M719.386 638.832V673.084H720.109H720.831V638.832V604.579H720.109H719.386V638.832Z" fill="black"/>
<path d="M723.239 638.832V673.084H726.73H730.221V638.832V604.579H726.73H723.239V638.832Z" fill="black"/>
<path d="M732.629 638.832V673.084H735.278H737.926V638.832V604.579H735.278H732.629V638.832Z" fill="black"/>
<path d="M740.334 638.832V673.084H742.019H743.705V638.832V604.579H742.019H740.334V638.832Z" fill="black"/>
<path d="M749.724 638.832V673.084H752.373H755.022V638.832V604.579H752.373H749.724V638.832Z" fill="black"/>
<path d="M757.188 638.832V673.084H757.911H758.633V638.832V604.579H757.911H757.188V638.832Z" fill="black"/>
<path d="M761.041 638.832V673.084H762.726H764.412V638.832V604.579H762.726H761.041V638.832Z" fill="black"/>
</svg>
