<svg width="157" height="190" viewBox="0 0 157 190" fill="none" xmlns="http://www.w3.org/2000/svg">
<path d="M156.18 165.4V169.2H16.53V165.4L84.36 48.36H88.16L156.18 165.4ZM86.26 86.36L50.35 148.11H121.98L86.26 86.36Z" fill="black"/>
<path d="M89.504 101.016L89.12 129.816H81.056L80.672 101.016H89.504ZM85.088 143.768C83.552 143.768 82.2933 143.299 81.312 142.36C80.3307 141.379 79.84 140.12 79.84 138.584C79.84 137.091 80.3307 135.875 81.312 134.936C82.2933 133.955 83.552 133.464 85.088 133.464C86.624 133.464 87.8827 133.955 88.864 134.936C89.8453 135.875 90.336 137.091 90.336 138.584C90.336 140.12 89.8453 141.379 88.864 142.36C87.8827 143.299 86.624 143.768 85.088 143.768Z" fill="black"/>
</svg>
