<svg width="432" height="95" viewBox="0 0 432 95" fill="none" xmlns="http://www.w3.org/2000/svg">
<rect y="14" width="243" height="81" fill="black"/>
<ellipse cx="123.5" cy="54.5" rx="119.5" ry="37.5" fill="#EAE4DF"/>
<path d="M29.48 49.24V42.76H48.12V49.24H42.4V69H35.2V49.24H29.48ZM67.2741 48.76V49.72L60.2341 70.64C59.6207 72.4 58.7407 73.6933 57.5941 74.52C56.4474 75.3733 54.9141 75.8 52.9941 75.8H48.0341V69.52H51.9941C52.5541 69.52 52.9674 69.3733 53.2341 69.08L45.9141 49.72V48.76H53.3141L56.7141 60.28L59.8741 48.76H67.2741ZM80.1213 48.24C81.5613 48.24 82.8413 48.56 83.9613 49.2C85.1079 49.84 86.0013 50.76 86.6413 51.96C87.2813 53.16 87.6013 54.5733 87.6013 56.2V61.52C87.6013 63.1467 87.2813 64.5733 86.6413 65.8C86.0013 67 85.1079 67.92 83.9613 68.56C82.8413 69.2 81.5613 69.52 80.1213 69.52C78.4946 69.52 77.0146 69.1467 75.6813 68.4V75.8H68.7613V48.76H74.8813L75.0813 49.96C75.7479 49.4 76.5213 48.9733 77.4013 48.68C78.2813 48.3867 79.1879 48.24 80.1213 48.24ZM80.6013 57.28C80.6013 55.5733 79.7879 54.72 78.1613 54.72C77.2013 54.72 76.3746 55.0267 75.6813 55.64V62.12C76.3746 62.7333 77.2013 63.04 78.1613 63.04C79.7879 63.04 80.6013 62.1467 80.6013 60.36V57.28ZM96.3313 60.64V61.2C96.3313 61.9733 96.5579 62.5867 97.0113 63.04C97.4646 63.4667 98.0646 63.68 98.8112 63.68C99.4779 63.68 100.011 63.56 100.411 63.32C100.811 63.0533 101.078 62.6933 101.211 62.24H108.171C107.985 64.5867 107.065 66.3867 105.411 67.64C103.785 68.8933 101.585 69.52 98.8112 69.52C95.9579 69.52 93.6779 68.7467 91.9713 67.2C90.2913 65.6267 89.4513 63.52 89.4513 60.88V56.88C89.4513 55.1467 89.8379 53.6267 90.6113 52.32C91.3846 51.0133 92.4779 50.0133 93.8913 49.32C95.3046 48.6 96.9446 48.24 98.8112 48.24C101.691 48.24 103.971 49.0133 105.651 50.56C107.331 52.1067 108.171 54.2 108.171 56.84V60.64H96.3313ZM98.8112 54.04C98.0646 54.04 97.4646 54.2533 97.0113 54.68C96.5579 55.1067 96.3313 55.72 96.3313 56.52H101.291C101.291 55.72 101.065 55.1067 100.611 54.68C100.158 54.2533 99.5579 54.04 98.8112 54.04ZM130.678 69V55.8L126.958 69H121.158L117.478 55.96V69H110.678V42.76H119.478L124.038 58.08L128.638 42.76H137.438L137.478 69H130.678ZM160.358 62.76V69H157.078C155.345 69 153.945 68.4933 152.878 67.48C151.385 68.84 149.331 69.52 146.718 69.52C144.638 69.52 142.985 68.9733 141.758 67.88C140.531 66.76 139.918 65.2667 139.918 63.4C139.918 61.7733 140.451 60.4667 141.518 59.48C142.611 58.4667 144.185 57.8133 146.238 57.52L151.358 56.8V56.44C151.305 55.0267 150.598 54.32 149.238 54.32C147.825 54.32 147.118 54.9067 147.118 56.08V56.36H140.278V56.08C140.278 53.6533 141.078 51.7467 142.678 50.36C144.305 48.9467 146.505 48.24 149.278 48.24C152.158 48.24 154.358 48.9733 155.878 50.44C157.425 51.88 158.198 53.9733 158.198 56.72V61.88C158.198 62.4667 158.505 62.76 159.118 62.76H160.358ZM148.198 64.32C148.838 64.32 149.438 64.2 149.998 63.96C150.558 63.6933 151.011 63.36 151.358 62.96V61.2L148.078 61.76C147.118 61.92 146.638 62.3733 146.638 63.12C146.638 63.4933 146.771 63.7867 147.038 64C147.305 64.2133 147.691 64.32 148.198 64.32ZM169.993 55V61.2C169.993 61.7067 170.113 62.0933 170.353 62.36C170.62 62.6267 170.993 62.76 171.473 62.76H174.113V69H170.433C168.007 69 166.167 68.4133 164.913 67.24C163.687 66.0667 163.073 64.3733 163.073 62.16V55H159.113V48.76H161.633C162.22 48.76 162.647 48.64 162.913 48.4C163.18 48.1333 163.313 47.7067 163.313 47.12V43.44H169.993V48.76H175.153V55H169.993ZM182.464 60.64V61.2C182.464 61.9733 182.691 62.5867 183.144 63.04C183.597 63.4667 184.197 63.68 184.944 63.68C185.611 63.68 186.144 63.56 186.544 63.32C186.944 63.0533 187.211 62.6933 187.344 62.24H194.304C194.117 64.5867 193.197 66.3867 191.544 67.64C189.917 68.8933 187.717 69.52 184.944 69.52C182.091 69.52 179.811 68.7467 178.104 67.2C176.424 65.6267 175.584 63.52 175.584 60.88V56.88C175.584 55.1467 175.971 53.6267 176.744 52.32C177.517 51.0133 178.611 50.0133 180.024 49.32C181.437 48.6 183.077 48.24 184.944 48.24C187.824 48.24 190.104 49.0133 191.784 50.56C193.464 52.1067 194.304 54.2 194.304 56.84V60.64H182.464ZM184.944 54.04C184.197 54.04 183.597 54.2533 183.144 54.68C182.691 55.1067 182.464 55.72 182.464 56.52H187.424C187.424 55.72 187.197 55.1067 186.744 54.68C186.291 54.2533 185.691 54.04 184.944 54.04ZM205.451 69.52C202.518 69.52 200.238 68.8933 198.611 67.64C197.011 66.36 196.211 64.5733 196.211 62.28V61.84H202.691V62.28C202.691 62.8933 202.904 63.3467 203.331 63.64C203.758 63.9067 204.438 64.04 205.371 64.04C206.918 64.04 207.691 63.6667 207.691 62.92V62.8C207.691 62.48 207.571 62.24 207.331 62.08C207.091 61.8933 206.651 61.7467 206.011 61.64L202.811 61.08C200.864 60.7333 199.304 60.04 198.131 59C196.984 57.9333 196.411 56.6667 196.411 55.2V54.92C196.411 53.5867 196.784 52.4267 197.531 51.44C198.304 50.4267 199.384 49.64 200.771 49.08C202.158 48.52 203.758 48.24 205.571 48.24C208.398 48.24 210.584 48.8533 212.131 50.08C213.678 51.3067 214.451 53.04 214.451 55.28V55.72H207.971V55.28C207.971 54.1867 207.038 53.64 205.171 53.64C204.478 53.64 203.931 53.7333 203.531 53.92C203.158 54.08 202.971 54.32 202.971 54.64V54.76C202.971 55.0533 203.078 55.28 203.291 55.44C203.504 55.5733 203.878 55.6933 204.411 55.8L208.131 56.52C210.238 56.92 211.824 57.6267 212.891 58.64C213.958 59.6267 214.491 60.9067 214.491 62.48V62.76C214.491 64.8133 213.664 66.4533 212.011 67.68C210.384 68.9067 208.198 69.52 205.451 69.52Z" fill="#040405"/>
<path d="M253 7.68C254.68 7.68 256.16 8.02667 257.44 8.72C258.747 9.41333 259.747 10.3867 260.44 11.64C261.16 12.8933 261.52 14.3467 261.52 16V16.88C261.52 18.5333 261.16 19.9867 260.44 21.24C259.747 22.4933 258.76 23.4667 257.48 24.16C256.2 24.8533 254.72 25.2 253.04 25.2C251.36 25.2 249.867 24.8533 248.56 24.16C247.253 23.44 246.24 22.4533 245.52 21.2C244.8 19.9467 244.44 18.5067 244.44 16.88V16C244.44 14.3733 244.8 12.9333 245.52 11.68C246.24 10.4267 247.24 9.45333 248.52 8.76C249.827 8.04 251.32 7.68 253 7.68ZM258.52 15.96C258.52 14.1467 258.053 12.7733 257.12 11.84C256.187 10.9067 254.813 10.44 253 10.44C251.24 10.44 249.867 10.92 248.88 11.88C247.92 12.84 247.44 14.2 247.44 15.96V16.88C247.44 18.64 247.92 20.0133 248.88 21C249.867 21.96 251.24 22.44 253 22.44C254.76 22.44 256.12 21.96 257.08 21C258.04 20.0133 258.52 18.64 258.52 16.88V15.96ZM256.92 15.28C256.92 16.3467 256.48 17.1333 255.6 17.64L257.08 20.2V20.44H254.28L253 18.12H252.08V20.44H249.44V12.36H253.56C254.573 12.36 255.387 12.6133 256 13.12C256.613 13.6267 256.92 14.3067 256.92 15.16V15.28ZM252.08 16.08H253.48C253.773 16.08 254 16.0133 254.16 15.88C254.347 15.7467 254.44 15.56 254.44 15.32V15.2C254.44 14.96 254.347 14.7733 254.16 14.64C254 14.5067 253.773 14.44 253.48 14.44H252.08V16.08Z" fill="black"/>
</svg>
