<svg width="1118" height="1595" viewBox="0 0 1118 1595" fill="none" xmlns="http://www.w3.org/2000/svg">
<g filter="url(#filter0_d_411:177)">
<rect x="344.5" y="3.5" width="373" height="99" fill="#EAE4DF" stroke="black" stroke-width="5"/>
<rect x="6.5" y="341.5" width="1105" height="1243" fill="#EAE4DF" stroke="black" stroke-width="5"/>
<path d="M283 344L255.397 302L227.794 344L200.222 302L172.619 344L145.048 302L117.445 344L89.8409 302L62.238 344L34.635 302L7 344" fill="#EAE4DF"/>
<path d="M283 344L255.397 302L227.794 344L200.222 302L172.619 344L145.048 302L117.445 344L89.8409 302L62.238 344L34.635 302L7 344" stroke="black" stroke-width="4" stroke-miterlimit="10" stroke-linecap="round"/>
<path d="M1111 344L1083.4 302L1055.79 344L1028.22 302L1000.62 344L973.048 302L945.445 344L917.841 302L890.238 344L862.635 302L835 344" fill="#EAE4DF"/>
<path d="M1111 344L1083.4 302L1055.79 344L1028.22 302L1000.62 344L973.048 302L945.445 344L917.841 302L890.238 344L862.635 302L835 344" stroke="black" stroke-width="4" stroke-miterlimit="10" stroke-linecap="round"/>
<path d="M835 344L807.397 302L779.794 344L752.222 302L724.619 344L697.048 302L669.445 344L641.841 302L614.238 344L586.635 302L559 344" fill="#EAE4DF"/>
<path d="M835 344L807.397 302L779.794 344L752.222 302L724.619 344L697.048 302L669.445 344L641.841 302L614.238 344L586.635 302L559 344" stroke="black" stroke-width="4" stroke-miterlimit="10" stroke-linecap="round"/>
<path d="M559 344L531.397 302L503.794 344L476.222 302L448.619 344L421.048 302L393.445 344L365.841 302L338.238 344L310.635 302L283 344" fill="#EAE4DF"/>
<path d="M559 344L531.397 302L503.794 344L476.222 302L448.619 344L421.048 302L393.445 344L365.841 302L338.238 344L310.635 302L283 344" stroke="black" stroke-width="4" stroke-miterlimit="10" stroke-linecap="round"/>
<path d="M227 653.5V396.5V123.5L339 8V396.5V653.5H227Z" fill="#EAE4DF" stroke="black" stroke-width="6"/>
<path d="M835 654V396.801V123.589L723 8V396.801V654H835Z" fill="#EAE4DF" stroke="black" stroke-width="6"/>
<path d="M204 963H904V1253H204V963Z" fill="black"/>
<path d="M904 1107.5C904 1181.23 749.762 1241 559.5 1241C369.238 1241 215 1181.23 215 1107.5C215 1033.77 369.238 974 559.5 974C749.762 974 904 1033.77 904 1107.5Z" fill="#EAE4DF"/>
<path d="M288 1088.34V1065H341.801V1088.34H325.291V1159.51H304.51V1088.34H288Z" fill="#040405"/>
<path d="M397.086 1086.61V1090.07L376.766 1165.42C374.996 1171.75 372.456 1176.41 369.146 1179.39C365.836 1182.46 361.411 1184 355.869 1184H341.553V1161.38H352.983C354.599 1161.38 355.792 1160.85 356.562 1159.8L335.434 1090.07V1086.61H356.793L366.606 1128.1L375.727 1086.61H397.086Z" fill="#040405"/>
<path d="M434.167 1084.74C438.323 1084.74 442.017 1085.89 445.25 1088.19C448.56 1090.5 451.138 1093.81 452.985 1098.14C454.833 1102.46 455.756 1107.55 455.756 1113.41V1132.57C455.756 1138.43 454.833 1143.56 452.985 1147.98C451.138 1152.31 448.56 1155.62 445.25 1157.92C442.017 1160.23 438.323 1161.38 434.167 1161.38C429.472 1161.38 425.2 1160.04 421.351 1157.35V1184H401.378V1086.61H419.042L419.62 1090.93C421.544 1088.92 423.776 1087.38 426.316 1086.32C428.856 1085.27 431.473 1084.74 434.167 1084.74ZM435.552 1117.3C435.552 1111.15 433.205 1108.08 428.509 1108.08C425.739 1108.08 423.353 1109.18 421.351 1111.39V1134.73C423.353 1136.94 425.739 1138.04 428.509 1138.04C433.205 1138.04 435.552 1134.82 435.552 1128.39V1117.3Z" fill="#040405"/>
<path d="M480.954 1129.4V1131.42C480.954 1134.2 481.608 1136.41 482.917 1138.04C484.225 1139.58 485.957 1140.35 488.112 1140.35C490.036 1140.35 491.575 1139.92 492.73 1139.05C493.884 1138.09 494.654 1136.79 495.039 1135.16H515.128C514.589 1143.61 511.934 1150.1 507.162 1154.61C502.466 1159.12 496.117 1161.38 488.112 1161.38C479.876 1161.38 473.295 1158.6 468.369 1153.03C463.52 1147.36 461.096 1139.77 461.096 1130.26V1115.86C461.096 1109.61 462.212 1104.14 464.444 1099.43C466.676 1094.73 469.832 1091.12 473.911 1088.63C477.991 1086.03 482.724 1084.74 488.112 1084.74C496.424 1084.74 503.005 1087.52 507.854 1093.09C512.703 1098.66 515.128 1106.2 515.128 1115.71V1129.4H480.954ZM488.112 1105.63C485.957 1105.63 484.225 1106.4 482.917 1107.93C481.608 1109.47 480.954 1111.68 480.954 1114.56H495.27C495.27 1111.68 494.616 1109.47 493.307 1107.93C491.999 1106.4 490.267 1105.63 488.112 1105.63Z" fill="#040405"/>
<path d="M580.09 1159.51V1111.97L569.353 1159.51H552.612L541.99 1112.54V1159.51H522.363V1065H547.763L560.925 1120.18L574.202 1065H599.601L599.717 1159.51H580.09Z" fill="#040405"/>
<path d="M665.756 1137.03V1159.51H656.288C651.286 1159.51 647.245 1157.68 644.166 1154.03C639.856 1158.93 633.929 1161.38 626.386 1161.38C620.383 1161.38 615.611 1159.41 612.07 1155.47C608.53 1151.44 606.759 1146.06 606.759 1139.34C606.759 1133.48 608.299 1128.77 611.377 1125.22C614.533 1121.57 619.074 1119.22 625.001 1118.16L639.779 1115.57V1114.27C639.625 1109.18 637.585 1106.64 633.66 1106.64C629.58 1106.64 627.541 1108.75 627.541 1112.97V1113.98H607.798V1112.97C607.798 1104.23 610.107 1097.37 614.726 1092.37C619.421 1087.28 625.771 1084.74 633.775 1084.74C642.088 1084.74 648.438 1087.38 652.825 1092.66C657.289 1097.85 659.521 1105.39 659.521 1115.28V1133.86C659.521 1135.98 660.406 1137.03 662.177 1137.03H665.756ZM630.658 1142.65C632.505 1142.65 634.237 1142.22 635.853 1141.36C637.47 1140.4 638.778 1139.19 639.779 1137.75V1131.42L630.312 1133.43C627.541 1134.01 626.155 1135.64 626.155 1138.33C626.155 1139.68 626.54 1140.73 627.31 1141.5C628.08 1142.27 629.196 1142.65 630.658 1142.65Z" fill="#040405"/>
<path d="M693.566 1109.08V1131.42C693.566 1133.24 693.913 1134.63 694.605 1135.59C695.375 1136.55 696.452 1137.03 697.838 1137.03H705.458V1159.51H694.836C687.832 1159.51 682.521 1157.4 678.904 1153.17C675.363 1148.94 673.593 1142.84 673.593 1134.87V1109.08H662.163V1086.61H669.437C671.13 1086.61 672.361 1086.18 673.131 1085.31C673.901 1084.35 674.286 1082.82 674.286 1080.7V1067.45H693.566V1086.61H708.46V1109.08H693.566Z" fill="#040405"/>
<path d="M729.56 1129.4V1131.42C729.56 1134.2 730.215 1136.41 731.523 1138.04C732.831 1139.58 734.563 1140.35 736.718 1140.35C738.643 1140.35 740.182 1139.92 741.337 1139.05C742.491 1138.09 743.261 1136.79 743.646 1135.16H763.734C763.196 1143.61 760.54 1150.1 755.768 1154.61C751.073 1159.12 744.723 1161.38 736.718 1161.38C728.483 1161.38 721.902 1158.6 716.976 1153.03C712.127 1147.36 709.702 1139.77 709.702 1130.26V1115.86C709.702 1109.61 710.819 1104.14 713.051 1099.43C715.283 1094.73 718.438 1091.12 722.518 1088.63C726.597 1086.03 731.331 1084.74 736.718 1084.74C745.031 1084.74 751.612 1087.52 756.461 1093.09C761.31 1098.66 763.734 1106.2 763.734 1115.71V1129.4H729.56ZM736.718 1105.63C734.563 1105.63 732.831 1106.4 731.523 1107.93C730.215 1109.47 729.56 1111.68 729.56 1114.56H743.876C743.876 1111.68 743.222 1109.47 741.914 1107.93C740.605 1106.4 738.874 1105.63 736.718 1105.63Z" fill="#040405"/>
<path d="M795.908 1161.38C787.441 1161.38 780.86 1159.12 776.165 1154.61C771.547 1150 769.238 1143.56 769.238 1135.31V1133.72H787.941V1135.31C787.941 1137.51 788.557 1139.15 789.789 1140.2C791.02 1141.16 792.983 1141.64 795.677 1141.64C800.141 1141.64 802.373 1140.3 802.373 1137.61V1137.18C802.373 1136.03 802.027 1135.16 801.334 1134.58C800.641 1133.91 799.371 1133.38 797.524 1133L788.288 1130.98C782.669 1129.73 778.166 1127.24 774.78 1123.49C771.47 1119.65 769.815 1115.09 769.815 1109.81V1108.8C769.815 1103.99 770.893 1099.82 773.048 1096.26C775.28 1092.61 778.397 1089.78 782.4 1087.76C786.402 1085.75 791.02 1084.74 796.254 1084.74C804.413 1084.74 810.724 1086.95 815.188 1091.36C819.652 1095.78 821.885 1102.03 821.885 1110.09V1111.68H803.181V1110.09C803.181 1106.16 800.487 1104.19 795.1 1104.19C793.098 1104.19 791.521 1104.52 790.366 1105.19C789.288 1105.77 788.75 1106.64 788.75 1107.79V1108.22C788.75 1109.28 789.058 1110.09 789.673 1110.67C790.289 1111.15 791.367 1111.58 792.906 1111.97L803.643 1114.56C809.724 1116 814.303 1118.55 817.382 1122.19C820.461 1125.75 822 1130.36 822 1136.03V1137.03C822 1144.43 819.614 1150.34 814.842 1154.75C810.147 1159.17 803.835 1161.38 795.908 1161.38Z" fill="#040405"/>
<path d="M827.543 1044C831.183 1044 834.389 1044.69 837.162 1046.08C839.992 1047.46 842.158 1049.41 843.66 1051.91C845.22 1054.41 846 1057.32 846 1060.62V1062.38C846 1065.68 845.22 1068.59 843.66 1071.09C842.158 1073.59 840.021 1075.54 837.248 1076.92C834.475 1078.31 831.269 1079 827.63 1079C823.991 1079 820.756 1078.31 817.925 1076.92C815.094 1075.48 812.899 1073.51 811.34 1071.01C809.78 1068.51 809 1065.63 809 1062.38V1060.62C809 1057.37 809.78 1054.49 811.34 1051.99C812.899 1049.49 815.066 1047.54 817.838 1046.16C820.669 1044.72 823.904 1044 827.543 1044ZM839.501 1060.54C839.501 1056.92 838.49 1054.18 836.468 1052.31C834.447 1050.45 831.472 1049.51 827.543 1049.51C823.731 1049.51 820.756 1050.47 818.618 1052.39C816.539 1054.31 815.499 1057.03 815.499 1060.54V1062.38C815.499 1065.89 816.539 1068.64 818.618 1070.61C820.756 1072.53 823.731 1073.49 827.543 1073.49C831.356 1073.49 834.302 1072.53 836.382 1070.61C838.461 1068.64 839.501 1065.89 839.501 1062.38V1060.54ZM836.035 1059.18C836.035 1061.31 835.082 1062.89 833.176 1063.9L836.382 1069.01V1069.49H830.316L827.543 1064.86H825.55V1069.49H819.831V1053.35H828.756C830.952 1053.35 832.714 1053.86 834.042 1054.87C835.371 1055.88 836.035 1057.24 836.035 1058.94V1059.18ZM825.55 1060.78H828.583C829.219 1060.78 829.71 1060.65 830.056 1060.38C830.461 1060.11 830.663 1059.74 830.663 1059.26V1059.02C830.663 1058.54 830.461 1058.17 830.056 1057.9C829.71 1057.64 829.219 1057.5 828.583 1057.5H825.55V1060.78Z" fill="black"/>
<path d="M419.44 1443.36V1440.76H438.16V1443.36H430.24V1467H427.36V1443.36H419.44ZM459.209 1441.24L450.769 1455.76V1467H447.889V1455.76L439.449 1441.24V1440.76H442.449L449.329 1452.8L456.249 1440.76H459.209V1441.24ZM473.415 1440.76C475.868 1440.76 477.801 1441.4 479.215 1442.68C480.628 1443.96 481.335 1445.71 481.335 1447.92V1448.48C481.335 1450.69 480.628 1452.44 479.215 1453.72C477.801 1455 475.868 1455.64 473.415 1455.64H466.055V1467H463.175V1440.76H473.415ZM473.375 1453.04C475.028 1453.04 476.281 1452.65 477.135 1451.88C478.015 1451.11 478.455 1449.97 478.455 1448.48V1447.92C478.455 1446.45 478.015 1445.33 477.135 1444.56C476.281 1443.79 475.028 1443.4 473.375 1443.4H466.055V1453.04H473.375ZM501.903 1440.76V1443.4H489.023V1452.56H501.263V1455.2H489.023V1464.36H501.903V1467H486.143V1440.76H501.903ZM530.568 1467H527.728V1446.2L520.008 1467H517.368L509.648 1446.12V1467H506.808V1440.76H510.448L518.688 1462.68L526.928 1440.76H530.568V1467ZM555.648 1466.52V1467H552.808L550.608 1460.24H540.008L537.808 1467H534.968V1466.52L543.648 1440.76H546.968L555.648 1466.52ZM549.728 1457.6L545.288 1444.08L540.888 1457.6H549.728ZM554.674 1443.36V1440.76H573.394V1443.36H565.474V1467H562.594V1443.36H554.674ZM592.724 1440.76V1443.4H579.844V1452.56H592.084V1455.2H579.844V1464.36H592.724V1467H576.964V1440.76H592.724ZM605.588 1467.44C602.734 1467.44 600.534 1466.77 598.988 1465.44C597.468 1464.11 596.708 1462.19 596.708 1459.68V1458.8H599.468V1459.68C599.468 1461.39 599.988 1462.68 601.028 1463.56C602.094 1464.44 603.614 1464.88 605.588 1464.88C607.454 1464.88 608.921 1464.48 609.988 1463.68C611.054 1462.85 611.588 1461.72 611.588 1460.28V1459.88C611.588 1458.65 611.214 1457.68 610.468 1456.96C609.748 1456.21 608.548 1455.63 606.868 1455.2L603.508 1454.32C599.294 1453.2 597.188 1451.01 597.188 1447.76V1447.28C597.188 1445.17 597.961 1443.49 599.508 1442.24C601.081 1440.96 603.161 1440.32 605.748 1440.32C608.414 1440.32 610.481 1440.96 611.948 1442.24C613.414 1443.52 614.148 1445.35 614.148 1447.72V1448.6H611.428V1447.72C611.428 1444.47 609.508 1442.84 605.668 1442.84C603.934 1442.84 602.561 1443.23 601.548 1444C600.534 1444.77 600.028 1445.83 600.028 1447.16V1447.56C600.028 1449.64 601.494 1451.08 604.428 1451.88L607.748 1452.8C610.094 1453.44 611.788 1454.31 612.828 1455.4C613.894 1456.47 614.428 1457.89 614.428 1459.68V1460.16C614.428 1462.37 613.628 1464.15 612.028 1465.48C610.428 1466.79 608.281 1467.44 605.588 1467.44ZM621.289 1467.44C620.729 1467.44 620.262 1467.27 619.889 1466.92C619.542 1466.55 619.369 1466.08 619.369 1465.52C619.369 1464.96 619.542 1464.51 619.889 1464.16C620.262 1463.79 620.729 1463.6 621.289 1463.6C621.849 1463.6 622.302 1463.79 622.649 1464.16C623.022 1464.51 623.209 1464.96 623.209 1465.52C623.209 1466.08 623.036 1466.55 622.689 1466.92C622.342 1467.27 621.876 1467.44 621.289 1467.44ZM636.705 1467.44C634.251 1467.44 632.278 1466.73 630.785 1465.32C629.291 1463.88 628.545 1461.97 628.545 1459.6V1454.68C628.545 1452.31 629.278 1450.4 630.745 1448.96C632.238 1447.52 634.225 1446.8 636.705 1446.8C638.251 1446.8 639.625 1447.12 640.825 1447.76C642.025 1448.37 642.958 1449.24 643.625 1450.36C644.291 1451.48 644.625 1452.76 644.625 1454.2V1454.64H641.865V1454.2C641.865 1452.79 641.385 1451.64 640.425 1450.76C639.465 1449.88 638.225 1449.44 636.705 1449.44C635.051 1449.44 633.745 1449.92 632.785 1450.88C631.825 1451.81 631.345 1453.11 631.345 1454.76V1459.52C631.345 1461.17 631.825 1462.48 632.785 1463.44C633.745 1464.37 635.051 1464.84 636.705 1464.84C638.225 1464.84 639.465 1464.41 640.425 1463.56C641.385 1462.68 641.865 1461.55 641.865 1460.16V1459.72H644.625V1460.16C644.625 1462.35 643.891 1464.11 642.425 1465.44C640.985 1466.77 639.078 1467.44 636.705 1467.44ZM657.055 1467.44C654.602 1467.44 652.629 1466.73 651.135 1465.32C649.669 1463.88 648.935 1461.97 648.935 1459.6V1454.72C648.935 1452.32 649.669 1450.4 651.135 1448.96C652.602 1447.52 654.575 1446.8 657.055 1446.8C659.509 1446.8 661.469 1447.52 662.935 1448.96C664.429 1450.4 665.175 1452.32 665.175 1454.72V1459.6C665.175 1461.97 664.429 1463.88 662.935 1465.32C661.469 1466.73 659.509 1467.44 657.055 1467.44ZM657.055 1464.84C658.709 1464.84 660.015 1464.36 660.975 1463.4C661.935 1462.44 662.415 1461.15 662.415 1459.52V1454.8C662.415 1453.15 661.935 1451.84 660.975 1450.88C660.015 1449.92 658.709 1449.44 657.055 1449.44C655.402 1449.44 654.095 1449.92 653.135 1450.88C652.175 1451.84 651.695 1453.15 651.695 1454.8V1459.52C651.695 1461.15 652.175 1462.44 653.135 1463.4C654.095 1464.36 655.402 1464.84 657.055 1464.84ZM690.678 1446.8C692.945 1446.8 694.705 1447.47 695.958 1448.8C697.212 1450.11 697.838 1451.97 697.838 1454.4V1467H695.078V1454.64C695.078 1452.99 694.652 1451.71 693.798 1450.8C692.945 1449.89 691.785 1449.44 690.318 1449.44C689.252 1449.44 688.265 1449.69 687.358 1450.2C686.452 1450.71 685.732 1451.39 685.198 1452.24C685.332 1452.99 685.398 1453.71 685.398 1454.4V1467H682.638V1454.64C682.638 1452.99 682.212 1451.71 681.358 1450.8C680.505 1449.89 679.345 1449.44 677.878 1449.44C676.838 1449.44 675.892 1449.68 675.038 1450.16C674.185 1450.64 673.492 1451.29 672.958 1452.12V1467H670.198V1447.24H672.718L672.838 1449.16C673.532 1448.39 674.358 1447.8 675.318 1447.4C676.278 1447 677.332 1446.8 678.478 1446.8C679.785 1446.8 680.918 1447.05 681.878 1447.56C682.865 1448.07 683.665 1448.8 684.278 1449.76C684.972 1448.8 685.865 1448.07 686.958 1447.56C688.078 1447.05 689.318 1446.8 690.678 1446.8Z" fill="#040405"/>
</g>
<defs>
<filter id="filter0_d_411:177" x="0" y="0.592773" width="1118" height="1594.41" filterUnits="userSpaceOnUse" color-interpolation-filters="sRGB">
<feFlood flood-opacity="0" result="BackgroundImageFix"/>
<feColorMatrix in="SourceAlpha" type="matrix" values="0 0 0 0 0 0 0 0 0 0 0 0 0 0 0 0 0 0 127 0" result="hardAlpha"/>
<feOffset dy="4"/>
<feGaussianBlur stdDeviation="2"/>
<feComposite in2="hardAlpha" operator="out"/>
<feColorMatrix type="matrix" values="0 0 0 0 0 0 0 0 0 0 0 0 0 0 0 0 0 0 0.25 0"/>
<feBlend mode="normal" in2="BackgroundImageFix" result="effect1_dropShadow_411:177"/>
<feBlend mode="normal" in="SourceGraphic" in2="effect1_dropShadow_411:177" result="shape"/>
</filter>
</defs>
</svg>
