<svg width="1181" height="595" viewBox="0 0 1181 595" fill="none" xmlns="http://www.w3.org/2000/svg">
<path fill-rule="evenodd" clip-rule="evenodd" d="M1148 4H33C16.9837 4 4 16.9837 4 33V562C4 578.016 16.9837 591 33 591H1148C1164.02 591 1177 578.016 1177 562V33C1177 16.9837 1164.02 4 1148 4ZM33 0C14.7746 0 0 14.7746 0 33V562C0 580.225 14.7746 595 33 595H1148C1166.23 595 1181 580.225 1181 562V33C1181 14.7746 1166.23 0 1148 0H33Z" fill="black"/>
<path d="M276.2 279.6V288H220.6L207 239.2H123L109.4 288H53.8V279.6L133 25.6H197L276.2 279.6ZM193.4 191.6L165 89.6L136.6 191.6H193.4Z" fill="black"/>
<path d="M31 292H346V380H31L31 292Z" fill="#EAE4DF"/>
<path d="M52.2639 358.256V355.256H63.4959V358.256H59.5359V371H56.2239V358.256H52.2639Z" fill="#040405"/>
<path d="M74.6524 358.976V359.432L70.0444 372.152C69.6764 373.176 69.1724 373.92 68.5324 374.384C67.8924 374.848 67.0364 375.08 65.9644 375.08H63.5404V372.176H65.6044C65.9724 372.176 66.2604 372.112 66.4684 371.984C66.6924 371.856 66.8684 371.592 66.9964 371.192V371.168L62.4604 359.432V358.976H65.7964L68.6284 367.064L71.3164 358.976H74.6524Z" fill="#040405"/>
<path d="M82.2887 358.664C83.6647 358.664 84.7687 359.096 85.6007 359.96C86.4487 360.824 86.8727 361.984 86.8727 363.44V366.536C86.8727 367.976 86.4487 369.128 85.6007 369.992C84.7687 370.856 83.6727 371.288 82.3127 371.288C81.1607 371.288 80.1847 371 79.3847 370.424V375.08H76.1927V358.976H79.0247L79.1207 359.768C79.9847 359.032 81.0407 358.664 82.2887 358.664ZM83.6567 363.752C83.6567 363.096 83.4647 362.584 83.0807 362.216C82.7127 361.848 82.2007 361.664 81.5447 361.664C81.0967 361.664 80.6807 361.76 80.2967 361.952C79.9127 362.128 79.6087 362.376 79.3847 362.696V367.304C79.6087 367.624 79.9047 367.872 80.2727 368.048C80.6567 368.224 81.0807 368.312 81.5447 368.312C82.2007 368.312 82.7127 368.128 83.0807 367.76C83.4647 367.392 83.6567 366.88 83.6567 366.224V363.752Z" fill="#040405"/>
<path d="M91.7507 366.008V366.296C91.7507 366.984 91.9427 367.52 92.3267 367.904C92.7267 368.272 93.2707 368.456 93.9587 368.456C94.5347 368.456 95.0067 368.336 95.3747 368.096C95.7587 367.856 95.9667 367.544 95.9987 367.16H99.1907C99.1107 368.44 98.5987 369.448 97.6547 370.184C96.7107 370.92 95.4787 371.288 93.9587 371.288C92.3267 371.288 91.0227 370.84 90.0467 369.944C89.0707 369.032 88.5827 367.816 88.5827 366.296V363.68C88.5827 362.688 88.7987 361.816 89.2307 361.064C89.6787 360.296 90.3027 359.704 91.1027 359.288C91.9187 358.872 92.8547 358.664 93.9107 358.664C94.9667 358.664 95.8947 358.872 96.6947 359.288C97.4947 359.704 98.1107 360.288 98.5427 361.04C98.9747 361.792 99.1907 362.664 99.1907 363.656V366.008H91.7507ZM93.9107 361.52C93.2387 361.52 92.7107 361.712 92.3267 362.096C91.9427 362.48 91.7507 363.008 91.7507 363.68H96.0227C96.0227 363.008 95.8307 362.48 95.4467 362.096C95.0787 361.712 94.5667 361.52 93.9107 361.52Z" fill="#040405"/>
<path d="M116.727 371H113.535V361.472L110.463 371H107.631L104.559 361.472V371H101.367V355.256H105.495L109.047 365.96L112.599 355.256H116.727V371Z" fill="#040405"/>
<path d="M130.839 368.096V371H129.255C128.151 371 127.311 370.664 126.735 369.992C125.839 370.856 124.631 371.288 123.111 371.288C121.799 371.288 120.759 370.968 119.991 370.328C119.239 369.688 118.863 368.816 118.863 367.712C118.863 366.736 119.183 365.952 119.823 365.36C120.463 364.768 121.423 364.392 122.703 364.232L126.015 363.8V363.272C125.983 362.152 125.351 361.592 124.119 361.592C123.479 361.592 122.991 361.728 122.655 362C122.335 362.272 122.175 362.664 122.175 363.176V363.344H118.983V363.176C118.983 361.8 119.447 360.704 120.375 359.888C121.303 359.072 122.567 358.664 124.167 358.664C125.767 358.664 127.007 359.072 127.887 359.888C128.767 360.704 129.207 361.864 129.207 363.368V367.256C129.207 367.816 129.487 368.096 130.047 368.096H130.839ZM123.543 368.696C124.071 368.696 124.551 368.592 124.983 368.384C125.415 368.16 125.759 367.856 126.015 367.472V366.08L123.375 366.488C122.927 366.552 122.583 366.688 122.343 366.896C122.119 367.088 122.007 367.336 122.007 367.64C122.007 367.96 122.143 368.216 122.415 368.408C122.703 368.6 123.079 368.696 123.543 368.696Z" fill="#040405"/>
<path d="M136.092 361.856V366.968C136.092 367.72 136.452 368.096 137.172 368.096H138.996V371H136.908C135.612 371 134.62 370.672 133.932 370.016C133.244 369.36 132.9 368.424 132.9 367.208V361.856H130.164V358.976H132.18C132.484 358.976 132.692 358.912 132.804 358.784C132.932 358.656 132.996 358.44 132.996 358.136V355.784H136.092V358.976H139.596V361.856H136.092Z" fill="#040405"/>
<path d="M143.43 366.008V366.296C143.43 366.984 143.622 367.52 144.006 367.904C144.406 368.272 144.95 368.456 145.638 368.456C146.214 368.456 146.686 368.336 147.054 368.096C147.438 367.856 147.646 367.544 147.678 367.16H150.87C150.79 368.44 150.278 369.448 149.334 370.184C148.39 370.92 147.158 371.288 145.638 371.288C144.006 371.288 142.702 370.84 141.726 369.944C140.75 369.032 140.262 367.816 140.262 366.296V363.68C140.262 362.688 140.478 361.816 140.91 361.064C141.358 360.296 141.982 359.704 142.782 359.288C143.598 358.872 144.534 358.664 145.59 358.664C146.646 358.664 147.574 358.872 148.374 359.288C149.174 359.704 149.79 360.288 150.222 361.04C150.654 361.792 150.87 362.664 150.87 363.656V366.008H143.43ZM145.59 361.52C144.918 361.52 144.39 361.712 144.006 362.096C143.622 362.48 143.43 363.008 143.43 363.68H147.702C147.702 363.008 147.51 362.48 147.126 362.096C146.758 361.712 146.246 361.52 145.59 361.52Z" fill="#040405"/>
<path d="M157.846 371.288C156.214 371.288 154.934 370.928 154.006 370.208C153.078 369.488 152.614 368.496 152.614 367.232V366.968H155.71V367.232C155.71 367.696 155.878 368.04 156.214 368.264C156.566 368.472 157.11 368.576 157.846 368.576C158.47 368.576 158.958 368.488 159.31 368.312C159.662 368.136 159.838 367.888 159.838 367.568V367.424C159.838 367.152 159.726 366.936 159.502 366.776C159.294 366.6 158.95 366.472 158.47 366.392L156.598 366.056C155.398 365.832 154.462 365.424 153.79 364.832C153.134 364.24 152.806 363.504 152.806 362.624V362.384C152.806 361.264 153.27 360.368 154.198 359.696C155.142 359.008 156.382 358.664 157.918 358.664C159.486 358.664 160.718 359.024 161.614 359.744C162.51 360.448 162.958 361.424 162.958 362.672V362.936H159.862V362.672C159.862 362.224 159.686 361.896 159.334 361.688C158.998 361.48 158.478 361.376 157.774 361.376C157.182 361.376 156.718 361.456 156.382 361.616C156.062 361.776 155.902 362.008 155.902 362.312V362.456C155.902 362.936 156.35 363.264 157.246 363.44L159.262 363.824C160.478 364.048 161.398 364.456 162.022 365.048C162.662 365.64 162.982 366.384 162.982 367.28V367.52C162.982 368.656 162.51 369.568 161.566 370.256C160.638 370.944 159.398 371.288 157.846 371.288Z" fill="#040405"/>
<path fill-rule="evenodd" clip-rule="evenodd" d="M55.5 292L55.5 321.017H53.5L53.5 292H55.5Z" fill="black"/>
<path fill-rule="evenodd" clip-rule="evenodd" d="M60 292.009V303.009H59V292.009H60Z" fill="black"/>
<path fill-rule="evenodd" clip-rule="evenodd" d="M76 292.009V306.009H75V292.009H76Z" fill="black"/>
<path fill-rule="evenodd" clip-rule="evenodd" d="M72 292.009V303.009H71V292.009H72Z" fill="black"/>
<path fill-rule="evenodd" clip-rule="evenodd" d="M64 292.009V303.009H63V292.009H64Z" fill="black"/>
<path fill-rule="evenodd" clip-rule="evenodd" d="M68 292.009V303.009H67V292.009H68Z" fill="black"/>
<path fill-rule="evenodd" clip-rule="evenodd" d="M80 292.009V303.009H79V292.009H80Z" fill="black"/>
<path fill-rule="evenodd" clip-rule="evenodd" d="M92 292.009V303.009H91V292.009H92Z" fill="black"/>
<path fill-rule="evenodd" clip-rule="evenodd" d="M84 292.009V303.009H83V292.009H84Z" fill="black"/>
<path fill-rule="evenodd" clip-rule="evenodd" d="M88 292.009V303.009H87V292.009H88Z" fill="black"/>
<path fill-rule="evenodd" clip-rule="evenodd" d="M221 292.009V321.026H219V292.009H221Z" fill="black"/>
<path fill-rule="evenodd" clip-rule="evenodd" d="M225.5 292.018V303.018H224.5V292.018H225.5Z" fill="black"/>
<path fill-rule="evenodd" clip-rule="evenodd" d="M241.5 292.018V306.018H240.5V292.018H241.5Z" fill="black"/>
<path fill-rule="evenodd" clip-rule="evenodd" d="M237.5 292.018V303.018H236.5V292.018H237.5Z" fill="black"/>
<path fill-rule="evenodd" clip-rule="evenodd" d="M229.5 292.018V303.018H228.5V292.018H229.5Z" fill="black"/>
<path fill-rule="evenodd" clip-rule="evenodd" d="M233.5 292.018V303.018H232.5V292.018H233.5Z" fill="black"/>
<path fill-rule="evenodd" clip-rule="evenodd" d="M245.5 292.018V303.018H244.5V292.018H245.5Z" fill="black"/>
<path fill-rule="evenodd" clip-rule="evenodd" d="M257.5 292.018V303.018H256.5V292.018H257.5Z" fill="black"/>
<path fill-rule="evenodd" clip-rule="evenodd" d="M249.5 292.018V303.018H248.5V292.018H249.5Z" fill="black"/>
<path fill-rule="evenodd" clip-rule="evenodd" d="M253.5 292.018V303.018H252.5V292.018H253.5Z" fill="black"/>
<path fill-rule="evenodd" clip-rule="evenodd" d="M180 292.009V321.026H178V292.009H180Z" fill="black"/>
<path fill-rule="evenodd" clip-rule="evenodd" d="M184.5 292.018V303.018H183.5V292.018H184.5Z" fill="black"/>
<path fill-rule="evenodd" clip-rule="evenodd" d="M200.5 292.018V306.018H199.5V292.018H200.5Z" fill="black"/>
<path fill-rule="evenodd" clip-rule="evenodd" d="M196.5 292.018V303.018H195.5V292.018H196.5Z" fill="black"/>
<path fill-rule="evenodd" clip-rule="evenodd" d="M188.5 292.018V303.018H187.5V292.018H188.5Z" fill="black"/>
<path fill-rule="evenodd" clip-rule="evenodd" d="M192.5 292.018V303.018H191.5V292.018H192.5Z" fill="black"/>
<path fill-rule="evenodd" clip-rule="evenodd" d="M204.5 292.018V303.018H203.5V292.018H204.5Z" fill="black"/>
<path fill-rule="evenodd" clip-rule="evenodd" d="M216.5 292.018V303.018H215.5V292.018H216.5Z" fill="black"/>
<path fill-rule="evenodd" clip-rule="evenodd" d="M208.5 292.018V303.018H207.5V292.018H208.5Z" fill="black"/>
<path fill-rule="evenodd" clip-rule="evenodd" d="M212.5 292.018V303.018H211.5V292.018H212.5Z" fill="black"/>
<path fill-rule="evenodd" clip-rule="evenodd" d="M138 292.009V321.026H136V292.009H138Z" fill="black"/>
<path fill-rule="evenodd" clip-rule="evenodd" d="M142.5 292.018V303.018H141.5V292.018H142.5Z" fill="black"/>
<path fill-rule="evenodd" clip-rule="evenodd" d="M158.5 292.018V306.018H157.5V292.018H158.5Z" fill="black"/>
<path fill-rule="evenodd" clip-rule="evenodd" d="M154.5 292.018V303.018H153.5V292.018H154.5Z" fill="black"/>
<path fill-rule="evenodd" clip-rule="evenodd" d="M146.5 292.018V303.018H145.5V292.018H146.5Z" fill="black"/>
<path fill-rule="evenodd" clip-rule="evenodd" d="M150.5 292.018V303.018H149.5V292.018H150.5Z" fill="black"/>
<path fill-rule="evenodd" clip-rule="evenodd" d="M162.5 292.018V303.018H161.5V292.018H162.5Z" fill="black"/>
<path fill-rule="evenodd" clip-rule="evenodd" d="M174.5 292.018V303.018H173.5V292.018H174.5Z" fill="black"/>
<path fill-rule="evenodd" clip-rule="evenodd" d="M166.5 292.018V303.018H165.5V292.018H166.5Z" fill="black"/>
<path fill-rule="evenodd" clip-rule="evenodd" d="M170.5 292.018V303.018H169.5V292.018H170.5Z" fill="black"/>
<path fill-rule="evenodd" clip-rule="evenodd" d="M97 292.009V321.026H95V292.009H97Z" fill="black"/>
<path fill-rule="evenodd" clip-rule="evenodd" d="M101.5 292.018V303.018H100.5V292.018H101.5Z" fill="black"/>
<path fill-rule="evenodd" clip-rule="evenodd" d="M117.5 292.018V306.018H116.5V292.018H117.5Z" fill="black"/>
<path fill-rule="evenodd" clip-rule="evenodd" d="M113.5 292.018V303.018H112.5V292.018H113.5Z" fill="black"/>
<path fill-rule="evenodd" clip-rule="evenodd" d="M105.5 292.018V303.018H104.5V292.018H105.5Z" fill="black"/>
<path fill-rule="evenodd" clip-rule="evenodd" d="M109.5 292.018V303.018H108.5V292.018H109.5Z" fill="black"/>
<path fill-rule="evenodd" clip-rule="evenodd" d="M121.5 292.018V303.018H120.5V292.018H121.5Z" fill="black"/>
<path fill-rule="evenodd" clip-rule="evenodd" d="M133.5 292.018V303.018H132.5V292.018H133.5Z" fill="black"/>
<path fill-rule="evenodd" clip-rule="evenodd" d="M125.5 292.018V303.018H124.5V292.018H125.5Z" fill="black"/>
<path fill-rule="evenodd" clip-rule="evenodd" d="M129.5 292.018V303.018H128.5V292.018H129.5Z" fill="black"/>
<path fill-rule="evenodd" clip-rule="evenodd" d="M262 292.009V321.026H260V292.009H262Z" fill="black"/>
<path fill-rule="evenodd" clip-rule="evenodd" d="M266.5 292.018V303.018H265.5V292.018H266.5Z" fill="black"/>
<path fill-rule="evenodd" clip-rule="evenodd" d="M282.5 292.018V306.018H281.5V292.018H282.5Z" fill="black"/>
<path fill-rule="evenodd" clip-rule="evenodd" d="M278.5 292.018V303.018H277.5V292.018H278.5Z" fill="black"/>
<path fill-rule="evenodd" clip-rule="evenodd" d="M270.5 292.018V303.018H269.5V292.018H270.5Z" fill="black"/>
<path fill-rule="evenodd" clip-rule="evenodd" d="M274.5 292.018V303.018H273.5V292.018H274.5Z" fill="black"/>
<path fill-rule="evenodd" clip-rule="evenodd" d="M286.5 292.018V303.018H285.5V292.018H286.5Z" fill="black"/>
<path fill-rule="evenodd" clip-rule="evenodd" d="M298.5 292.018V303.018H297.5V292.018H298.5Z" fill="black"/>
<path fill-rule="evenodd" clip-rule="evenodd" d="M290.5 292.018V303.018H289.5V292.018H290.5Z" fill="black"/>
<path fill-rule="evenodd" clip-rule="evenodd" d="M294.5 292.018V303.018H293.5V292.018H294.5Z" fill="black"/>
<path fill-rule="evenodd" clip-rule="evenodd" d="M303 292.009V321.026H301V292.009H303Z" fill="black"/>
<path fill-rule="evenodd" clip-rule="evenodd" d="M307.5 292.018V303.018H306.5V292.018H307.5Z" fill="black"/>
<path fill-rule="evenodd" clip-rule="evenodd" d="M323.5 292.018V306.018H322.5V292.018H323.5Z" fill="black"/>
<path fill-rule="evenodd" clip-rule="evenodd" d="M319.5 292.018V303.018H318.5V292.018H319.5Z" fill="black"/>
<path fill-rule="evenodd" clip-rule="evenodd" d="M311.5 292.018V303.018H310.5V292.018H311.5Z" fill="black"/>
<path fill-rule="evenodd" clip-rule="evenodd" d="M315.5 292.018V303.018H314.5V292.018H315.5Z" fill="black"/>
<path fill-rule="evenodd" clip-rule="evenodd" d="M327.5 292.018V303.018H326.5V292.018H327.5Z" fill="black"/>
<path fill-rule="evenodd" clip-rule="evenodd" d="M339.5 292.018V303.018H338.5V292.018H339.5Z" fill="black"/>
<path fill-rule="evenodd" clip-rule="evenodd" d="M331.5 292.018V303.018H330.5V292.018H331.5Z" fill="black"/>
<path fill-rule="evenodd" clip-rule="evenodd" d="M335.5 292.018V303.018H334.5V292.018H335.5Z" fill="black"/>
<path d="M55.146 330.836C54.548 330.836 54.0063 330.71 53.521 330.459C53.0443 330.207 52.6717 329.861 52.403 329.419C52.1343 328.977 52 328.483 52 327.937V324.921C52 324.366 52.1343 323.868 52.403 323.426C52.6717 322.984 53.0443 322.637 53.521 322.386C54.0063 322.134 54.548 322.009 55.146 322.009C55.744 322.009 56.2813 322.134 56.758 322.386C57.2347 322.637 57.6073 322.984 57.876 323.426C58.1447 323.868 58.279 324.366 58.279 324.921V327.937C58.279 328.483 58.1447 328.977 57.876 329.419C57.6073 329.861 57.2347 330.207 56.758 330.459C56.2813 330.71 55.744 330.836 55.146 330.836ZM55.146 329.419C55.6487 329.419 56.043 329.28 56.329 329.003C56.615 328.725 56.758 328.34 56.758 327.846V324.999C56.758 324.513 56.6107 324.132 56.316 323.855C56.03 323.569 55.64 323.426 55.146 323.426C54.6433 323.426 54.2447 323.569 53.95 323.855C53.664 324.132 53.521 324.513 53.521 324.999V327.846C53.521 328.331 53.664 328.717 53.95 329.003C54.2447 329.28 54.6433 329.419 55.146 329.419Z" fill="black"/>
<path d="M81.7631 330.537H80.2421V324.115C79.9821 324.201 79.6571 324.245 79.2671 324.245H78.2791V322.854H79.2021C79.5401 322.854 79.7957 322.784 79.9691 322.646C80.1511 322.498 80.2421 322.286 80.2421 322.009H81.7631V330.537Z" fill="black"/>
<path d="M107.574 329.328V330.693H101.867V329.341L104.35 326.884C104.783 326.459 105.104 326.125 105.312 325.883C105.52 325.631 105.663 325.415 105.741 325.233C105.828 325.051 105.871 324.856 105.871 324.648V324.518C105.871 324.171 105.754 323.902 105.52 323.712C105.295 323.512 104.978 323.413 104.571 323.413C104.164 323.413 103.843 323.521 103.609 323.738C103.384 323.946 103.271 324.24 103.271 324.622V324.895H101.763V324.596C101.763 323.79 102.01 323.157 102.504 322.698C103.007 322.238 103.696 322.009 104.571 322.009C105.446 322.009 106.131 322.234 106.625 322.685C107.128 323.127 107.379 323.738 107.379 324.518V324.648C107.379 325.116 107.245 325.579 106.976 326.039C106.707 326.489 106.235 327.048 105.559 327.716L103.934 329.328H107.574Z" fill="black"/>
<path d="M131.318 325.311C132.02 325.389 132.57 325.644 132.969 326.078C133.368 326.502 133.567 327.061 133.567 327.755V328.015C133.567 328.838 133.298 329.492 132.761 329.978C132.224 330.454 131.496 330.693 130.577 330.693C129.632 330.693 128.896 330.472 128.367 330.03C127.838 329.579 127.574 328.955 127.574 328.158V327.898H129.082V328.158C129.082 328.53 129.208 328.812 129.459 329.003C129.719 329.193 130.092 329.289 130.577 329.289C131.045 329.289 131.405 329.18 131.656 328.964C131.916 328.747 132.046 328.439 132.046 328.041V327.781C132.046 327.391 131.912 327.096 131.643 326.897C131.374 326.689 130.993 326.585 130.499 326.585H129.251V325.402L131.435 323.387H127.756V322.009H133.411V323.387L131.318 325.311Z" fill="black"/>
<path d="M160.535 328.769H159.287V330.537H157.779V328.769H153.567V327.352C153.948 326.494 154.26 325.636 154.503 324.778C154.746 323.92 154.936 322.997 155.075 322.009H156.635V322.243C156.375 324.045 155.911 325.748 155.244 327.352H157.779V323.504H159.287V327.352H160.535V328.769Z" fill="black"/>
<path d="M183.655 324.986C184.227 324.986 184.73 325.094 185.163 325.311C185.605 325.519 185.943 325.822 186.177 326.221C186.42 326.611 186.541 327.061 186.541 327.573V327.963C186.541 328.803 186.268 329.471 185.722 329.965C185.185 330.45 184.457 330.693 183.538 330.693C182.602 330.693 181.865 330.48 181.328 330.056C180.799 329.631 180.535 329.042 180.535 328.288V328.158H182.043V328.288C182.043 328.6 182.169 328.847 182.42 329.029C182.68 329.202 183.035 329.289 183.486 329.289C183.971 329.289 184.344 329.18 184.604 328.964C184.873 328.738 185.007 328.418 185.007 328.002V327.612C185.007 327.239 184.868 326.944 184.591 326.728C184.322 326.502 183.954 326.39 183.486 326.39C183.079 326.39 182.745 326.463 182.485 326.611C182.225 326.758 182.073 326.962 182.03 327.222H180.574L180.834 322.009H186.151V323.426H182.199L182.095 325.389C182.528 325.12 183.048 324.986 183.655 324.986Z" fill="black"/>
<path d="M209.817 325.272C210.372 325.272 210.87 325.389 211.312 325.623C211.763 325.848 212.109 326.164 212.352 326.572C212.603 326.97 212.729 327.417 212.729 327.911V328.171C212.729 328.682 212.599 329.141 212.339 329.549C212.088 329.956 211.728 330.277 211.26 330.511C210.801 330.736 210.281 330.849 209.7 330.849C209.093 330.849 208.547 330.727 208.062 330.485C207.585 330.233 207.213 329.891 206.944 329.458C206.675 329.016 206.541 328.517 206.541 327.963V324.986C206.541 324.405 206.671 323.889 206.931 323.439C207.2 322.988 207.568 322.637 208.036 322.386C208.513 322.134 209.059 322.009 209.674 322.009C210.255 322.009 210.77 322.113 211.221 322.321C211.68 322.529 212.04 322.823 212.3 323.205C212.56 323.577 212.69 324.006 212.69 324.492V324.622H211.169V324.492C211.169 324.162 211.026 323.898 210.74 323.699C210.463 323.499 210.107 323.4 209.674 323.4C209.197 323.4 208.807 323.543 208.504 323.829C208.209 324.115 208.062 324.487 208.062 324.947V325.766C208.547 325.436 209.132 325.272 209.817 325.272ZM211.208 327.937C211.208 327.529 211.074 327.217 210.805 327.001C210.545 326.775 210.177 326.663 209.7 326.663C209.319 326.663 208.985 326.723 208.699 326.845C208.422 326.957 208.209 327.126 208.062 327.352V327.937C208.062 328.387 208.214 328.756 208.517 329.042C208.82 329.319 209.215 329.458 209.7 329.458C210.159 329.458 210.523 329.345 210.792 329.12C211.069 328.886 211.208 328.578 211.208 328.197V327.937Z" fill="black"/>
<path d="M43.172 347.198C41.984 347.198 40.922 346.94 39.986 346.424C39.062 345.908 38.342 345.188 37.826 344.264C37.31 343.328 37.052 342.266 37.052 341.078C37.052 339.89 37.31 338.834 37.826 337.91C38.342 336.986 39.062 336.272 39.986 335.768C40.922 335.252 41.984 334.994 43.172 334.994C44.36 334.994 45.416 335.252 46.34 335.768C47.276 336.284 48.002 337.004 48.518 337.928C49.046 338.852 49.31 339.902 49.31 341.078C49.31 342.266 49.046 343.328 48.518 344.264C48.002 345.188 47.276 345.908 46.34 346.424C45.416 346.94 44.36 347.198 43.172 347.198ZM43.172 345.128C43.964 345.128 44.666 344.96 45.278 344.624C45.89 344.276 46.364 343.796 46.7 343.184C47.036 342.572 47.204 341.87 47.204 341.078C47.204 340.286 47.036 339.59 46.7 338.99C46.364 338.378 45.89 337.904 45.278 337.568C44.666 337.232 43.964 337.064 43.172 337.064C42.38 337.064 41.678 337.232 41.066 337.568C40.466 337.904 39.998 338.378 39.662 338.99C39.326 339.59 39.158 340.286 39.158 341.078C39.158 341.882 39.326 342.59 39.662 343.202C39.998 343.814 40.466 344.288 41.066 344.624C41.678 344.96 42.38 345.128 43.172 345.128Z" fill="black"/>
<path d="M166.5 350.256C167.256 350.256 167.922 350.412 168.498 350.724C169.086 351.036 169.536 351.474 169.848 352.038C170.172 352.602 170.334 353.256 170.334 354V354.396C170.334 355.14 170.172 355.794 169.848 356.358C169.536 356.922 169.092 357.36 168.516 357.672C167.94 357.984 167.274 358.14 166.518 358.14C165.762 358.14 165.09 357.984 164.502 357.672C163.914 357.348 163.458 356.904 163.134 356.34C162.81 355.776 162.648 355.128 162.648 354.396V354C162.648 353.268 162.81 352.62 163.134 352.056C163.458 351.492 163.908 351.054 164.484 350.742C165.072 350.418 165.744 350.256 166.5 350.256ZM168.984 353.982C168.984 353.166 168.774 352.548 168.354 352.128C167.934 351.708 167.316 351.498 166.5 351.498C165.708 351.498 165.09 351.714 164.646 352.146C164.214 352.578 163.998 353.19 163.998 353.982V354.396C163.998 355.188 164.214 355.806 164.646 356.25C165.09 356.682 165.708 356.898 166.5 356.898C167.292 356.898 167.904 356.682 168.336 356.25C168.768 355.806 168.984 355.188 168.984 354.396V353.982ZM168.264 353.676C168.264 354.156 168.066 354.51 167.67 354.738L168.336 355.89V355.998H167.076L166.5 354.954H166.086V355.998H164.898L164.898 352.362H166.752C167.208 352.362 167.574 352.476 167.85 352.704C168.126 352.932 168.264 353.238 168.264 353.622V353.676ZM166.086 354.036H166.716C166.848 354.036 166.95 354.006 167.022 353.946C167.106 353.886 167.148 353.802 167.148 353.694V353.64C167.148 353.532 167.106 353.448 167.022 353.388C166.95 353.328 166.848 353.298 166.716 353.298L166.086 353.298V354.036Z" fill="black"/>
<path d="M624.792 215.744C610.2 215.744 597.24 213.056 585.912 207.68C574.776 202.112 566.136 194.528 559.992 184.928C553.848 175.328 550.776 164.48 550.776 152.384C550.776 147.392 551.352 142.208 552.504 136.832L563.448 86.432C568.056 65.12 577.848 48.608 592.824 36.896C607.992 25.184 627.192 19.328 650.424 19.328C665.208 19.328 678.072 21.92 689.016 27.104C700.152 32.096 708.696 39.296 714.648 48.704C720.6 57.92 723.576 68.672 723.576 80.96C723.576 85.184 722.904 90.848 721.56 97.952L720.12 106.88H667.704L670.296 93.92C671.064 91.04 671.448 88.16 671.448 85.28C671.448 78.944 669.336 74.048 665.112 70.592C660.888 67.136 654.84 65.408 646.968 65.408C638.328 65.408 631.224 67.616 625.656 72.032C620.28 76.448 616.536 82.976 614.424 91.616L602.904 140.864C602.328 143.36 602.04 145.76 602.04 148.064C602.04 154.784 604.344 160.064 608.952 163.904C613.56 167.552 619.896 169.376 627.96 169.376C636.408 169.376 643.032 167.552 647.832 163.904C652.632 160.256 656.088 154.592 658.2 146.912L661.656 133.952H714.648L711.192 146.048C701.016 192.512 672.216 215.744 624.792 215.744Z" fill="black"/>
<path d="M913.432 464.88C893.464 464.88 877.816 459.024 866.488 447.312C855.352 435.6 849.784 419.376 849.784 398.64V337.008C849.784 316.08 855.352 299.76 866.488 288.048C877.816 276.144 893.464 270.192 913.432 270.192C925.912 270.192 936.856 272.688 946.264 277.68C955.672 282.672 962.968 289.776 968.152 298.992C973.336 308.016 975.928 318.48 975.928 330.384V340.176H973.048V330.384C973.048 312.912 967.576 298.992 956.632 288.624C945.88 278.256 931.48 273.072 913.432 273.072C894.232 273.072 879.256 278.736 868.504 290.064C857.944 301.392 852.664 317.04 852.664 337.008V398.64C852.664 418.608 857.944 434.16 868.504 445.296C879.256 456.432 894.232 462 913.432 462C931.672 462 946.168 456.912 956.92 446.736C967.672 436.368 973.048 422.544 973.048 405.264V393.744H975.928V405.264C975.928 423.312 970.264 437.808 958.936 448.752C947.608 459.504 932.44 464.88 913.432 464.88Z" fill="black"/>
<path d="M520.6 484L520.2 486H509.8L499.4 404.8H381.8L335 486H323.4L323.8 484L473.4 223.6H486.6L520.6 484ZM498.2 394.8L477.8 237.6L387.4 394.8H498.2Z" fill="black"/>
<path d="M528 218H843V306H528V218Z" fill="#EAE4DF"/>
<path d="M549.264 284.256V281.256H560.496V284.256H556.536V297H553.224V284.256H549.264Z" fill="#040405"/>
<path d="M571.652 284.976V285.432L567.044 298.152C566.676 299.176 566.172 299.92 565.532 300.384C564.892 300.848 564.036 301.08 562.964 301.08H560.54V298.176H562.604C562.972 298.176 563.26 298.112 563.468 297.984C563.692 297.856 563.868 297.592 563.996 297.192V297.168L559.46 285.432V284.976H562.796L565.628 293.064L568.316 284.976H571.652Z" fill="#040405"/>
<path d="M579.289 284.664C580.665 284.664 581.769 285.096 582.601 285.96C583.449 286.824 583.873 287.984 583.873 289.44V292.536C583.873 293.976 583.449 295.128 582.601 295.992C581.769 296.856 580.673 297.288 579.313 297.288C578.161 297.288 577.185 297 576.385 296.424V301.08H573.193V284.976H576.025L576.121 285.768C576.985 285.032 578.041 284.664 579.289 284.664ZM580.657 289.752C580.657 289.096 580.465 288.584 580.081 288.216C579.713 287.848 579.201 287.664 578.545 287.664C578.097 287.664 577.681 287.76 577.297 287.952C576.913 288.128 576.609 288.376 576.385 288.696V293.304C576.609 293.624 576.905 293.872 577.273 294.048C577.657 294.224 578.081 294.312 578.545 294.312C579.201 294.312 579.713 294.128 580.081 293.76C580.465 293.392 580.657 292.88 580.657 292.224V289.752Z" fill="#040405"/>
<path d="M588.751 292.008V292.296C588.751 292.984 588.943 293.52 589.327 293.904C589.727 294.272 590.271 294.456 590.959 294.456C591.535 294.456 592.007 294.336 592.375 294.096C592.759 293.856 592.967 293.544 592.999 293.16H596.191C596.111 294.44 595.599 295.448 594.655 296.184C593.711 296.92 592.479 297.288 590.959 297.288C589.327 297.288 588.023 296.84 587.047 295.944C586.071 295.032 585.583 293.816 585.583 292.296V289.68C585.583 288.688 585.799 287.816 586.231 287.064C586.679 286.296 587.303 285.704 588.103 285.288C588.919 284.872 589.855 284.664 590.911 284.664C591.967 284.664 592.895 284.872 593.695 285.288C594.495 285.704 595.111 286.288 595.543 287.04C595.975 287.792 596.191 288.664 596.191 289.656V292.008H588.751ZM590.911 287.52C590.239 287.52 589.711 287.712 589.327 288.096C588.943 288.48 588.751 289.008 588.751 289.68H593.023C593.023 289.008 592.831 288.48 592.447 288.096C592.079 287.712 591.567 287.52 590.911 287.52Z" fill="#040405"/>
<path d="M613.727 297H610.535V287.472L607.463 297H604.631L601.559 287.472V297H598.367V281.256H602.495L606.047 291.96L609.599 281.256H613.727V297Z" fill="#040405"/>
<path d="M627.839 294.096V297H626.255C625.151 297 624.311 296.664 623.735 295.992C622.839 296.856 621.631 297.288 620.111 297.288C618.799 297.288 617.759 296.968 616.991 296.328C616.239 295.688 615.863 294.816 615.863 293.712C615.863 292.736 616.183 291.952 616.823 291.36C617.463 290.768 618.423 290.392 619.703 290.232L623.015 289.8V289.272C622.983 288.152 622.351 287.592 621.119 287.592C620.479 287.592 619.991 287.728 619.655 288C619.335 288.272 619.175 288.664 619.175 289.176V289.344H615.983V289.176C615.983 287.8 616.447 286.704 617.375 285.888C618.303 285.072 619.567 284.664 621.167 284.664C622.767 284.664 624.007 285.072 624.887 285.888C625.767 286.704 626.207 287.864 626.207 289.368V293.256C626.207 293.816 626.487 294.096 627.047 294.096H627.839ZM620.543 294.696C621.071 294.696 621.551 294.592 621.983 294.384C622.415 294.16 622.759 293.856 623.015 293.472V292.08L620.375 292.488C619.927 292.552 619.583 292.688 619.343 292.896C619.119 293.088 619.007 293.336 619.007 293.64C619.007 293.96 619.143 294.216 619.415 294.408C619.703 294.6 620.079 294.696 620.543 294.696Z" fill="#040405"/>
<path d="M633.092 287.856V292.968C633.092 293.72 633.452 294.096 634.172 294.096H635.996V297H633.908C632.612 297 631.62 296.672 630.932 296.016C630.244 295.36 629.9 294.424 629.9 293.208V287.856H627.164V284.976H629.18C629.484 284.976 629.692 284.912 629.804 284.784C629.932 284.656 629.996 284.44 629.996 284.136V281.784H633.092V284.976H636.596V287.856H633.092Z" fill="#040405"/>
<path d="M640.43 292.008V292.296C640.43 292.984 640.622 293.52 641.006 293.904C641.406 294.272 641.95 294.456 642.638 294.456C643.214 294.456 643.686 294.336 644.054 294.096C644.438 293.856 644.646 293.544 644.678 293.16H647.87C647.79 294.44 647.278 295.448 646.334 296.184C645.39 296.92 644.158 297.288 642.638 297.288C641.006 297.288 639.702 296.84 638.726 295.944C637.75 295.032 637.262 293.816 637.262 292.296V289.68C637.262 288.688 637.478 287.816 637.91 287.064C638.358 286.296 638.982 285.704 639.782 285.288C640.598 284.872 641.534 284.664 642.59 284.664C643.646 284.664 644.574 284.872 645.374 285.288C646.174 285.704 646.79 286.288 647.222 287.04C647.654 287.792 647.87 288.664 647.87 289.656V292.008H640.43ZM642.59 287.52C641.918 287.52 641.39 287.712 641.006 288.096C640.622 288.48 640.43 289.008 640.43 289.68H644.702C644.702 289.008 644.51 288.48 644.126 288.096C643.758 287.712 643.246 287.52 642.59 287.52Z" fill="#040405"/>
<path d="M654.846 297.288C653.214 297.288 651.934 296.928 651.006 296.208C650.078 295.488 649.614 294.496 649.614 293.232V292.968H652.71V293.232C652.71 293.696 652.878 294.04 653.214 294.264C653.566 294.472 654.11 294.576 654.846 294.576C655.47 294.576 655.958 294.488 656.31 294.312C656.662 294.136 656.838 293.888 656.838 293.568V293.424C656.838 293.152 656.726 292.936 656.502 292.776C656.294 292.6 655.95 292.472 655.47 292.392L653.598 292.056C652.398 291.832 651.462 291.424 650.79 290.832C650.134 290.24 649.806 289.504 649.806 288.624V288.384C649.806 287.264 650.27 286.368 651.198 285.696C652.142 285.008 653.382 284.664 654.918 284.664C656.486 284.664 657.718 285.024 658.614 285.744C659.51 286.448 659.958 287.424 659.958 288.672V288.936H656.862V288.672C656.862 288.224 656.686 287.896 656.334 287.688C655.998 287.48 655.478 287.376 654.774 287.376C654.182 287.376 653.718 287.456 653.382 287.616C653.062 287.776 652.902 288.008 652.902 288.312V288.456C652.902 288.936 653.35 289.264 654.246 289.44L656.262 289.824C657.478 290.048 658.398 290.456 659.022 291.048C659.662 291.64 659.982 292.384 659.982 293.28V293.52C659.982 294.656 659.51 295.568 658.566 296.256C657.638 296.944 656.398 297.288 654.846 297.288Z" fill="#040405"/>
<path fill-rule="evenodd" clip-rule="evenodd" d="M552.5 218V247.017H550.5V218H552.5Z" fill="black"/>
<path fill-rule="evenodd" clip-rule="evenodd" d="M557 218.009V229.009H556V218.009H557Z" fill="black"/>
<path fill-rule="evenodd" clip-rule="evenodd" d="M573 218.009V232.009H572V218.009H573Z" fill="black"/>
<path fill-rule="evenodd" clip-rule="evenodd" d="M569 218.009V229.009H568V218.009H569Z" fill="black"/>
<path fill-rule="evenodd" clip-rule="evenodd" d="M561 218.009V229.009H560V218.009H561Z" fill="black"/>
<path fill-rule="evenodd" clip-rule="evenodd" d="M565 218.009V229.009H564V218.009H565Z" fill="black"/>
<path fill-rule="evenodd" clip-rule="evenodd" d="M577 218.009V229.009H576V218.009H577Z" fill="black"/>
<path fill-rule="evenodd" clip-rule="evenodd" d="M589 218.009V229.009H588V218.009H589Z" fill="black"/>
<path fill-rule="evenodd" clip-rule="evenodd" d="M581 218.009V229.009H580V218.009H581Z" fill="black"/>
<path fill-rule="evenodd" clip-rule="evenodd" d="M585 218.009V229.009H584V218.009H585Z" fill="black"/>
<path fill-rule="evenodd" clip-rule="evenodd" d="M718 218.009V247.026H716V218.009H718Z" fill="black"/>
<path fill-rule="evenodd" clip-rule="evenodd" d="M722.5 218.018V229.018H721.5V218.018H722.5Z" fill="black"/>
<path fill-rule="evenodd" clip-rule="evenodd" d="M738.5 218.018V232.018H737.5V218.018H738.5Z" fill="black"/>
<path fill-rule="evenodd" clip-rule="evenodd" d="M734.5 218.018V229.018H733.5V218.018H734.5Z" fill="black"/>
<path fill-rule="evenodd" clip-rule="evenodd" d="M726.5 218.018V229.018H725.5V218.018H726.5Z" fill="black"/>
<path fill-rule="evenodd" clip-rule="evenodd" d="M730.5 218.018V229.018H729.5V218.018H730.5Z" fill="black"/>
<path fill-rule="evenodd" clip-rule="evenodd" d="M742.5 218.018V229.018H741.5V218.018H742.5Z" fill="black"/>
<path fill-rule="evenodd" clip-rule="evenodd" d="M754.5 218.018V229.018H753.5V218.018H754.5Z" fill="black"/>
<path fill-rule="evenodd" clip-rule="evenodd" d="M746.5 218.018V229.018H745.5V218.018H746.5Z" fill="black"/>
<path fill-rule="evenodd" clip-rule="evenodd" d="M750.5 218.018V229.018H749.5V218.018H750.5Z" fill="black"/>
<path fill-rule="evenodd" clip-rule="evenodd" d="M677 218.009V247.026H675V218.009H677Z" fill="black"/>
<path fill-rule="evenodd" clip-rule="evenodd" d="M681.5 218.018V229.018H680.5V218.018H681.5Z" fill="black"/>
<path fill-rule="evenodd" clip-rule="evenodd" d="M697.5 218.018V232.018H696.5V218.018H697.5Z" fill="black"/>
<path fill-rule="evenodd" clip-rule="evenodd" d="M693.5 218.018V229.018H692.5V218.018H693.5Z" fill="black"/>
<path fill-rule="evenodd" clip-rule="evenodd" d="M685.5 218.018V229.018H684.5V218.018H685.5Z" fill="black"/>
<path fill-rule="evenodd" clip-rule="evenodd" d="M689.5 218.018V229.018H688.5V218.018H689.5Z" fill="black"/>
<path fill-rule="evenodd" clip-rule="evenodd" d="M701.5 218.018V229.018H700.5V218.018H701.5Z" fill="black"/>
<path fill-rule="evenodd" clip-rule="evenodd" d="M713.5 218.018V229.018H712.5V218.018H713.5Z" fill="black"/>
<path fill-rule="evenodd" clip-rule="evenodd" d="M705.5 218.018V229.018H704.5V218.018H705.5Z" fill="black"/>
<path fill-rule="evenodd" clip-rule="evenodd" d="M709.5 218.018V229.018H708.5V218.018H709.5Z" fill="black"/>
<path fill-rule="evenodd" clip-rule="evenodd" d="M635 218.009V247.026H633V218.009H635Z" fill="black"/>
<path fill-rule="evenodd" clip-rule="evenodd" d="M639.5 218.018V229.018H638.5V218.018H639.5Z" fill="black"/>
<path fill-rule="evenodd" clip-rule="evenodd" d="M655.5 218.018V232.018H654.5V218.018H655.5Z" fill="black"/>
<path fill-rule="evenodd" clip-rule="evenodd" d="M651.5 218.018V229.018H650.5V218.018H651.5Z" fill="black"/>
<path fill-rule="evenodd" clip-rule="evenodd" d="M643.5 218.018V229.018H642.5V218.018H643.5Z" fill="black"/>
<path fill-rule="evenodd" clip-rule="evenodd" d="M647.5 218.018V229.018H646.5V218.018H647.5Z" fill="black"/>
<path fill-rule="evenodd" clip-rule="evenodd" d="M659.5 218.018V229.018H658.5V218.018H659.5Z" fill="black"/>
<path fill-rule="evenodd" clip-rule="evenodd" d="M671.5 218.018V229.018H670.5V218.018H671.5Z" fill="black"/>
<path fill-rule="evenodd" clip-rule="evenodd" d="M663.5 218.018V229.018H662.5V218.018H663.5Z" fill="black"/>
<path fill-rule="evenodd" clip-rule="evenodd" d="M667.5 218.018V229.018H666.5V218.018H667.5Z" fill="black"/>
<path fill-rule="evenodd" clip-rule="evenodd" d="M594 218.009V247.026H592V218.009H594Z" fill="black"/>
<path fill-rule="evenodd" clip-rule="evenodd" d="M598.5 218.018V229.018H597.5V218.018H598.5Z" fill="black"/>
<path fill-rule="evenodd" clip-rule="evenodd" d="M614.5 218.018V232.018H613.5V218.018H614.5Z" fill="black"/>
<path fill-rule="evenodd" clip-rule="evenodd" d="M610.5 218.018V229.018H609.5V218.018H610.5Z" fill="black"/>
<path fill-rule="evenodd" clip-rule="evenodd" d="M602.5 218.018V229.018H601.5V218.018H602.5Z" fill="black"/>
<path fill-rule="evenodd" clip-rule="evenodd" d="M606.5 218.018V229.018H605.5V218.018H606.5Z" fill="black"/>
<path fill-rule="evenodd" clip-rule="evenodd" d="M618.5 218.018V229.018H617.5V218.018H618.5Z" fill="black"/>
<path fill-rule="evenodd" clip-rule="evenodd" d="M630.5 218.018V229.018H629.5V218.018H630.5Z" fill="black"/>
<path fill-rule="evenodd" clip-rule="evenodd" d="M622.5 218.018V229.018H621.5V218.018H622.5Z" fill="black"/>
<path fill-rule="evenodd" clip-rule="evenodd" d="M626.5 218.018V229.018H625.5V218.018H626.5Z" fill="black"/>
<path fill-rule="evenodd" clip-rule="evenodd" d="M759 218.009V247.026H757V218.009H759Z" fill="black"/>
<path fill-rule="evenodd" clip-rule="evenodd" d="M763.5 218.018V229.018H762.5V218.018H763.5Z" fill="black"/>
<path fill-rule="evenodd" clip-rule="evenodd" d="M779.5 218.018V232.018H778.5V218.018H779.5Z" fill="black"/>
<path fill-rule="evenodd" clip-rule="evenodd" d="M775.5 218.018V229.018H774.5V218.018H775.5Z" fill="black"/>
<path fill-rule="evenodd" clip-rule="evenodd" d="M767.5 218.018V229.018H766.5V218.018H767.5Z" fill="black"/>
<path fill-rule="evenodd" clip-rule="evenodd" d="M771.5 218.018V229.018H770.5V218.018H771.5Z" fill="black"/>
<path fill-rule="evenodd" clip-rule="evenodd" d="M783.5 218.018V229.018H782.5V218.018H783.5Z" fill="black"/>
<path fill-rule="evenodd" clip-rule="evenodd" d="M795.5 218.018V229.018H794.5V218.018H795.5Z" fill="black"/>
<path fill-rule="evenodd" clip-rule="evenodd" d="M787.5 218.018V229.018H786.5V218.018H787.5Z" fill="black"/>
<path fill-rule="evenodd" clip-rule="evenodd" d="M791.5 218.018V229.018H790.5V218.018H791.5Z" fill="black"/>
<path fill-rule="evenodd" clip-rule="evenodd" d="M800 218.009V247.026H798V218.009H800Z" fill="black"/>
<path fill-rule="evenodd" clip-rule="evenodd" d="M804.5 218.018V229.018H803.5V218.018H804.5Z" fill="black"/>
<path fill-rule="evenodd" clip-rule="evenodd" d="M820.5 218.018V232.018H819.5V218.018H820.5Z" fill="black"/>
<path fill-rule="evenodd" clip-rule="evenodd" d="M816.5 218.018V229.018H815.5V218.018H816.5Z" fill="black"/>
<path fill-rule="evenodd" clip-rule="evenodd" d="M808.5 218.018V229.018H807.5V218.018H808.5Z" fill="black"/>
<path fill-rule="evenodd" clip-rule="evenodd" d="M812.5 218.018V229.018H811.5V218.018H812.5Z" fill="black"/>
<path fill-rule="evenodd" clip-rule="evenodd" d="M824.5 218.018V229.018H823.5V218.018H824.5Z" fill="black"/>
<path fill-rule="evenodd" clip-rule="evenodd" d="M836.5 218.018V229.018H835.5V218.018H836.5Z" fill="black"/>
<path fill-rule="evenodd" clip-rule="evenodd" d="M828.5 218.018V229.018H827.5V218.018H828.5Z" fill="black"/>
<path fill-rule="evenodd" clip-rule="evenodd" d="M832.5 218.018V229.018H831.5V218.018H832.5Z" fill="black"/>
<path d="M552.146 256.836C551.548 256.836 551.006 256.71 550.521 256.459C550.044 256.207 549.672 255.861 549.403 255.419C549.134 254.977 549 254.483 549 253.937V250.921C549 250.366 549.134 249.868 549.403 249.426C549.672 248.984 550.044 248.637 550.521 248.386C551.006 248.134 551.548 248.009 552.146 248.009C552.744 248.009 553.281 248.134 553.758 248.386C554.235 248.637 554.607 248.984 554.876 249.426C555.145 249.868 555.279 250.366 555.279 250.921V253.937C555.279 254.483 555.145 254.977 554.876 255.419C554.607 255.861 554.235 256.207 553.758 256.459C553.281 256.71 552.744 256.836 552.146 256.836ZM552.146 255.419C552.649 255.419 553.043 255.28 553.329 255.003C553.615 254.725 553.758 254.34 553.758 253.846V250.999C553.758 250.513 553.611 250.132 553.316 249.855C553.03 249.569 552.64 249.426 552.146 249.426C551.643 249.426 551.245 249.569 550.95 249.855C550.664 250.132 550.521 250.513 550.521 250.999V253.846C550.521 254.331 550.664 254.717 550.95 255.003C551.245 255.28 551.643 255.419 552.146 255.419Z" fill="black"/>
<path d="M578.763 256.537H577.242V250.115C576.982 250.201 576.657 250.245 576.267 250.245H575.279V248.854H576.202C576.54 248.854 576.796 248.784 576.969 248.646C577.151 248.498 577.242 248.286 577.242 248.009H578.763V256.537Z" fill="black"/>
<path d="M604.574 255.328V256.693H598.867V255.341L601.35 252.884C601.783 252.459 602.104 252.125 602.312 251.883C602.52 251.631 602.663 251.415 602.741 251.233C602.828 251.051 602.871 250.856 602.871 250.648V250.518C602.871 250.171 602.754 249.902 602.52 249.712C602.295 249.512 601.978 249.413 601.571 249.413C601.164 249.413 600.843 249.521 600.609 249.738C600.384 249.946 600.271 250.24 600.271 250.622V250.895H598.763V250.596C598.763 249.79 599.01 249.157 599.504 248.698C600.007 248.238 600.696 248.009 601.571 248.009C602.446 248.009 603.131 248.234 603.625 248.685C604.128 249.127 604.379 249.738 604.379 250.518V250.648C604.379 251.116 604.245 251.579 603.976 252.039C603.707 252.489 603.235 253.048 602.559 253.716L600.934 255.328H604.574Z" fill="black"/>
<path d="M628.318 251.311C629.02 251.389 629.57 251.644 629.969 252.078C630.368 252.502 630.567 253.061 630.567 253.755V254.015C630.567 254.838 630.298 255.492 629.761 255.978C629.224 256.454 628.496 256.693 627.577 256.693C626.632 256.693 625.896 256.472 625.367 256.03C624.838 255.579 624.574 254.955 624.574 254.158V253.898H626.082V254.158C626.082 254.53 626.208 254.812 626.459 255.003C626.719 255.193 627.092 255.289 627.577 255.289C628.045 255.289 628.405 255.18 628.656 254.964C628.916 254.747 629.046 254.439 629.046 254.041V253.781C629.046 253.391 628.912 253.096 628.643 252.897C628.374 252.689 627.993 252.585 627.499 252.585H626.251V251.402L628.435 249.387H624.756V248.009H630.411V249.387L628.318 251.311Z" fill="black"/>
<path d="M657.535 254.769H656.287V256.537H654.779V254.769H650.567V253.352C650.948 252.494 651.26 251.636 651.503 250.778C651.746 249.92 651.936 248.997 652.075 248.009H653.635V248.243C653.375 250.045 652.911 251.748 652.244 253.352H654.779V249.504H656.287V253.352H657.535V254.769Z" fill="black"/>
<path d="M680.655 250.986C681.227 250.986 681.73 251.094 682.163 251.311C682.605 251.519 682.943 251.822 683.177 252.221C683.42 252.611 683.541 253.061 683.541 253.573V253.963C683.541 254.803 683.268 255.471 682.722 255.965C682.185 256.45 681.457 256.693 680.538 256.693C679.602 256.693 678.865 256.48 678.328 256.056C677.799 255.631 677.535 255.042 677.535 254.288V254.158H679.043V254.288C679.043 254.6 679.169 254.847 679.42 255.029C679.68 255.202 680.035 255.289 680.486 255.289C680.971 255.289 681.344 255.18 681.604 254.964C681.873 254.738 682.007 254.418 682.007 254.002V253.612C682.007 253.239 681.868 252.944 681.591 252.728C681.322 252.502 680.954 252.39 680.486 252.39C680.079 252.39 679.745 252.463 679.485 252.611C679.225 252.758 679.073 252.962 679.03 253.222H677.574L677.834 248.009H683.151V249.426H679.199L679.095 251.389C679.528 251.12 680.048 250.986 680.655 250.986Z" fill="black"/>
<path d="M706.817 251.272C707.372 251.272 707.87 251.389 708.312 251.623C708.763 251.848 709.109 252.164 709.352 252.572C709.603 252.97 709.729 253.417 709.729 253.911V254.171C709.729 254.682 709.599 255.141 709.339 255.549C709.088 255.956 708.728 256.277 708.26 256.511C707.801 256.736 707.281 256.849 706.7 256.849C706.093 256.849 705.547 256.727 705.062 256.485C704.585 256.233 704.213 255.891 703.944 255.458C703.675 255.016 703.541 254.517 703.541 253.963V250.986C703.541 250.405 703.671 249.889 703.931 249.439C704.2 248.988 704.568 248.637 705.036 248.386C705.513 248.134 706.059 248.009 706.674 248.009C707.255 248.009 707.77 248.113 708.221 248.321C708.68 248.529 709.04 248.823 709.3 249.205C709.56 249.577 709.69 250.006 709.69 250.492V250.622H708.169V250.492C708.169 250.162 708.026 249.898 707.74 249.699C707.463 249.499 707.107 249.4 706.674 249.4C706.197 249.4 705.807 249.543 705.504 249.829C705.209 250.115 705.062 250.487 705.062 250.947V251.766C705.547 251.436 706.132 251.272 706.817 251.272ZM708.208 253.937C708.208 253.529 708.074 253.217 707.805 253.001C707.545 252.775 707.177 252.663 706.7 252.663C706.319 252.663 705.985 252.723 705.699 252.845C705.422 252.957 705.209 253.126 705.062 253.352V253.937C705.062 254.387 705.214 254.756 705.517 255.042C705.82 255.319 706.215 255.458 706.7 255.458C707.159 255.458 707.523 255.345 707.792 255.12C708.069 254.886 708.208 254.578 708.208 254.197V253.937Z" fill="black"/>
<path d="M540.172 273.198C538.984 273.198 537.922 272.94 536.986 272.424C536.062 271.908 535.342 271.188 534.826 270.264C534.31 269.328 534.052 268.266 534.052 267.078C534.052 265.89 534.31 264.834 534.826 263.91C535.342 262.986 536.062 262.272 536.986 261.768C537.922 261.252 538.984 260.994 540.172 260.994C541.36 260.994 542.416 261.252 543.34 261.768C544.276 262.284 545.002 263.004 545.518 263.928C546.046 264.852 546.31 265.902 546.31 267.078C546.31 268.266 546.046 269.328 545.518 270.264C545.002 271.188 544.276 271.908 543.34 272.424C542.416 272.94 541.36 273.198 540.172 273.198ZM540.172 271.128C540.964 271.128 541.666 270.96 542.278 270.624C542.89 270.276 543.364 269.796 543.7 269.184C544.036 268.572 544.204 267.87 544.204 267.078C544.204 266.286 544.036 265.59 543.7 264.99C543.364 264.378 542.89 263.904 542.278 263.568C541.666 263.232 540.964 263.064 540.172 263.064C539.38 263.064 538.678 263.232 538.066 263.568C537.466 263.904 536.998 264.378 536.662 264.99C536.326 265.59 536.158 266.286 536.158 267.078C536.158 267.882 536.326 268.59 536.662 269.202C536.998 269.814 537.466 270.288 538.066 270.624C538.678 270.96 539.38 271.128 540.172 271.128Z" fill="black"/>
<path d="M663.5 276.256C664.256 276.256 664.922 276.412 665.498 276.724C666.086 277.036 666.536 277.474 666.848 278.038C667.172 278.602 667.334 279.256 667.334 280V280.396C667.334 281.14 667.172 281.794 666.848 282.358C666.536 282.922 666.092 283.36 665.516 283.672C664.94 283.984 664.274 284.14 663.518 284.14C662.762 284.14 662.09 283.984 661.502 283.672C660.914 283.348 660.458 282.904 660.134 282.34C659.81 281.776 659.648 281.128 659.648 280.396V280C659.648 279.268 659.81 278.62 660.134 278.056C660.458 277.492 660.908 277.054 661.484 276.742C662.072 276.418 662.744 276.256 663.5 276.256ZM665.984 279.982C665.984 279.166 665.774 278.548 665.354 278.128C664.934 277.708 664.316 277.498 663.5 277.498C662.708 277.498 662.09 277.714 661.646 278.146C661.214 278.578 660.998 279.19 660.998 279.982V280.396C660.998 281.188 661.214 281.806 661.646 282.25C662.09 282.682 662.708 282.898 663.5 282.898C664.292 282.898 664.904 282.682 665.336 282.25C665.768 281.806 665.984 281.188 665.984 280.396V279.982ZM665.264 279.676C665.264 280.156 665.066 280.51 664.67 280.738L665.336 281.89V281.998H664.076L663.5 280.954H663.086V281.998H661.898V278.362H663.752C664.208 278.362 664.574 278.476 664.85 278.704C665.126 278.932 665.264 279.238 665.264 279.622V279.676ZM663.086 280.036H663.716C663.848 280.036 663.95 280.006 664.022 279.946C664.106 279.886 664.148 279.802 664.148 279.694V279.64C664.148 279.532 664.106 279.448 664.022 279.388C663.95 279.328 663.848 279.298 663.716 279.298H663.086V280.036Z" fill="black"/>
<path d="M301 489H616V577H301V489Z" fill="#EAE4DF"/>
<path d="M322.264 555.256V552.256H333.496V555.256H329.536V568H326.224V555.256H322.264Z" fill="#040405"/>
<path d="M344.652 555.976V556.432L340.044 569.152C339.676 570.176 339.172 570.92 338.532 571.384C337.892 571.848 337.036 572.08 335.964 572.08H333.54V569.176H335.604C335.972 569.176 336.26 569.112 336.468 568.984C336.692 568.856 336.868 568.592 336.996 568.192V568.168L332.46 556.432V555.976H335.796L338.628 564.064L341.316 555.976H344.652Z" fill="#040405"/>
<path d="M352.289 555.664C353.665 555.664 354.769 556.096 355.601 556.96C356.449 557.824 356.873 558.984 356.873 560.44V563.536C356.873 564.976 356.449 566.128 355.601 566.992C354.769 567.856 353.673 568.288 352.313 568.288C351.161 568.288 350.185 568 349.385 567.424V572.08H346.193V555.976H349.025L349.121 556.768C349.985 556.032 351.041 555.664 352.289 555.664ZM353.657 560.752C353.657 560.096 353.465 559.584 353.081 559.216C352.713 558.848 352.201 558.664 351.545 558.664C351.097 558.664 350.681 558.76 350.297 558.952C349.913 559.128 349.609 559.376 349.385 559.696V564.304C349.609 564.624 349.905 564.872 350.273 565.048C350.657 565.224 351.081 565.312 351.545 565.312C352.201 565.312 352.713 565.128 353.081 564.76C353.465 564.392 353.657 563.88 353.657 563.224V560.752Z" fill="#040405"/>
<path d="M361.751 563.008V563.296C361.751 563.984 361.943 564.52 362.327 564.904C362.727 565.272 363.271 565.456 363.959 565.456C364.535 565.456 365.007 565.336 365.375 565.096C365.759 564.856 365.967 564.544 365.999 564.16H369.191C369.111 565.44 368.599 566.448 367.655 567.184C366.711 567.92 365.479 568.288 363.959 568.288C362.327 568.288 361.023 567.84 360.047 566.944C359.071 566.032 358.583 564.816 358.583 563.296V560.68C358.583 559.688 358.799 558.816 359.231 558.064C359.679 557.296 360.303 556.704 361.103 556.288C361.919 555.872 362.855 555.664 363.911 555.664C364.967 555.664 365.895 555.872 366.695 556.288C367.495 556.704 368.111 557.288 368.543 558.04C368.975 558.792 369.191 559.664 369.191 560.656V563.008H361.751ZM363.911 558.52C363.239 558.52 362.711 558.712 362.327 559.096C361.943 559.48 361.751 560.008 361.751 560.68H366.023C366.023 560.008 365.831 559.48 365.447 559.096C365.079 558.712 364.567 558.52 363.911 558.52Z" fill="#040405"/>
<path d="M386.727 568H383.535V558.472L380.463 568H377.631L374.559 558.472V568H371.367V552.256H375.495L379.047 562.96L382.599 552.256H386.727V568Z" fill="#040405"/>
<path d="M400.839 565.096V568H399.255C398.151 568 397.311 567.664 396.735 566.992C395.839 567.856 394.631 568.288 393.111 568.288C391.799 568.288 390.759 567.968 389.991 567.328C389.239 566.688 388.863 565.816 388.863 564.712C388.863 563.736 389.183 562.952 389.823 562.36C390.463 561.768 391.423 561.392 392.703 561.232L396.015 560.8V560.272C395.983 559.152 395.351 558.592 394.119 558.592C393.479 558.592 392.991 558.728 392.655 559C392.335 559.272 392.175 559.664 392.175 560.176V560.344H388.983V560.176C388.983 558.8 389.447 557.704 390.375 556.888C391.303 556.072 392.567 555.664 394.167 555.664C395.767 555.664 397.007 556.072 397.887 556.888C398.767 557.704 399.207 558.864 399.207 560.368V564.256C399.207 564.816 399.487 565.096 400.047 565.096H400.839ZM393.543 565.696C394.071 565.696 394.551 565.592 394.983 565.384C395.415 565.16 395.759 564.856 396.015 564.472V563.08L393.375 563.488C392.927 563.552 392.583 563.688 392.343 563.896C392.119 564.088 392.007 564.336 392.007 564.64C392.007 564.96 392.143 565.216 392.415 565.408C392.703 565.6 393.079 565.696 393.543 565.696Z" fill="#040405"/>
<path d="M406.092 558.856V563.968C406.092 564.72 406.452 565.096 407.172 565.096H408.996V568H406.908C405.612 568 404.62 567.672 403.932 567.016C403.244 566.36 402.9 565.424 402.9 564.208V558.856H400.164V555.976H402.18C402.484 555.976 402.692 555.912 402.804 555.784C402.932 555.656 402.996 555.44 402.996 555.136V552.784H406.092V555.976H409.596V558.856H406.092Z" fill="#040405"/>
<path d="M413.43 563.008V563.296C413.43 563.984 413.622 564.52 414.006 564.904C414.406 565.272 414.95 565.456 415.638 565.456C416.214 565.456 416.686 565.336 417.054 565.096C417.438 564.856 417.646 564.544 417.678 564.16H420.87C420.79 565.44 420.278 566.448 419.334 567.184C418.39 567.92 417.158 568.288 415.638 568.288C414.006 568.288 412.702 567.84 411.726 566.944C410.75 566.032 410.262 564.816 410.262 563.296V560.68C410.262 559.688 410.478 558.816 410.91 558.064C411.358 557.296 411.982 556.704 412.782 556.288C413.598 555.872 414.534 555.664 415.59 555.664C416.646 555.664 417.574 555.872 418.374 556.288C419.174 556.704 419.79 557.288 420.222 558.04C420.654 558.792 420.87 559.664 420.87 560.656V563.008H413.43ZM415.59 558.52C414.918 558.52 414.39 558.712 414.006 559.096C413.622 559.48 413.43 560.008 413.43 560.68H417.702C417.702 560.008 417.51 559.48 417.126 559.096C416.758 558.712 416.246 558.52 415.59 558.52Z" fill="#040405"/>
<path d="M427.846 568.288C426.214 568.288 424.934 567.928 424.006 567.208C423.078 566.488 422.614 565.496 422.614 564.232V563.968H425.71V564.232C425.71 564.696 425.878 565.04 426.214 565.264C426.566 565.472 427.11 565.576 427.846 565.576C428.47 565.576 428.958 565.488 429.31 565.312C429.662 565.136 429.838 564.888 429.838 564.568V564.424C429.838 564.152 429.726 563.936 429.502 563.776C429.294 563.6 428.95 563.472 428.47 563.392L426.598 563.056C425.398 562.832 424.462 562.424 423.79 561.832C423.134 561.24 422.806 560.504 422.806 559.624V559.384C422.806 558.264 423.27 557.368 424.198 556.696C425.142 556.008 426.382 555.664 427.918 555.664C429.486 555.664 430.718 556.024 431.614 556.744C432.51 557.448 432.958 558.424 432.958 559.672V559.936H429.862V559.672C429.862 559.224 429.686 558.896 429.334 558.688C428.998 558.48 428.478 558.376 427.774 558.376C427.182 558.376 426.718 558.456 426.382 558.616C426.062 558.776 425.902 559.008 425.902 559.312V559.456C425.902 559.936 426.35 560.264 427.246 560.44L429.262 560.824C430.478 561.048 431.398 561.456 432.022 562.048C432.662 562.64 432.982 563.384 432.982 564.28V564.52C432.982 565.656 432.51 566.568 431.566 567.256C430.638 567.944 429.398 568.288 427.846 568.288Z" fill="#040405"/>
<path fill-rule="evenodd" clip-rule="evenodd" d="M325.5 489V518.017H323.5V489H325.5Z" fill="black"/>
<path fill-rule="evenodd" clip-rule="evenodd" d="M330 489.009V500.009H329V489.009H330Z" fill="black"/>
<path fill-rule="evenodd" clip-rule="evenodd" d="M346 489.009V503.009H345V489.009H346Z" fill="black"/>
<path fill-rule="evenodd" clip-rule="evenodd" d="M342 489.009V500.009H341V489.009H342Z" fill="black"/>
<path fill-rule="evenodd" clip-rule="evenodd" d="M334 489.009V500.009H333V489.009H334Z" fill="black"/>
<path fill-rule="evenodd" clip-rule="evenodd" d="M338 489.009V500.009H337V489.009H338Z" fill="black"/>
<path fill-rule="evenodd" clip-rule="evenodd" d="M350 489.009V500.009H349V489.009H350Z" fill="black"/>
<path fill-rule="evenodd" clip-rule="evenodd" d="M362 489.009V500.009H361V489.009H362Z" fill="black"/>
<path fill-rule="evenodd" clip-rule="evenodd" d="M354 489.009V500.009H353V489.009H354Z" fill="black"/>
<path fill-rule="evenodd" clip-rule="evenodd" d="M358 489.009V500.009H357V489.009H358Z" fill="black"/>
<path fill-rule="evenodd" clip-rule="evenodd" d="M491 489.009V518.026H489V489.009H491Z" fill="black"/>
<path fill-rule="evenodd" clip-rule="evenodd" d="M495.5 489.018V500.018H494.5V489.018H495.5Z" fill="black"/>
<path fill-rule="evenodd" clip-rule="evenodd" d="M511.5 489.018V503.018H510.5V489.018H511.5Z" fill="black"/>
<path fill-rule="evenodd" clip-rule="evenodd" d="M507.5 489.018V500.018H506.5V489.018H507.5Z" fill="black"/>
<path fill-rule="evenodd" clip-rule="evenodd" d="M499.5 489.018V500.018H498.5V489.018H499.5Z" fill="black"/>
<path fill-rule="evenodd" clip-rule="evenodd" d="M503.5 489.018V500.018H502.5V489.018H503.5Z" fill="black"/>
<path fill-rule="evenodd" clip-rule="evenodd" d="M515.5 489.018V500.018H514.5V489.018H515.5Z" fill="black"/>
<path fill-rule="evenodd" clip-rule="evenodd" d="M527.5 489.018V500.018H526.5V489.018H527.5Z" fill="black"/>
<path fill-rule="evenodd" clip-rule="evenodd" d="M519.5 489.018V500.018H518.5V489.018H519.5Z" fill="black"/>
<path fill-rule="evenodd" clip-rule="evenodd" d="M523.5 489.018V500.018H522.5V489.018H523.5Z" fill="black"/>
<path fill-rule="evenodd" clip-rule="evenodd" d="M450 489.009V518.026H448V489.009H450Z" fill="black"/>
<path fill-rule="evenodd" clip-rule="evenodd" d="M454.5 489.018V500.018H453.5V489.018H454.5Z" fill="black"/>
<path fill-rule="evenodd" clip-rule="evenodd" d="M470.5 489.018V503.018H469.5V489.018H470.5Z" fill="black"/>
<path fill-rule="evenodd" clip-rule="evenodd" d="M466.5 489.018V500.018H465.5V489.018H466.5Z" fill="black"/>
<path fill-rule="evenodd" clip-rule="evenodd" d="M458.5 489.018V500.018H457.5V489.018H458.5Z" fill="black"/>
<path fill-rule="evenodd" clip-rule="evenodd" d="M462.5 489.018V500.018H461.5V489.018H462.5Z" fill="black"/>
<path fill-rule="evenodd" clip-rule="evenodd" d="M474.5 489.018V500.018H473.5V489.018H474.5Z" fill="black"/>
<path fill-rule="evenodd" clip-rule="evenodd" d="M486.5 489.018V500.018H485.5V489.018H486.5Z" fill="black"/>
<path fill-rule="evenodd" clip-rule="evenodd" d="M478.5 489.018V500.018H477.5V489.018H478.5Z" fill="black"/>
<path fill-rule="evenodd" clip-rule="evenodd" d="M482.5 489.018V500.018H481.5V489.018H482.5Z" fill="black"/>
<path fill-rule="evenodd" clip-rule="evenodd" d="M408 489.009V518.026H406V489.009H408Z" fill="black"/>
<path fill-rule="evenodd" clip-rule="evenodd" d="M412.5 489.018V500.018H411.5V489.018H412.5Z" fill="black"/>
<path fill-rule="evenodd" clip-rule="evenodd" d="M428.5 489.018V503.018H427.5V489.018H428.5Z" fill="black"/>
<path fill-rule="evenodd" clip-rule="evenodd" d="M424.5 489.018V500.018H423.5V489.018H424.5Z" fill="black"/>
<path fill-rule="evenodd" clip-rule="evenodd" d="M416.5 489.018V500.018H415.5V489.018H416.5Z" fill="black"/>
<path fill-rule="evenodd" clip-rule="evenodd" d="M420.5 489.018V500.018H419.5V489.018H420.5Z" fill="black"/>
<path fill-rule="evenodd" clip-rule="evenodd" d="M432.5 489.018V500.018H431.5V489.018H432.5Z" fill="black"/>
<path fill-rule="evenodd" clip-rule="evenodd" d="M444.5 489.018V500.018H443.5V489.018H444.5Z" fill="black"/>
<path fill-rule="evenodd" clip-rule="evenodd" d="M436.5 489.018V500.018H435.5V489.018H436.5Z" fill="black"/>
<path fill-rule="evenodd" clip-rule="evenodd" d="M440.5 489.018V500.018H439.5V489.018H440.5Z" fill="black"/>
<path fill-rule="evenodd" clip-rule="evenodd" d="M367 489.009V518.026H365V489.009H367Z" fill="black"/>
<path fill-rule="evenodd" clip-rule="evenodd" d="M371.5 489.018V500.018H370.5V489.018H371.5Z" fill="black"/>
<path fill-rule="evenodd" clip-rule="evenodd" d="M387.5 489.018V503.018H386.5V489.018H387.5Z" fill="black"/>
<path fill-rule="evenodd" clip-rule="evenodd" d="M383.5 489.018V500.018H382.5V489.018H383.5Z" fill="black"/>
<path fill-rule="evenodd" clip-rule="evenodd" d="M375.5 489.018V500.018H374.5V489.018H375.5Z" fill="black"/>
<path fill-rule="evenodd" clip-rule="evenodd" d="M379.5 489.018V500.018H378.5V489.018H379.5Z" fill="black"/>
<path fill-rule="evenodd" clip-rule="evenodd" d="M391.5 489.018V500.018H390.5V489.018H391.5Z" fill="black"/>
<path fill-rule="evenodd" clip-rule="evenodd" d="M403.5 489.018V500.018H402.5V489.018H403.5Z" fill="black"/>
<path fill-rule="evenodd" clip-rule="evenodd" d="M395.5 489.018V500.018H394.5V489.018H395.5Z" fill="black"/>
<path fill-rule="evenodd" clip-rule="evenodd" d="M399.5 489.018V500.018H398.5V489.018H399.5Z" fill="black"/>
<path fill-rule="evenodd" clip-rule="evenodd" d="M532 489.009V518.026H530V489.009H532Z" fill="black"/>
<path fill-rule="evenodd" clip-rule="evenodd" d="M536.5 489.018V500.018H535.5V489.018H536.5Z" fill="black"/>
<path fill-rule="evenodd" clip-rule="evenodd" d="M552.5 489.018V503.018H551.5V489.018H552.5Z" fill="black"/>
<path fill-rule="evenodd" clip-rule="evenodd" d="M548.5 489.018V500.018H547.5V489.018H548.5Z" fill="black"/>
<path fill-rule="evenodd" clip-rule="evenodd" d="M540.5 489.018V500.018H539.5V489.018H540.5Z" fill="black"/>
<path fill-rule="evenodd" clip-rule="evenodd" d="M544.5 489.018V500.018H543.5V489.018H544.5Z" fill="black"/>
<path fill-rule="evenodd" clip-rule="evenodd" d="M556.5 489.018V500.018H555.5V489.018H556.5Z" fill="black"/>
<path fill-rule="evenodd" clip-rule="evenodd" d="M568.5 489.018V500.018H567.5V489.018H568.5Z" fill="black"/>
<path fill-rule="evenodd" clip-rule="evenodd" d="M560.5 489.018V500.018H559.5V489.018H560.5Z" fill="black"/>
<path fill-rule="evenodd" clip-rule="evenodd" d="M564.5 489.018V500.018H563.5V489.018H564.5Z" fill="black"/>
<path fill-rule="evenodd" clip-rule="evenodd" d="M573 489.009V518.026H571V489.009H573Z" fill="black"/>
<path fill-rule="evenodd" clip-rule="evenodd" d="M577.5 489.018V500.018H576.5V489.018H577.5Z" fill="black"/>
<path fill-rule="evenodd" clip-rule="evenodd" d="M593.5 489.018V503.018H592.5V489.018H593.5Z" fill="black"/>
<path fill-rule="evenodd" clip-rule="evenodd" d="M589.5 489.018V500.018H588.5V489.018H589.5Z" fill="black"/>
<path fill-rule="evenodd" clip-rule="evenodd" d="M581.5 489.018V500.018H580.5V489.018H581.5Z" fill="black"/>
<path fill-rule="evenodd" clip-rule="evenodd" d="M585.5 489.018V500.018H584.5V489.018H585.5Z" fill="black"/>
<path fill-rule="evenodd" clip-rule="evenodd" d="M597.5 489.018V500.018H596.5V489.018H597.5Z" fill="black"/>
<path fill-rule="evenodd" clip-rule="evenodd" d="M609.5 489.018V500.018H608.5V489.018H609.5Z" fill="black"/>
<path fill-rule="evenodd" clip-rule="evenodd" d="M601.5 489.018V500.018H600.5V489.018H601.5Z" fill="black"/>
<path fill-rule="evenodd" clip-rule="evenodd" d="M605.5 489.018V500.018H604.5V489.018H605.5Z" fill="black"/>
<path d="M325.146 527.836C324.548 527.836 324.006 527.71 323.521 527.459C323.044 527.207 322.672 526.861 322.403 526.419C322.134 525.977 322 525.483 322 524.937V521.921C322 521.366 322.134 520.868 322.403 520.426C322.672 519.984 323.044 519.637 323.521 519.386C324.006 519.134 324.548 519.009 325.146 519.009C325.744 519.009 326.281 519.134 326.758 519.386C327.235 519.637 327.607 519.984 327.876 520.426C328.145 520.868 328.279 521.366 328.279 521.921V524.937C328.279 525.483 328.145 525.977 327.876 526.419C327.607 526.861 327.235 527.207 326.758 527.459C326.281 527.71 325.744 527.836 325.146 527.836ZM325.146 526.419C325.649 526.419 326.043 526.28 326.329 526.003C326.615 525.725 326.758 525.34 326.758 524.846V521.999C326.758 521.513 326.611 521.132 326.316 520.855C326.03 520.569 325.64 520.426 325.146 520.426C324.643 520.426 324.245 520.569 323.95 520.855C323.664 521.132 323.521 521.513 323.521 521.999V524.846C323.521 525.331 323.664 525.717 323.95 526.003C324.245 526.28 324.643 526.419 325.146 526.419Z" fill="black"/>
<path d="M351.763 527.537H350.242V521.115C349.982 521.201 349.657 521.245 349.267 521.245H348.279V519.854H349.202C349.54 519.854 349.796 519.784 349.969 519.646C350.151 519.498 350.242 519.286 350.242 519.009H351.763V527.537Z" fill="black"/>
<path d="M377.574 526.328V527.693H371.867V526.341L374.35 523.884C374.783 523.459 375.104 523.125 375.312 522.883C375.52 522.631 375.663 522.415 375.741 522.233C375.828 522.051 375.871 521.856 375.871 521.648V521.518C375.871 521.171 375.754 520.902 375.52 520.712C375.295 520.512 374.978 520.413 374.571 520.413C374.164 520.413 373.843 520.521 373.609 520.738C373.384 520.946 373.271 521.24 373.271 521.622V521.895H371.763V521.596C371.763 520.79 372.01 520.157 372.504 519.698C373.007 519.238 373.696 519.009 374.571 519.009C375.446 519.009 376.131 519.234 376.625 519.685C377.128 520.127 377.379 520.738 377.379 521.518V521.648C377.379 522.116 377.245 522.579 376.976 523.039C376.707 523.489 376.235 524.048 375.559 524.716L373.934 526.328H377.574Z" fill="black"/>
<path d="M401.318 522.311C402.02 522.389 402.57 522.644 402.969 523.078C403.368 523.502 403.567 524.061 403.567 524.755V525.015C403.567 525.838 403.298 526.492 402.761 526.978C402.224 527.454 401.496 527.693 400.577 527.693C399.632 527.693 398.896 527.472 398.367 527.03C397.838 526.579 397.574 525.955 397.574 525.158V524.898H399.082V525.158C399.082 525.53 399.208 525.812 399.459 526.003C399.719 526.193 400.092 526.289 400.577 526.289C401.045 526.289 401.405 526.18 401.656 525.964C401.916 525.747 402.046 525.439 402.046 525.041V524.781C402.046 524.391 401.912 524.096 401.643 523.897C401.374 523.689 400.993 523.585 400.499 523.585H399.251V522.402L401.435 520.387H397.756V519.009H403.411V520.387L401.318 522.311Z" fill="black"/>
<path d="M430.535 525.769H429.287V527.537H427.779V525.769H423.567V524.352C423.948 523.494 424.26 522.636 424.503 521.778C424.746 520.92 424.936 519.997 425.075 519.009H426.635V519.243C426.375 521.045 425.911 522.748 425.244 524.352H427.779V520.504H429.287V524.352H430.535V525.769Z" fill="black"/>
<path d="M453.655 521.986C454.227 521.986 454.73 522.094 455.163 522.311C455.605 522.519 455.943 522.822 456.177 523.221C456.42 523.611 456.541 524.061 456.541 524.573V524.963C456.541 525.803 456.268 526.471 455.722 526.965C455.185 527.45 454.457 527.693 453.538 527.693C452.602 527.693 451.865 527.48 451.328 527.056C450.799 526.631 450.535 526.042 450.535 525.288V525.158H452.043V525.288C452.043 525.6 452.169 525.847 452.42 526.029C452.68 526.202 453.035 526.289 453.486 526.289C453.971 526.289 454.344 526.18 454.604 525.964C454.873 525.738 455.007 525.418 455.007 525.002V524.612C455.007 524.239 454.868 523.944 454.591 523.728C454.322 523.502 453.954 523.39 453.486 523.39C453.079 523.39 452.745 523.463 452.485 523.611C452.225 523.758 452.073 523.962 452.03 524.222H450.574L450.834 519.009H456.151V520.426H452.199L452.095 522.389C452.528 522.12 453.048 521.986 453.655 521.986Z" fill="black"/>
<path d="M479.817 522.272C480.372 522.272 480.87 522.389 481.312 522.623C481.763 522.848 482.109 523.164 482.352 523.572C482.603 523.97 482.729 524.417 482.729 524.911V525.171C482.729 525.682 482.599 526.141 482.339 526.549C482.088 526.956 481.728 527.277 481.26 527.511C480.801 527.736 480.281 527.849 479.7 527.849C479.093 527.849 478.547 527.727 478.062 527.485C477.585 527.233 477.213 526.891 476.944 526.458C476.675 526.016 476.541 525.517 476.541 524.963V521.986C476.541 521.405 476.671 520.889 476.931 520.439C477.2 519.988 477.568 519.637 478.036 519.386C478.513 519.134 479.059 519.009 479.674 519.009C480.255 519.009 480.77 519.113 481.221 519.321C481.68 519.529 482.04 519.823 482.3 520.205C482.56 520.577 482.69 521.006 482.69 521.492V521.622H481.169V521.492C481.169 521.162 481.026 520.898 480.74 520.699C480.463 520.499 480.107 520.4 479.674 520.4C479.197 520.4 478.807 520.543 478.504 520.829C478.209 521.115 478.062 521.487 478.062 521.947V522.766C478.547 522.436 479.132 522.272 479.817 522.272ZM481.208 524.937C481.208 524.529 481.074 524.217 480.805 524.001C480.545 523.775 480.177 523.663 479.7 523.663C479.319 523.663 478.985 523.723 478.699 523.845C478.422 523.957 478.209 524.126 478.062 524.352V524.937C478.062 525.387 478.214 525.756 478.517 526.042C478.82 526.319 479.215 526.458 479.7 526.458C480.159 526.458 480.523 526.345 480.792 526.12C481.069 525.886 481.208 525.578 481.208 525.197V524.937Z" fill="black"/>
<path d="M313.172 544.198C311.984 544.198 310.922 543.94 309.986 543.424C309.062 542.908 308.342 542.188 307.826 541.264C307.31 540.328 307.052 539.266 307.052 538.078C307.052 536.89 307.31 535.834 307.826 534.91C308.342 533.986 309.062 533.272 309.986 532.768C310.922 532.252 311.984 531.994 313.172 531.994C314.36 531.994 315.416 532.252 316.34 532.768C317.276 533.284 318.002 534.004 318.518 534.928C319.046 535.852 319.31 536.902 319.31 538.078C319.31 539.266 319.046 540.328 318.518 541.264C318.002 542.188 317.276 542.908 316.34 543.424C315.416 543.94 314.36 544.198 313.172 544.198ZM313.172 542.128C313.964 542.128 314.666 541.96 315.278 541.624C315.89 541.276 316.364 540.796 316.7 540.184C317.036 539.572 317.204 538.87 317.204 538.078C317.204 537.286 317.036 536.59 316.7 535.99C316.364 535.378 315.89 534.904 315.278 534.568C314.666 534.232 313.964 534.064 313.172 534.064C312.38 534.064 311.678 534.232 311.066 534.568C310.466 534.904 309.998 535.378 309.662 535.99C309.326 536.59 309.158 537.286 309.158 538.078C309.158 538.882 309.326 539.59 309.662 540.202C309.998 540.814 310.466 541.288 311.066 541.624C311.678 541.96 312.38 542.128 313.172 542.128Z" fill="black"/>
<path d="M436.5 547.256C437.256 547.256 437.922 547.412 438.498 547.724C439.086 548.036 439.536 548.474 439.848 549.038C440.172 549.602 440.334 550.256 440.334 551V551.396C440.334 552.14 440.172 552.794 439.848 553.358C439.536 553.922 439.092 554.36 438.516 554.672C437.94 554.984 437.274 555.14 436.518 555.14C435.762 555.14 435.09 554.984 434.502 554.672C433.914 554.348 433.458 553.904 433.134 553.34C432.81 552.776 432.648 552.128 432.648 551.396V551C432.648 550.268 432.81 549.62 433.134 549.056C433.458 548.492 433.908 548.054 434.484 547.742C435.072 547.418 435.744 547.256 436.5 547.256ZM438.984 550.982C438.984 550.166 438.774 549.548 438.354 549.128C437.934 548.708 437.316 548.498 436.5 548.498C435.708 548.498 435.09 548.714 434.646 549.146C434.214 549.578 433.998 550.19 433.998 550.982V551.396C433.998 552.188 434.214 552.806 434.646 553.25C435.09 553.682 435.708 553.898 436.5 553.898C437.292 553.898 437.904 553.682 438.336 553.25C438.768 552.806 438.984 552.188 438.984 551.396V550.982ZM438.264 550.676C438.264 551.156 438.066 551.51 437.67 551.738L438.336 552.89V552.998H437.076L436.5 551.954H436.086V552.998H434.898V549.362H436.752C437.208 549.362 437.574 549.476 437.85 549.704C438.126 549.932 438.264 550.238 438.264 550.622V550.676ZM436.086 551.036H436.716C436.848 551.036 436.95 551.006 437.022 550.946C437.106 550.886 437.148 550.802 437.148 550.694V550.64C437.148 550.532 437.106 550.448 437.022 550.388C436.95 550.328 436.848 550.298 436.716 550.298H436.086V551.036Z" fill="black"/>
<path d="M822 468H1137V556H822V468Z" fill="#EAE4DF"/>
<path d="M843.264 534.256V531.256H854.496V534.256H850.536V547H847.224V534.256H843.264Z" fill="#040405"/>
<path d="M865.652 534.976V535.432L861.044 548.152C860.676 549.176 860.172 549.92 859.532 550.384C858.892 550.848 858.036 551.08 856.964 551.08H854.54V548.176H856.604C856.972 548.176 857.26 548.112 857.468 547.984C857.692 547.856 857.868 547.592 857.996 547.192V547.168L853.46 535.432V534.976H856.796L859.628 543.064L862.316 534.976H865.652Z" fill="#040405"/>
<path d="M873.289 534.664C874.665 534.664 875.769 535.096 876.601 535.96C877.449 536.824 877.873 537.984 877.873 539.44V542.536C877.873 543.976 877.449 545.128 876.601 545.992C875.769 546.856 874.673 547.288 873.313 547.288C872.161 547.288 871.185 547 870.385 546.424V551.08H867.193V534.976H870.025L870.121 535.768C870.985 535.032 872.041 534.664 873.289 534.664ZM874.657 539.752C874.657 539.096 874.465 538.584 874.081 538.216C873.713 537.848 873.201 537.664 872.545 537.664C872.097 537.664 871.681 537.76 871.297 537.952C870.913 538.128 870.609 538.376 870.385 538.696V543.304C870.609 543.624 870.905 543.872 871.273 544.048C871.657 544.224 872.081 544.312 872.545 544.312C873.201 544.312 873.713 544.128 874.081 543.76C874.465 543.392 874.657 542.88 874.657 542.224V539.752Z" fill="#040405"/>
<path d="M882.751 542.008V542.296C882.751 542.984 882.943 543.52 883.327 543.904C883.727 544.272 884.271 544.456 884.959 544.456C885.535 544.456 886.007 544.336 886.375 544.096C886.759 543.856 886.967 543.544 886.999 543.16H890.191C890.111 544.44 889.599 545.448 888.655 546.184C887.711 546.92 886.479 547.288 884.959 547.288C883.327 547.288 882.023 546.84 881.047 545.944C880.071 545.032 879.583 543.816 879.583 542.296V539.68C879.583 538.688 879.799 537.816 880.231 537.064C880.679 536.296 881.303 535.704 882.103 535.288C882.919 534.872 883.855 534.664 884.911 534.664C885.967 534.664 886.895 534.872 887.695 535.288C888.495 535.704 889.111 536.288 889.543 537.04C889.975 537.792 890.191 538.664 890.191 539.656V542.008H882.751ZM884.911 537.52C884.239 537.52 883.711 537.712 883.327 538.096C882.943 538.48 882.751 539.008 882.751 539.68H887.023C887.023 539.008 886.831 538.48 886.447 538.096C886.079 537.712 885.567 537.52 884.911 537.52Z" fill="#040405"/>
<path d="M907.727 547H904.535V537.472L901.463 547H898.631L895.559 537.472V547H892.367V531.256H896.495L900.047 541.96L903.599 531.256H907.727V547Z" fill="#040405"/>
<path d="M921.839 544.096V547H920.255C919.151 547 918.311 546.664 917.735 545.992C916.839 546.856 915.631 547.288 914.111 547.288C912.799 547.288 911.759 546.968 910.991 546.328C910.239 545.688 909.863 544.816 909.863 543.712C909.863 542.736 910.183 541.952 910.823 541.36C911.463 540.768 912.423 540.392 913.703 540.232L917.015 539.8V539.272C916.983 538.152 916.351 537.592 915.119 537.592C914.479 537.592 913.991 537.728 913.655 538C913.335 538.272 913.175 538.664 913.175 539.176V539.344H909.983V539.176C909.983 537.8 910.447 536.704 911.375 535.888C912.303 535.072 913.567 534.664 915.167 534.664C916.767 534.664 918.007 535.072 918.887 535.888C919.767 536.704 920.207 537.864 920.207 539.368V543.256C920.207 543.816 920.487 544.096 921.047 544.096H921.839ZM914.543 544.696C915.071 544.696 915.551 544.592 915.983 544.384C916.415 544.16 916.759 543.856 917.015 543.472V542.08L914.375 542.488C913.927 542.552 913.583 542.688 913.343 542.896C913.119 543.088 913.007 543.336 913.007 543.64C913.007 543.96 913.143 544.216 913.415 544.408C913.703 544.6 914.079 544.696 914.543 544.696Z" fill="#040405"/>
<path d="M927.092 537.856V542.968C927.092 543.72 927.452 544.096 928.172 544.096H929.996V547H927.908C926.612 547 925.62 546.672 924.932 546.016C924.244 545.36 923.9 544.424 923.9 543.208V537.856H921.164V534.976H923.18C923.484 534.976 923.692 534.912 923.804 534.784C923.932 534.656 923.996 534.44 923.996 534.136V531.784H927.092V534.976H930.596V537.856H927.092Z" fill="#040405"/>
<path d="M934.43 542.008V542.296C934.43 542.984 934.622 543.52 935.006 543.904C935.406 544.272 935.95 544.456 936.638 544.456C937.214 544.456 937.686 544.336 938.054 544.096C938.438 543.856 938.646 543.544 938.678 543.16H941.87C941.79 544.44 941.278 545.448 940.334 546.184C939.39 546.92 938.158 547.288 936.638 547.288C935.006 547.288 933.702 546.84 932.726 545.944C931.75 545.032 931.262 543.816 931.262 542.296V539.68C931.262 538.688 931.478 537.816 931.91 537.064C932.358 536.296 932.982 535.704 933.782 535.288C934.598 534.872 935.534 534.664 936.59 534.664C937.646 534.664 938.574 534.872 939.374 535.288C940.174 535.704 940.79 536.288 941.222 537.04C941.654 537.792 941.87 538.664 941.87 539.656V542.008H934.43ZM936.59 537.52C935.918 537.52 935.39 537.712 935.006 538.096C934.622 538.48 934.43 539.008 934.43 539.68H938.702C938.702 539.008 938.51 538.48 938.126 538.096C937.758 537.712 937.246 537.52 936.59 537.52Z" fill="#040405"/>
<path d="M948.846 547.288C947.214 547.288 945.934 546.928 945.006 546.208C944.078 545.488 943.614 544.496 943.614 543.232V542.968H946.71V543.232C946.71 543.696 946.878 544.04 947.214 544.264C947.566 544.472 948.11 544.576 948.846 544.576C949.47 544.576 949.958 544.488 950.31 544.312C950.662 544.136 950.838 543.888 950.838 543.568V543.424C950.838 543.152 950.726 542.936 950.502 542.776C950.294 542.6 949.95 542.472 949.47 542.392L947.598 542.056C946.398 541.832 945.462 541.424 944.79 540.832C944.134 540.24 943.806 539.504 943.806 538.624V538.384C943.806 537.264 944.27 536.368 945.198 535.696C946.142 535.008 947.382 534.664 948.918 534.664C950.486 534.664 951.718 535.024 952.614 535.744C953.51 536.448 953.958 537.424 953.958 538.672V538.936H950.862V538.672C950.862 538.224 950.686 537.896 950.334 537.688C949.998 537.48 949.478 537.376 948.774 537.376C948.182 537.376 947.718 537.456 947.382 537.616C947.062 537.776 946.902 538.008 946.902 538.312V538.456C946.902 538.936 947.35 539.264 948.246 539.44L950.262 539.824C951.478 540.048 952.398 540.456 953.022 541.048C953.662 541.64 953.982 542.384 953.982 543.28V543.52C953.982 544.656 953.51 545.568 952.566 546.256C951.638 546.944 950.398 547.288 948.846 547.288Z" fill="#040405"/>
<path fill-rule="evenodd" clip-rule="evenodd" d="M846.5 468V497.017H844.5V468H846.5Z" fill="black"/>
<path fill-rule="evenodd" clip-rule="evenodd" d="M851 468.009V479.009H850V468.009H851Z" fill="black"/>
<path fill-rule="evenodd" clip-rule="evenodd" d="M867 468.009V482.009H866V468.009H867Z" fill="black"/>
<path fill-rule="evenodd" clip-rule="evenodd" d="M863 468.009V479.009H862V468.009H863Z" fill="black"/>
<path fill-rule="evenodd" clip-rule="evenodd" d="M855 468.009V479.009H854V468.009H855Z" fill="black"/>
<path fill-rule="evenodd" clip-rule="evenodd" d="M859 468.009V479.009H858V468.009H859Z" fill="black"/>
<path fill-rule="evenodd" clip-rule="evenodd" d="M871 468.009V479.009H870V468.009H871Z" fill="black"/>
<path fill-rule="evenodd" clip-rule="evenodd" d="M883 468.009V479.009H882V468.009H883Z" fill="black"/>
<path fill-rule="evenodd" clip-rule="evenodd" d="M875 468.009V479.009H874V468.009H875Z" fill="black"/>
<path fill-rule="evenodd" clip-rule="evenodd" d="M879 468.009V479.009H878V468.009H879Z" fill="black"/>
<path fill-rule="evenodd" clip-rule="evenodd" d="M1012 468.009V497.026H1010V468.009H1012Z" fill="black"/>
<path fill-rule="evenodd" clip-rule="evenodd" d="M1016.5 468.018V479.018H1015.5V468.018H1016.5Z" fill="black"/>
<path fill-rule="evenodd" clip-rule="evenodd" d="M1032.5 468.018V482.018H1031.5V468.018H1032.5Z" fill="black"/>
<path fill-rule="evenodd" clip-rule="evenodd" d="M1028.5 468.018V479.018H1027.5V468.018H1028.5Z" fill="black"/>
<path fill-rule="evenodd" clip-rule="evenodd" d="M1020.5 468.018V479.018H1019.5V468.018H1020.5Z" fill="black"/>
<path fill-rule="evenodd" clip-rule="evenodd" d="M1024.5 468.018V479.018H1023.5V468.018H1024.5Z" fill="black"/>
<path fill-rule="evenodd" clip-rule="evenodd" d="M1036.5 468.018V479.018H1035.5V468.018H1036.5Z" fill="black"/>
<path fill-rule="evenodd" clip-rule="evenodd" d="M1048.5 468.018V479.018H1047.5V468.018H1048.5Z" fill="black"/>
<path fill-rule="evenodd" clip-rule="evenodd" d="M1040.5 468.018V479.018H1039.5V468.018H1040.5Z" fill="black"/>
<path fill-rule="evenodd" clip-rule="evenodd" d="M1044.5 468.018V479.018H1043.5V468.018H1044.5Z" fill="black"/>
<path fill-rule="evenodd" clip-rule="evenodd" d="M971 468.009V497.026H969V468.009H971Z" fill="black"/>
<path fill-rule="evenodd" clip-rule="evenodd" d="M975.5 468.018V479.018H974.5V468.018H975.5Z" fill="black"/>
<path fill-rule="evenodd" clip-rule="evenodd" d="M991.5 468.018V482.018H990.5V468.018H991.5Z" fill="black"/>
<path fill-rule="evenodd" clip-rule="evenodd" d="M987.5 468.018V479.018H986.5V468.018H987.5Z" fill="black"/>
<path fill-rule="evenodd" clip-rule="evenodd" d="M979.5 468.018V479.018H978.5V468.018H979.5Z" fill="black"/>
<path fill-rule="evenodd" clip-rule="evenodd" d="M983.5 468.018V479.018H982.5V468.018H983.5Z" fill="black"/>
<path fill-rule="evenodd" clip-rule="evenodd" d="M995.5 468.018V479.018H994.5V468.018H995.5Z" fill="black"/>
<path fill-rule="evenodd" clip-rule="evenodd" d="M1007.5 468.018V479.018H1006.5V468.018H1007.5Z" fill="black"/>
<path fill-rule="evenodd" clip-rule="evenodd" d="M999.5 468.018V479.018H998.5V468.018H999.5Z" fill="black"/>
<path fill-rule="evenodd" clip-rule="evenodd" d="M1003.5 468.018V479.018H1002.5V468.018H1003.5Z" fill="black"/>
<path fill-rule="evenodd" clip-rule="evenodd" d="M929 468.009V497.026H927V468.009H929Z" fill="black"/>
<path fill-rule="evenodd" clip-rule="evenodd" d="M933.5 468.018V479.018H932.5V468.018H933.5Z" fill="black"/>
<path fill-rule="evenodd" clip-rule="evenodd" d="M949.5 468.018V482.018H948.5V468.018H949.5Z" fill="black"/>
<path fill-rule="evenodd" clip-rule="evenodd" d="M945.5 468.018V479.018H944.5V468.018H945.5Z" fill="black"/>
<path fill-rule="evenodd" clip-rule="evenodd" d="M937.5 468.018V479.018H936.5V468.018H937.5Z" fill="black"/>
<path fill-rule="evenodd" clip-rule="evenodd" d="M941.5 468.018V479.018H940.5V468.018H941.5Z" fill="black"/>
<path fill-rule="evenodd" clip-rule="evenodd" d="M953.5 468.018V479.018H952.5V468.018H953.5Z" fill="black"/>
<path fill-rule="evenodd" clip-rule="evenodd" d="M965.5 468.018V479.018H964.5V468.018H965.5Z" fill="black"/>
<path fill-rule="evenodd" clip-rule="evenodd" d="M957.5 468.018V479.018H956.5V468.018H957.5Z" fill="black"/>
<path fill-rule="evenodd" clip-rule="evenodd" d="M961.5 468.018V479.018H960.5V468.018H961.5Z" fill="black"/>
<path fill-rule="evenodd" clip-rule="evenodd" d="M888 468.009V497.026H886V468.009H888Z" fill="black"/>
<path fill-rule="evenodd" clip-rule="evenodd" d="M892.5 468.018V479.018H891.5V468.018H892.5Z" fill="black"/>
<path fill-rule="evenodd" clip-rule="evenodd" d="M908.5 468.018V482.018H907.5V468.018H908.5Z" fill="black"/>
<path fill-rule="evenodd" clip-rule="evenodd" d="M904.5 468.018V479.018H903.5V468.018H904.5Z" fill="black"/>
<path fill-rule="evenodd" clip-rule="evenodd" d="M896.5 468.018V479.018H895.5V468.018H896.5Z" fill="black"/>
<path fill-rule="evenodd" clip-rule="evenodd" d="M900.5 468.018V479.018H899.5V468.018H900.5Z" fill="black"/>
<path fill-rule="evenodd" clip-rule="evenodd" d="M912.5 468.018V479.018H911.5V468.018H912.5Z" fill="black"/>
<path fill-rule="evenodd" clip-rule="evenodd" d="M924.5 468.018V479.018H923.5V468.018H924.5Z" fill="black"/>
<path fill-rule="evenodd" clip-rule="evenodd" d="M916.5 468.018V479.018H915.5V468.018H916.5Z" fill="black"/>
<path fill-rule="evenodd" clip-rule="evenodd" d="M920.5 468.018V479.018H919.5V468.018H920.5Z" fill="black"/>
<path fill-rule="evenodd" clip-rule="evenodd" d="M1053 468.009V497.026H1051V468.009H1053Z" fill="black"/>
<path fill-rule="evenodd" clip-rule="evenodd" d="M1057.5 468.018V479.018H1056.5V468.018H1057.5Z" fill="black"/>
<path fill-rule="evenodd" clip-rule="evenodd" d="M1073.5 468.018V482.018H1072.5V468.018H1073.5Z" fill="black"/>
<path fill-rule="evenodd" clip-rule="evenodd" d="M1069.5 468.018V479.018H1068.5V468.018H1069.5Z" fill="black"/>
<path fill-rule="evenodd" clip-rule="evenodd" d="M1061.5 468.018V479.018H1060.5V468.018H1061.5Z" fill="black"/>
<path fill-rule="evenodd" clip-rule="evenodd" d="M1065.5 468.018V479.018H1064.5V468.018H1065.5Z" fill="black"/>
<path fill-rule="evenodd" clip-rule="evenodd" d="M1077.5 468.018V479.018H1076.5V468.018H1077.5Z" fill="black"/>
<path fill-rule="evenodd" clip-rule="evenodd" d="M1089.5 468.018V479.018H1088.5V468.018H1089.5Z" fill="black"/>
<path fill-rule="evenodd" clip-rule="evenodd" d="M1081.5 468.018V479.018H1080.5V468.018H1081.5Z" fill="black"/>
<path fill-rule="evenodd" clip-rule="evenodd" d="M1085.5 468.018V479.018H1084.5V468.018H1085.5Z" fill="black"/>
<path fill-rule="evenodd" clip-rule="evenodd" d="M1094 468.009V497.026H1092V468.009H1094Z" fill="black"/>
<path fill-rule="evenodd" clip-rule="evenodd" d="M1098.5 468.018V479.018H1097.5V468.018H1098.5Z" fill="black"/>
<path fill-rule="evenodd" clip-rule="evenodd" d="M1114.5 468.018V482.018H1113.5V468.018H1114.5Z" fill="black"/>
<path fill-rule="evenodd" clip-rule="evenodd" d="M1110.5 468.018V479.018H1109.5V468.018H1110.5Z" fill="black"/>
<path fill-rule="evenodd" clip-rule="evenodd" d="M1102.5 468.018V479.018H1101.5V468.018H1102.5Z" fill="black"/>
<path fill-rule="evenodd" clip-rule="evenodd" d="M1106.5 468.018V479.018H1105.5V468.018H1106.5Z" fill="black"/>
<path fill-rule="evenodd" clip-rule="evenodd" d="M1118.5 468.018V479.018H1117.5V468.018H1118.5Z" fill="black"/>
<path fill-rule="evenodd" clip-rule="evenodd" d="M1130.5 468.018V479.018H1129.5V468.018H1130.5Z" fill="black"/>
<path fill-rule="evenodd" clip-rule="evenodd" d="M1122.5 468.018V479.018H1121.5V468.018H1122.5Z" fill="black"/>
<path fill-rule="evenodd" clip-rule="evenodd" d="M1126.5 468.018V479.018H1125.5V468.018H1126.5Z" fill="black"/>
<path d="M846.146 506.836C845.548 506.836 845.006 506.71 844.521 506.459C844.044 506.207 843.672 505.861 843.403 505.419C843.134 504.977 843 504.483 843 503.937V500.921C843 500.366 843.134 499.868 843.403 499.426C843.672 498.984 844.044 498.637 844.521 498.386C845.006 498.134 845.548 498.009 846.146 498.009C846.744 498.009 847.281 498.134 847.758 498.386C848.235 498.637 848.607 498.984 848.876 499.426C849.145 499.868 849.279 500.366 849.279 500.921V503.937C849.279 504.483 849.145 504.977 848.876 505.419C848.607 505.861 848.235 506.207 847.758 506.459C847.281 506.71 846.744 506.836 846.146 506.836ZM846.146 505.419C846.649 505.419 847.043 505.28 847.329 505.003C847.615 504.725 847.758 504.34 847.758 503.846V500.999C847.758 500.513 847.611 500.132 847.316 499.855C847.03 499.569 846.64 499.426 846.146 499.426C845.643 499.426 845.245 499.569 844.95 499.855C844.664 500.132 844.521 500.513 844.521 500.999V503.846C844.521 504.331 844.664 504.717 844.95 505.003C845.245 505.28 845.643 505.419 846.146 505.419Z" fill="black"/>
<path d="M872.763 506.537H871.242V500.115C870.982 500.201 870.657 500.245 870.267 500.245H869.279V498.854H870.202C870.54 498.854 870.796 498.784 870.969 498.646C871.151 498.498 871.242 498.286 871.242 498.009H872.763V506.537Z" fill="black"/>
<path d="M898.574 505.328V506.693H892.867V505.341L895.35 502.884C895.783 502.459 896.104 502.125 896.312 501.883C896.52 501.631 896.663 501.415 896.741 501.233C896.828 501.051 896.871 500.856 896.871 500.648V500.518C896.871 500.171 896.754 499.902 896.52 499.712C896.295 499.512 895.978 499.413 895.571 499.413C895.164 499.413 894.843 499.521 894.609 499.738C894.384 499.946 894.271 500.24 894.271 500.622V500.895H892.763V500.596C892.763 499.79 893.01 499.157 893.504 498.698C894.007 498.238 894.696 498.009 895.571 498.009C896.446 498.009 897.131 498.234 897.625 498.685C898.128 499.127 898.379 499.738 898.379 500.518V500.648C898.379 501.116 898.245 501.579 897.976 502.039C897.707 502.489 897.235 503.048 896.559 503.716L894.934 505.328H898.574Z" fill="black"/>
<path d="M922.318 501.311C923.02 501.389 923.57 501.644 923.969 502.078C924.368 502.502 924.567 503.061 924.567 503.755V504.015C924.567 504.838 924.298 505.492 923.761 505.978C923.224 506.454 922.496 506.693 921.577 506.693C920.632 506.693 919.896 506.472 919.367 506.03C918.838 505.579 918.574 504.955 918.574 504.158V503.898H920.082V504.158C920.082 504.53 920.208 504.812 920.459 505.003C920.719 505.193 921.092 505.289 921.577 505.289C922.045 505.289 922.405 505.18 922.656 504.964C922.916 504.747 923.046 504.439 923.046 504.041V503.781C923.046 503.391 922.912 503.096 922.643 502.897C922.374 502.689 921.993 502.585 921.499 502.585H920.251V501.402L922.435 499.387H918.756V498.009H924.411V499.387L922.318 501.311Z" fill="black"/>
<path d="M951.535 504.769H950.287V506.537H948.779V504.769H944.567V503.352C944.948 502.494 945.26 501.636 945.503 500.778C945.746 499.92 945.936 498.997 946.075 498.009H947.635V498.243C947.375 500.045 946.911 501.748 946.244 503.352H948.779V499.504H950.287V503.352H951.535V504.769Z" fill="black"/>
<path d="M974.655 500.986C975.227 500.986 975.73 501.094 976.163 501.311C976.605 501.519 976.943 501.822 977.177 502.221C977.42 502.611 977.541 503.061 977.541 503.573V503.963C977.541 504.803 977.268 505.471 976.722 505.965C976.185 506.45 975.457 506.693 974.538 506.693C973.602 506.693 972.865 506.48 972.328 506.056C971.799 505.631 971.535 505.042 971.535 504.288V504.158H973.043V504.288C973.043 504.6 973.169 504.847 973.42 505.029C973.68 505.202 974.035 505.289 974.486 505.289C974.971 505.289 975.344 505.18 975.604 504.964C975.873 504.738 976.007 504.418 976.007 504.002V503.612C976.007 503.239 975.868 502.944 975.591 502.728C975.322 502.502 974.954 502.39 974.486 502.39C974.079 502.39 973.745 502.463 973.485 502.611C973.225 502.758 973.073 502.962 973.03 503.222H971.574L971.834 498.009H977.151V499.426H973.199L973.095 501.389C973.528 501.12 974.048 500.986 974.655 500.986Z" fill="black"/>
<path d="M1000.82 501.272C1001.37 501.272 1001.87 501.389 1002.31 501.623C1002.76 501.848 1003.11 502.164 1003.35 502.572C1003.6 502.97 1003.73 503.417 1003.73 503.911V504.171C1003.73 504.682 1003.6 505.141 1003.34 505.549C1003.09 505.956 1002.73 506.277 1002.26 506.511C1001.8 506.736 1001.28 506.849 1000.7 506.849C1000.09 506.849 999.547 506.727 999.062 506.485C998.585 506.233 998.213 505.891 997.944 505.458C997.675 505.016 997.541 504.517 997.541 503.963V500.986C997.541 500.405 997.671 499.889 997.931 499.439C998.2 498.988 998.568 498.637 999.036 498.386C999.513 498.134 1000.06 498.009 1000.67 498.009C1001.25 498.009 1001.77 498.113 1002.22 498.321C1002.68 498.529 1003.04 498.823 1003.3 499.205C1003.56 499.577 1003.69 500.006 1003.69 500.492V500.622H1002.17V500.492C1002.17 500.162 1002.03 499.898 1001.74 499.699C1001.46 499.499 1001.11 499.4 1000.67 499.4C1000.2 499.4 999.807 499.543 999.504 499.829C999.209 500.115 999.062 500.487 999.062 500.947V501.766C999.547 501.436 1000.13 501.272 1000.82 501.272ZM1002.21 503.937C1002.21 503.529 1002.07 503.217 1001.81 503.001C1001.55 502.775 1001.18 502.663 1000.7 502.663C1000.32 502.663 999.985 502.723 999.699 502.845C999.422 502.957 999.209 503.126 999.062 503.352V503.937C999.062 504.387 999.214 504.756 999.517 505.042C999.82 505.319 1000.21 505.458 1000.7 505.458C1001.16 505.458 1001.52 505.345 1001.79 505.12C1002.07 504.886 1002.21 504.578 1002.21 504.197V503.937Z" fill="black"/>
<path d="M834.172 523.198C832.984 523.198 831.922 522.94 830.986 522.424C830.062 521.908 829.342 521.188 828.826 520.264C828.31 519.328 828.052 518.266 828.052 517.078C828.052 515.89 828.31 514.834 828.826 513.91C829.342 512.986 830.062 512.272 830.986 511.768C831.922 511.252 832.984 510.994 834.172 510.994C835.36 510.994 836.416 511.252 837.34 511.768C838.276 512.284 839.002 513.004 839.518 513.928C840.046 514.852 840.31 515.902 840.31 517.078C840.31 518.266 840.046 519.328 839.518 520.264C839.002 521.188 838.276 521.908 837.34 522.424C836.416 522.94 835.36 523.198 834.172 523.198ZM834.172 521.128C834.964 521.128 835.666 520.96 836.278 520.624C836.89 520.276 837.364 519.796 837.7 519.184C838.036 518.572 838.204 517.87 838.204 517.078C838.204 516.286 838.036 515.59 837.7 514.99C837.364 514.378 836.89 513.904 836.278 513.568C835.666 513.232 834.964 513.064 834.172 513.064C833.38 513.064 832.678 513.232 832.066 513.568C831.466 513.904 830.998 514.378 830.662 514.99C830.326 515.59 830.158 516.286 830.158 517.078C830.158 517.882 830.326 518.59 830.662 519.202C830.998 519.814 831.466 520.288 832.066 520.624C832.678 520.96 833.38 521.128 834.172 521.128Z" fill="black"/>
<path d="M957.5 526.256C958.256 526.256 958.922 526.412 959.498 526.724C960.086 527.036 960.536 527.474 960.848 528.038C961.172 528.602 961.334 529.256 961.334 530V530.396C961.334 531.14 961.172 531.794 960.848 532.358C960.536 532.922 960.092 533.36 959.516 533.672C958.94 533.984 958.274 534.14 957.518 534.14C956.762 534.14 956.09 533.984 955.502 533.672C954.914 533.348 954.458 532.904 954.134 532.34C953.81 531.776 953.648 531.128 953.648 530.396V530C953.648 529.268 953.81 528.62 954.134 528.056C954.458 527.492 954.908 527.054 955.484 526.742C956.072 526.418 956.744 526.256 957.5 526.256ZM959.984 529.982C959.984 529.166 959.774 528.548 959.354 528.128C958.934 527.708 958.316 527.498 957.5 527.498C956.708 527.498 956.09 527.714 955.646 528.146C955.214 528.578 954.998 529.19 954.998 529.982V530.396C954.998 531.188 955.214 531.806 955.646 532.25C956.09 532.682 956.708 532.898 957.5 532.898C958.292 532.898 958.904 532.682 959.336 532.25C959.768 531.806 959.984 531.188 959.984 530.396V529.982ZM959.264 529.676C959.264 530.156 959.066 530.51 958.67 530.738L959.336 531.89V531.998H958.076L957.5 530.954H957.086V531.998H955.898V528.362H957.752C958.208 528.362 958.574 528.476 958.85 528.704C959.126 528.932 959.264 529.238 959.264 529.622V529.676ZM957.086 530.036H957.716C957.848 530.036 957.95 530.006 958.022 529.946C958.106 529.886 958.148 529.802 958.148 529.694V529.64C958.148 529.532 958.106 529.448 958.022 529.388C957.95 529.328 957.848 529.298 957.716 529.298H957.086V530.036Z" fill="black"/>
<path d="M1102.48 110.32C1094.56 110.32 1087.48 108.6 1081.24 105.16C1075.08 101.72 1070.28 96.92 1066.84 90.76C1063.4 84.52 1061.68 77.44 1061.68 69.52C1061.68 61.6 1063.4 54.56 1066.84 48.4C1070.28 42.24 1075.08 37.48 1081.24 34.12C1087.48 30.68 1094.56 28.96 1102.48 28.96C1110.4 28.96 1117.44 30.68 1123.6 34.12C1129.84 37.56 1134.68 42.36 1138.12 48.52C1141.64 54.68 1143.4 61.68 1143.4 69.52C1143.4 77.44 1141.64 84.52 1138.12 90.76C1134.68 96.92 1129.84 101.72 1123.6 105.16C1117.44 108.6 1110.4 110.32 1102.48 110.32ZM1102.48 96.52C1107.76 96.52 1112.44 95.4 1116.52 93.16C1120.6 90.84 1123.76 87.64 1126 83.56C1128.24 79.48 1129.36 74.8 1129.36 69.52C1129.36 64.24 1128.24 59.6 1126 55.6C1123.76 51.52 1120.6 48.36 1116.52 46.12C1112.44 43.88 1107.76 42.76 1102.48 42.76C1097.2 42.76 1092.52 43.88 1088.44 46.12C1084.44 48.36 1081.32 51.52 1079.08 55.6C1076.84 59.6 1075.72 64.24 1075.72 69.52C1075.72 74.88 1076.84 79.6 1079.08 83.68C1081.32 87.76 1084.44 90.92 1088.44 93.16C1092.52 95.4 1097.2 96.52 1102.48 96.52Z" fill="black"/>
<path d="M1107.71 59.936V92H1099.2V59.936H1107.71ZM1103.42 56.352C1101.85 56.352 1100.54 55.8613 1099.52 54.88C1098.54 53.8987 1098.05 52.64 1098.05 51.104C1098.05 49.5253 1098.54 48.2453 1099.52 47.264C1100.54 46.2827 1101.85 45.792 1103.42 45.792C1105.05 45.792 1106.35 46.2827 1107.33 47.264C1108.31 48.2453 1108.8 49.5253 1108.8 51.104C1108.8 52.64 1108.29 53.8987 1107.26 54.88C1106.28 55.8613 1105 56.352 1103.42 56.352Z" fill="black"/>
</svg>
