<svg width="1236" height="468" viewBox="0 0 1236 468" fill="none" xmlns="http://www.w3.org/2000/svg">
<g filter="url(#filter0_d_474:85)">
<path d="M320 240.509C241.281 238.905 216.17 238.437 168.47 185.171L170.93 163.116L173.39 141.061L191.101 134.645C194.267 120.192 137.095 78.135 93.6887 120.209C78.9014 135.257 80.9467 153.397 106.48 206.023C38.5333 232.773 -1.24509 261.746 7.0983 285.421C15.4417 309.097 77.5465 313.124 78.9276 323.116C80.1739 332.132 75.3629 336.747 64.1682 344.77C77.3295 349.76 84.4095 351.184 93.6887 338.354L78.9276 457.852L164.04 445.02M320 285.421C259.022 308.197 217.035 272.415 214.715 254.143C212.394 235.872 218.1 345.433 208.811 402.514L249.153 432.188L164.04 445.02M168.47 348.78L164.04 445.02M289.497 267.777H320M126.5 141.061C140.269 156.495 149.54 161.13 168.47 163.116" stroke="black" stroke-width="4" stroke-linecap="round" stroke-linejoin="round"/>
<ellipse cx="142" cy="127" rx="5" ry="4" fill="black"/>
<path d="M354.499 163L354.499 161L354.499 2H991.5V400H354.499V245V244.089L353.813 243.491L261.344 163H352.499H354.499Z" stroke="black" stroke-width="4"/>
<path d="M485.8 200.5C485.8 205.167 484.733 209.267 482.6 212.8C480.533 216.267 477.6 218.933 473.8 220.8V224.1H485.8V236H462.4V212C465.533 211.333 467.933 209.967 469.6 207.9C471.267 205.767 472.1 203.033 472.1 199.7V194.1C472.1 190.3 470.933 187.333 468.6 185.2C466.333 183 463.167 181.9 459.1 181.9C455.1 181.9 451.933 183 449.6 185.2C447.333 187.333 446.2 190.3 446.2 194.1V199.7C446.2 203.1 447.033 205.867 448.7 208C450.367 210.067 452.767 211.4 455.9 212V236H432.4V224.1H444.3V220.8C440.5 218.933 437.567 216.233 435.5 212.7C433.433 209.167 432.4 205.1 432.4 200.5V192.6C432.4 188.133 433.533 184.133 435.8 180.6C438.133 177 441.3 174.2 445.3 172.2C449.367 170.2 453.967 169.2 459.1 169.2C464.233 169.2 468.8 170.2 472.8 172.2C476.867 174.2 480.033 177 482.3 180.6C484.633 184.133 485.8 188.133 485.8 192.6V200.5ZM426.4 170.4L424.4 192.5H412L414 170.4H426.4ZM515.407 200.8C512.94 200.8 510.974 200.067 509.507 198.6C508.04 197.133 507.307 195.167 507.307 192.7C507.307 190.3 508.04 188.367 509.507 186.9C511.04 185.367 513.007 184.6 515.407 184.6C517.874 184.6 519.874 185.367 521.407 186.9C522.94 188.367 523.707 190.3 523.707 192.7C523.707 195.1 522.94 197.067 521.407 198.6C519.874 200.067 517.874 200.8 515.407 200.8ZM514.407 254.2C510.274 254.2 506.607 253.467 503.407 252C500.274 250.533 497.84 248.433 496.107 245.7C494.374 243.033 493.507 239.933 493.507 236.4V234.6C493.507 231.667 494.14 229 495.407 226.6C496.674 224.133 498.874 221.6 502.007 219C505.007 216.6 506.974 214.733 507.907 213.4C508.84 212.067 509.307 210.5 509.307 208.7V206.4H521.907V209.3C521.907 212.5 521.24 215.233 519.907 217.5C518.64 219.7 516.24 222.2 512.707 225C510.44 226.8 508.874 228.4 508.007 229.8C507.14 231.2 506.707 232.6 506.707 234V235.4C506.707 237.4 507.407 239 508.807 240.2C510.207 241.467 512.107 242.1 514.507 242.1C517.04 242.1 519.007 241.4 520.407 240C521.874 238.667 522.607 236.767 522.607 234.3V231.5H535.707V234.4C535.707 240.467 533.774 245.267 529.907 248.8C526.107 252.4 520.94 254.2 514.407 254.2ZM583.245 169.2C591.178 169.2 598.111 170.733 604.045 173.8C609.978 176.8 614.545 181.1 617.745 186.7C620.945 192.3 622.545 198.833 622.545 206.3V214.9C622.545 220.033 620.978 224.233 617.845 227.5C614.711 230.767 610.645 232.4 605.645 232.4C603.045 232.4 600.645 231.967 598.445 231.1C596.311 230.233 594.545 229 593.145 227.4C590.211 231.133 585.811 233 579.945 233C576.545 233 573.511 232.2 570.845 230.6C568.178 228.933 566.078 226.667 564.545 223.8C563.011 220.933 562.245 217.733 562.245 214.2V206.3C562.245 202.767 563.011 199.567 564.545 196.7C566.078 193.833 568.178 191.6 570.845 190C573.578 188.333 576.611 187.5 579.945 187.5C584.278 187.5 587.978 188.667 591.045 191L591.345 188.6H602.045V216.7C602.045 219.967 603.411 221.6 606.145 221.6C607.678 221.6 608.878 221 609.745 219.8C610.611 218.6 611.045 216.967 611.045 214.9V205.7C611.045 197.5 608.645 191.167 603.845 186.7C599.045 182.233 592.245 180 583.445 180C574.178 180 567.078 182.333 562.145 187C557.211 191.6 554.745 198.167 554.745 206.7V215C554.745 222.8 557.078 228.833 561.745 233.1C566.411 237.367 573.011 239.5 581.545 239.5H594.145V250.1H581.545C574.145 250.1 567.511 248.6 561.645 245.6C555.845 242.6 551.278 238.467 547.945 233.2C544.678 227.933 543.045 221.967 543.045 215.3V206.4C543.045 198.933 544.678 192.4 547.945 186.8C551.211 181.2 555.878 176.867 561.945 173.8C568.011 170.733 575.111 169.2 583.245 169.2ZM582.345 221.7C583.945 221.7 585.411 221.367 586.745 220.7C588.078 220.033 589.145 219.1 589.945 217.9V202.5C589.078 201.367 587.978 200.467 586.645 199.8C585.378 199.133 583.945 198.8 582.345 198.8C579.745 198.8 577.745 199.533 576.345 201C575.011 202.4 574.345 204.467 574.345 207.2V213.3C574.345 218.9 577.011 221.7 582.345 221.7ZM643.528 212.5C643.528 209.367 644.161 206.767 645.428 204.7C646.695 202.567 649.095 200.033 652.628 197.1C654.895 195.3 656.461 193.8 657.328 192.6C658.261 191.333 658.728 190.033 658.728 188.7V187.7C658.728 185.767 658.028 184.233 656.628 183.1C655.228 181.9 653.328 181.3 650.928 181.3C648.395 181.3 646.395 182 644.928 183.4C643.528 184.733 642.828 186.6 642.828 189V191.5H629.728V188.9C629.728 182.833 631.628 178.033 635.428 174.5C639.295 170.967 644.495 169.2 651.028 169.2C655.095 169.2 658.695 169.933 661.828 171.4C665.028 172.867 667.495 174.933 669.228 177.6C671.028 180.267 671.928 183.333 671.928 186.8V187.9C671.928 190.7 671.228 193.333 669.828 195.8C668.428 198.267 666.295 200.633 663.428 202.9C660.428 205.3 658.461 207.167 657.528 208.5C656.661 209.767 656.228 211.333 656.228 213.2V215.4H643.528V212.5ZM650.028 237.2C647.561 237.2 645.561 236.467 644.028 235C642.561 233.467 641.828 231.5 641.828 229.1C641.828 226.767 642.561 224.867 644.028 223.4C645.561 221.867 647.561 221.1 650.028 221.1C652.428 221.1 654.361 221.867 655.828 223.4C657.361 224.867 658.128 226.767 658.128 229.1C658.128 231.5 657.395 233.467 655.928 235C654.461 236.467 652.495 237.2 650.028 237.2ZM730.566 194.8L729.566 212H739.066V224H728.766L728.066 236H715.166L715.866 224H703.166L702.366 236H689.366L690.066 224H680.266V212H690.766L691.766 194.8H682.266V182.3H692.566L693.266 170.4H706.266L705.566 182.3H718.366L719.066 170.4H732.066L731.366 182.3H741.066V194.8H730.566ZM716.866 212.3L717.866 194.6H704.666L703.666 212.3H716.866ZM825.694 192.6L796.194 203.2L825.694 213.8V226.4H823.794L780.094 210.8V195.6L823.794 180H825.694V192.6ZM857.385 166.2V168.1L848.885 194H836.785L842.485 166.2H857.385ZM907.868 201.3V211.5H902.268C898.468 211.5 895.535 210.467 893.468 208.4C890.335 211.2 886.135 212.6 880.868 212.6C876.001 212.6 872.135 211.5 869.268 209.3C866.468 207.1 865.068 204.133 865.068 200.4C865.068 197 866.201 194.333 868.468 192.4C870.735 190.4 874.201 189.067 878.868 188.4L890.668 186.8V185.5C890.668 183.633 890.068 182.233 888.868 181.3C887.668 180.3 885.968 179.8 883.768 179.8C881.635 179.8 879.935 180.267 878.668 181.2C877.401 182.133 876.768 183.4 876.768 185V185.6H865.468V185C865.468 180.267 867.135 176.533 870.468 173.8C873.801 171.067 878.301 169.7 883.968 169.7C889.701 169.7 894.135 171.1 897.268 173.9C900.401 176.7 901.968 180.633 901.968 185.7V198.6C901.968 200.4 902.968 201.3 904.968 201.3H907.868ZM881.668 203.5C883.601 203.5 885.335 203.167 886.868 202.5C888.468 201.767 889.735 200.8 890.668 199.6V195L881.468 196.4C879.668 196.667 878.335 197.1 877.468 197.7C876.668 198.233 876.268 199 876.268 200C876.268 201.133 876.735 202 877.668 202.6C878.668 203.2 880.001 203.5 881.668 203.5Z" fill="#040405"/>
</g>
<defs>
<filter id="filter0_d_474:85" x="-0.000610352" y="0" width="997.5" height="467.852" filterUnits="userSpaceOnUse" color-interpolation-filters="sRGB">
<feFlood flood-opacity="0" result="BackgroundImageFix"/>
<feColorMatrix in="SourceAlpha" type="matrix" values="0 0 0 0 0 0 0 0 0 0 0 0 0 0 0 0 0 0 127 0" result="hardAlpha"/>
<feOffset dy="4"/>
<feGaussianBlur stdDeviation="2"/>
<feComposite in2="hardAlpha" operator="out"/>
<feColorMatrix type="matrix" values="0 0 0 0 0 0 0 0 0 0 0 0 0 0 0 0 0 0 0.25 0"/>
<feBlend mode="normal" in2="BackgroundImageFix" result="effect1_dropShadow_474:85"/>
<feBlend mode="normal" in="SourceGraphic" in2="effect1_dropShadow_474:85" result="shape"/>
</filter>
</defs>
</svg>
