<svg width="990" height="460" viewBox="0 0 990 460" fill="none" xmlns="http://www.w3.org/2000/svg">
<path d="M316 240.509C237.281 238.905 212.17 238.437 164.47 185.171L166.93 163.116L169.39 141.061L187.101 134.645C190.267 120.192 133.095 78.135 89.6887 120.209C74.9014 135.257 76.9467 153.397 102.48 206.023C34.5333 232.773 -5.24509 261.746 3.0983 285.421C11.4417 309.097 73.5465 313.124 74.9276 323.116C76.1739 332.132 71.3629 336.747 60.1682 344.77C73.3295 349.76 80.4095 351.184 89.6887 338.354L74.9276 457.852L160.04 445.02M316 285.421C255.022 308.197 213.035 272.415 210.715 254.143C208.394 235.872 214.1 345.433 204.811 402.514L245.153 432.188L160.04 445.02M164.47 348.78L160.04 445.02M285.497 267.777H316M122.5 141.061C136.269 156.495 145.54 161.13 164.47 163.116" stroke="black" stroke-width="4" stroke-linecap="round" stroke-linejoin="round"/>
<ellipse cx="138" cy="127" rx="5" ry="4" fill="black"/>
<path d="M349.813 243.491L257.344 163H348.499H350.499L350.499 161L350.499 2H987.5V400H350.499V245V244.089L349.813 243.491Z" stroke="black" stroke-width="4"/>
</svg>
