<svg width="507" height="299" viewBox="0 0 507 299" fill="none" xmlns="http://www.w3.org/2000/svg">
<mask id="mask0_265:12023" style="mask-type:alpha" maskUnits="userSpaceOnUse" x="0" y="0" width="507" height="299">
<path d="M291.5 141C291.5 181.417 273.824 217.854 245.526 243.49C226.693 219.805 215.5 190.162 215.5 158C215.5 117.583 233.176 81.1457 261.474 55.5103C280.307 79.1949 291.5 108.838 291.5 141ZM146 0.5C192.686 0.5 234.227 21.7288 260.848 54.7285C232.325 80.5438 214.5 117.257 214.5 158C214.5 190.427 225.791 220.301 244.78 244.16C218.838 267.335 184.135 281.5 146 281.5C65.626 281.5 0.5 218.58 0.5 141C0.5 63.4203 65.626 0.5 146 0.5ZM262.22 54.8398C288.162 31.665 322.865 17.5 361 17.5C441.374 17.5 506.5 80.4203 506.5 158C506.5 235.58 441.374 298.5 361 298.5C314.314 298.5 272.773 277.271 246.152 244.271C274.675 218.456 292.5 181.743 292.5 141C292.5 108.573 281.209 78.699 262.22 54.8398Z" fill="#EAE4DF" stroke="black"/>
</mask>
<g mask="url(#mask0_265:12023)">
<path d="M152.5 266C111.558 266 80.2393 254.909 58.5436 232.726C36.8479 210.133 26 177.681 26 135.371V121.815H94.7614V135.371C94.7614 153.856 99.6604 167.823 109.459 177.271C119.257 186.719 133.604 191.443 152.5 191.443C169.997 191.443 183.469 187.746 192.917 180.351C202.365 172.547 207.089 161.455 207.089 147.078V141.532C207.089 130.03 203.765 120.582 197.116 113.188C190.817 105.383 180.844 99.427 167.197 95.3191L114.183 78.0662C86.888 69.0289 66.0671 55.4731 51.7199 37.3986C37.3728 19.3241 30.1992 -2.65295 30.1992 -28.5324V-37.1588C30.1992 -60.1627 35.2732 -80.2912 45.4212 -97.5441C55.9191 -115.208 70.4412 -128.764 88.9876 -138.212C107.534 -148.071 129.055 -153 153.55 -153C191.342 -153 220.737 -142.32 241.732 -120.959C262.728 -100.009 273.226 -70.6377 273.226 -32.8456V-19.2897H204.99V-32.8456C204.99 -48.8662 200.615 -60.7789 191.867 -68.5838C183.469 -76.3887 170.172 -80.2912 151.975 -80.2912C136.228 -80.2912 123.806 -76.7995 114.707 -69.8162C105.959 -62.8329 101.585 -52.974 101.585 -40.2397V-34.6941C101.585 -25.2461 104.734 -16.825 111.033 -9.43088C117.682 -2.44754 127.13 3.09804 139.378 7.20587L191.867 25.075C221.261 34.9338 243.132 48.9005 257.479 66.975C271.826 85.0495 279 107.848 279 135.371V143.997C279 181.378 267.627 211.16 244.882 233.343C222.136 255.114 191.342 266 152.5 266Z" fill="#040405"/>
</g>
</svg>
