<?xml version="1.0" encoding="utf-8"?>
<!-- Generator: Adobe Illustrator 26.0.2, SVG Export Plug-In . SVG Version: 6.00 Build 0)  -->
<svg version="1.1" id="Layer_1" xmlns="http://www.w3.org/2000/svg" xmlns:xlink="http://www.w3.org/1999/xlink" x="0px" y="0px"
	 viewBox="0 0 595.3 841.9" style="enable-background:new 0 0 595.3 841.9;" xml:space="preserve">
<style type="text/css">
	.st0{fill:#FFFFFF;}
</style>
<g>
	<path d="M496,391.2c-4.8-37.9-26.7-63.2-62.1-76.4c-24.3-9-49.1-9.5-72.5,3.3c-8.6,4.7-15.8,11.8-24.1,18.2
		c-0.1-0.1-0.8-0.8-1.4-1.6c-29.6-35.8-77.1-47.3-119.1-27.9c-32.1,14.8-51.2,40.1-54.7,75.5c-2.5,24.7,5.6,46.6,21.6,65.5
		c1.3,1.6,2.6,3.2,4.3,5.3c-22.7,7.3-43.6,16.2-59.2,34.2c-15.2,17.6-22.9,38.7-28.7,60.8c3-3.2,5.2-6.8,7.6-10.3
		c9.4-14.2,19.5-27.8,32.3-39.2c17.4-15.4,38-22.2,60.8-23.2c8.7-0.4,18-0.9,26.2,1.4c36.3,10,68.8,4,97.7-20.3
		c1.1-0.9,2.2-1.8,3.5-2.8c0.8,1.2,1.4,2,1.9,2.8c16.6,23.3,39.6,34.9,67.7,36.7c17.8,1.1,34.1-4.5,49.7-12.7
		C480.3,463.5,500.6,427.4,496,391.2z M323.5,455c-22.4,19.4-48.4,27.6-77.7,23.6c-7.1-1-13.7-2.5-20-4.5c-0.4,0-0.8-0.1-1.3-0.2
		l0,0c-1.9-0.3-3.8-0.3-5.8-0.4c-1.3,0-2.6,0-4,0l0,0h-0.1c-0.3-0.1-0.6-0.1-0.9-0.2c-50.8-2.7-84.3,23.7-109.2,64.9
		c0.2-0.9,0.3-1.9,0.7-2.8c7.2-20.8,16.2-40.5,33.3-55.3c13.9-12.1,30.4-19,47.6-24.5c0.4-0.2,0.8-0.4,1.2-0.6
		c0.6-0.3,1.1-0.6,1.5-1.1c0.3-0.4,0.5-0.8,0.4-1.3c-0.1-0.7-0.4-1.3-0.8-1.8c-7.5-8-13.8-17.7-18.6-29.1
		c-13.9-32.8-4.5-72.2,21.9-96c1-0.9,2.1-1.5,3.5-2.6c10.9,13.3,24.9,21.6,40.8,26.9c11.7,3.9,23.6,7.2,35,11.6
		c6.7,2.6,13.8,5.7,18.9,10.6c10.2,9.8,9.8,22.6,5.5,34.9c-4.2,12-14.9,15.6-26.3,16.4c-7,0.4-14.4,0-21.2-1.6
		c-13.5-3.2-21.7-13.9-22.5-27.7c-0.2-4-0.2-8-0.2-12c0-2.9-1.2-4.3-4.2-4.2c-12.8,0.1-25.7-0.1-38.5,0.2c-1.3,0-3.6,1.8-3.6,2.8
		c-0.9,22.8,1.6,44.9,15.5,64.2c7.5,10.4,17.3,18,29.4,22.4c25.7,9.3,51.6,9.7,77-0.5c8.1-3.3,15.1-9.5,22.6-14.3
		c1-0.7,1.9-1.6,2.8-2.4c0.3,0.3,0.6,0.5,0.9,0.8C325.8,452.3,324.8,453.9,323.5,455z M461,469.5c-1.8,1.4-3.5,3.2-6,0.8
		c-12.4-11.9-28-17.6-44-22.7c-8.6-2.8-17-5.7-25.5-8.7c-22.7-8-24.1-32.5-17-47.8c4.4-9.4,13.6-12.5,23.1-13.5
		c11.1-1.1,22.1-0.6,31.2,7.1c7.8,6.6,10.5,15.6,10.8,25.4c0.4,13.2,0.3,13.2,13.3,13.1c8.8,0,17.7-0.1,26.5-0.1
		c2.5,0,4.7-0.3,4.7-3.6c-0.1-20.8-2-41.3-12.8-59.8c-12.1-20.8-31-30.4-54.1-32.9c-17.3-1.9-34.3-0.5-50.3,7
		c-4.8,2.3-9.3,5.3-14,8.2c-0.9,0.9-1.9,1.8-2.8,2.7c-0.3,0.3-0.5,0.5-0.8,0.8c-0.2,0.2-0.3,0.4-0.5,0.6c-0.5,0.6-1,1.1-1.6,1.6
		c-0.4,0.5-0.9,0.9-1.5,1.2c-0.5,0.4-1,0.8-1.8,1.2c-1-0.8-1.7-1.5-2-2.3c-0.1,0-0.2-0.1-0.3-0.2c-0.9-1.5-1.8-2.9-2.8-4.3l0,0
		c-15.6-20.4-38.6-27.1-61.2-34.7c-7.3-2.5-14.6-5-21.8-7.9c19.6-2.3,38,1.4,55.3,10.6c11.2,5.9,20.5,14.1,28.7,23.7
		c0.4,0.4,0.7,0.9,0.9,1.3c0.8,0.7,1.6,1.5,2.4,2.2l0,0c2.5-1.5,4.6-3.5,7-5.1c15.1-16,33.9-22.7,55.6-22.6
		c39.3,0.1,73.8,22.2,88.3,56.8C503.1,403.2,491.8,445.9,461,469.5z"/>
	<path class="st0" d="M339.4,349.1c-0.6,0.2-0.8-0.7-0.3-0.9c0-0.1,0.1-0.3,0.2-0.3c0.1-0.1,0.2-0.1,0.3-0.2c0-0.1,0-0.1,0-0.2
		s0.1-0.1,0.1-0.2s0.1-0.3,0.1-0.3l0,0l0,0c-0.3,0.1-0.6-0.1-0.7-0.4c-0.1,0.2-0.4,0.3-0.6,0.2c-0.9-0.6-1.6-1.4-2.4-2.2
		c0,0,0,0.1-0.1,0.1c0.4,0.5,0.8,1.1,1.2,1.6c0.2,0.2,0,0.6-0.2,0.7c-0.1,0-0.1,0.1-0.2,0.1c0,0.1,0.1,0.1,0.1,0.2
		c0.2,0.2,0.2,0.5,0,0.7c-0.1,0.1-0.4,0.2-0.6,0.1c-0.1,0.1-0.3,0.2-0.5,0.1c0.4,0.7,1,1.5,2,2.3c0.8-0.4,1.3-0.8,1.8-1.2
		C339.6,348.9,339.5,349,339.4,349.1z"/>
</g>
</svg>
