<?xml version="1.0" encoding="utf-8"?>
<!-- Generator: Adobe Illustrator 26.0.2, SVG Export Plug-In . SVG Version: 6.00 Build 0)  -->
<svg version="1.1" id="Layer_1" xmlns="http://www.w3.org/2000/svg" xmlns:xlink="http://www.w3.org/1999/xlink" x="0px" y="0px"
	 viewBox="0 0 206 223" style="enable-background:new 0 0 206 223;" xml:space="preserve">
<path d="M199,28.6c-6.4,1.9-12.8,3.6-19,5.8s-9.2,6.2-8.6,11.4c0.4,2.7,1.7,5.2,3.5,7.3c14.1,15.1,23.2,32.8,25,53.3
	c3.4,39.2-12.3,69.6-45.8,89.9c-54.9,33.2-127.1,4.6-143.9-56.5c-10-36.7,4.4-76.1,37-98.6c29.1-20.2,60.7-23,93.6-10.5
	c5.8,2.2,12.2,2.8,18.3,1.8c11.7-1.6,23.4-3.1,35.1-4.6c1.6-0.1,3.2-0.1,4.8,0L199,28.6z M50,41.8c-1.6,0.9-2.5,1.3-3.3,1.8
	C9.3,69.7-2,122.8,21.5,161.9c20.3,33.7,59.1,51.5,97.8,44.9c34.3-5.8,58.7-24.6,72.8-56.5c5.5-12.6,7.7-26.4,6.4-40
	c-4.4,7-8.4,15.5-14.3,22.4c-11.8,13.7-27.9,19.1-45.5,19.4c-27.3,0.5-54.6,0.1-82,0.1c-6.8,0-6.8,0-6.8-7c0-32.3,0-64.7,0-97
	L50,41.8z M117,109.8L117,109.8c6.3-0.1,12.7,0.1,19-0.1c7.2-0.3,13.4-3,17.3-9.3c10.7-17.2,0.3-37.6-19.8-38.4
	c-11.8-0.5-23.6,0-35.5-0.2c-3.3,0-4.8,1-4.8,4.6c0.1,13,0.2,26,0,39c0,3.6,1.5,4.5,4.8,4.5C104.3,109.7,110.7,109.8,117,109.8
	L117,109.8z M180.8,31.3l-28.6,3.9l17.6,12.2C168.8,38.1,174.7,34.7,180.8,31.3L180.8,31.3z"/>
</svg>
